<?xml version="1.0" encoding="UTF-8" standalone="no"?>
<svg
   xmlns:dc="http://purl.org/dc/elements/1.1/"
   xmlns:cc="http://creativecommons.org/ns#"
   xmlns:rdf="http://www.w3.org/1999/02/22-rdf-syntax-ns#"
   xmlns:svg="http://www.w3.org/2000/svg"
   xmlns="http://www.w3.org/2000/svg"
   xmlns:sodipodi="http://sodipodi.sourceforge.net/DTD/sodipodi-0.dtd"
   xmlns:inkscape="http://www.inkscape.org/namespaces/inkscape"
   version="1.1"
   id="Layer_1"
   x="0px"
   y="0px"
   width="1437.7812"
   height="348.15054"
   viewBox="0 0 1437.7813 348.15054"
   enable-background="new 0 0 1438 366"
   xml:space="preserve"
   sodipodi:docname="Axe_2021.svg"
   inkscape:version="1.0.2-2 (e86c870879, 2021-01-15)"><metadata
     id="metadata17"><rdf:RDF><cc:Work
         rdf:about=""><dc:format>image/svg+xml</dc:format><dc:type
           rdf:resource="http://purl.org/dc/dcmitype/StillImage" /><dc:title></dc:title></cc:Work></rdf:RDF></metadata><defs
     id="defs15" /><sodipodi:namedview
     pagecolor="#ffffff"
     bordercolor="#666666"
     borderopacity="1"
     objecttolerance="10"
     gridtolerance="10"
     guidetolerance="10"
     inkscape:pageopacity="0"
     inkscape:pageshadow="2"
     inkscape:window-width="1920"
     inkscape:window-height="1001"
     id="namedview13"
     showgrid="false"
     inkscape:snap-bbox="false"
     inkscape:bbox-paths="true"
     inkscape:bbox-nodes="true"
     inkscape:snap-page="true"
     fit-margin-top="0"
     fit-margin-left="0"
     fit-margin-right="0"
     fit-margin-bottom="0"
     inkscape:snap-intersection-paths="true"
     inkscape:object-paths="true"
     inkscape:snap-smooth-nodes="true"
     inkscape:document-rotation="0"
     inkscape:zoom="0.70710678"
     inkscape:cx="550.63609"
     inkscape:cy="338.5691"
     inkscape:window-x="-9"
     inkscape:window-y="-9"
     inkscape:window-maximized="1"
     inkscape:current-layer="g10" /><g
     id="g10"
     transform="translate(-0.109,-8.5827204)"><path
       id="rect839"
       style="opacity:1;fill:#000000;stroke-width:26.2904"
       d="M 513.984,8.5827204 V 50.194048 c 0,6.935384 -0.68256,20.724199 6.92578,35.648438 7.60834,14.924244 23.36556,24.709874 29.42383,28.458984 6.05827,3.74911 109.04883,67.48437 109.04883,67.48437 0,0 -102.99056,63.73527 -109.04883,67.48438 -6.05827,3.74911 -21.81549,13.53474 -29.42383,28.45898 -7.60834,14.92424 -6.92578,28.71306 -6.92578,35.64844 v 43.35562 h 100.5 v -42.89663 c 0,-2.28621 -0.089,-8.41344 2.7207,-12.76368 2.80968,-4.35024 9.57747,-8.56388 12.03711,-10.08593 2.45963,-1.52206 103.30469,-63.92578 103.30469,-63.92578 0,0 100.84506,62.40372 103.30469,63.92578 2.45964,1.52205 9.22743,5.73569 12.03711,10.08593 2.8097,4.35024 2.7207,10.47747 2.7207,12.76368 v 42.89663 h 100.5 v -43.35562 c 0,-6.93538 0.68256,-20.7242 -6.92578,-35.64844 -7.60834,-14.92424 -23.36556,-24.70987 -29.42383,-28.45898 -6.05827,-3.74911 -109.04883,-67.48438 -109.04883,-67.48438 0,0 102.99056,-63.73526 109.04883,-67.48437 6.05827,-3.74911 21.81549,-13.53474 29.42383,-28.458984 7.60834,-14.924239 6.92578,-28.713054 6.92578,-35.648438 V 8.5827204 h -100.5 V 49.735064 c 0,2.286214 0.089,8.41343 -2.7207,12.763672 -2.80968,4.350242 -9.57747,8.563883 -12.03711,10.085937 -2.45963,1.522054 -103.30469,63.925777 -103.30469,63.925777 0,0 -100.84506,-62.403723 -103.30469,-63.925777 C 626.78217,71.062619 620.01438,66.848978 617.2047,62.498736 614.395,58.148494 614.484,52.021278 614.484,49.735064 V 8.5827204 Z" /><path
       id="path959"
       style="fill:#000000;stroke-width:42.672"
       d="m 74.609,8.5827954 c -41.273,0 -74.50000091,31.4429996 -74.5,70.4999996 V 356.73319 h 100.5 v -97.06641 h 256.5 v 97.06641 h 100.5 V 79.082795 c 0,-39.057 -33.227,-70.4999996 -74.5,-70.4999996 z m 47.5,74.7656246 h 213.5 c 1.48888,0 2.94163,0.152007 4.34375,0.443359 1.40212,0.291353 2.75404,0.721658 4.04102,1.275391 1.28697,0.553733 2.50889,1.230438 3.65234,2.017578 1.14345,0.787141 2.20816,1.684205 3.17969,2.675781 0.97153,0.991576 1.84986,2.079055 2.62109,3.246094 0.77123,1.167039 1.43598,2.413033 1.97852,3.726563 0.54254,1.313529 0.96258,2.693952 1.24804,4.125004 0.28547,1.43104 0.43555,2.914 0.43555,4.43359 v 75.30664 h -256.5 v -75.30664 c 0,-1.51959 0.15008,-3.00255 0.43555,-4.43359 0.28546,-1.431052 0.7055,-2.811475 1.24804,-4.125004 0.54254,-1.31353 1.20729,-2.559524 1.97852,-3.726563 0.77123,-1.167039 1.64956,-2.254518 2.62109,-3.246094 0.97153,-0.991576 2.03624,-1.88864 3.17969,-2.675781 1.14345,-0.78714 2.36537,-1.463845 3.65234,-2.017578 1.28698,-0.553733 2.6389,-0.984038 4.04102,-1.275391 1.40212,-0.291352 2.85487,-0.443359 4.34375,-0.443359 z" /><path
       id="path881"
       style="opacity:1;fill:#000000;stroke-width:18.3181"
       d="m 1081.111,8.5827954 c -10.1655,0 -32.9259,2.8360836 -52.4024,22.3124996 -25.9686,25.968553 -21.2246,56.689453 -21.2246,56.689453 v 59.322272 71.50195 59.32227 c 0,0 -4.744,30.7209 21.2246,56.68945 19.4765,19.47641 42.237,22.3125 52.4024,22.3125 h 5.375 351.4042 v -71.50195 h -304.8476 c 0,0 -11.6493,0.56632 -18.9024,-6.25391 -7.253,-6.82023 -6.1562,-18.80469 -6.1562,-18.80469 v -41.76367 h 329.9063 V 146.90702 H 1107.984 v -41.76368 c 0,0 -1.0968,-11.984454 6.1562,-18.804686 7.2531,-6.820231 18.9024,-6.253906 18.9024,-6.253906 h 304.8476 V 8.5827954 H 1086.486 Z" /></g></svg>
