<?xml version="1.0" encoding="UTF-8" standalone="no"?>
<!-- Created with Inkscape (http://www.inkscape.org/) -->
<svg
   xmlns:svg="http://www.w3.org/2000/svg"
   xmlns="http://www.w3.org/2000/svg"
   version="1.0"
   width="511"
   height="211"
   viewBox="-0.261 -0.229 511 211"
   id="svg2"
   xml:space="preserve">
	<defs
   id="defs4">
	</defs>
	<g
   id="g6">
		<polygon
   points="491.467,151.049 245.733,210.299 0,151.049 491.467,151.049 "
   style="fill:#ff2a16;fill-rule:evenodd"
   id="polygon8" />
		<path
   d="M 483.217,13.362 C 483.217,21.091 489.402,26.874 496.767,26.874 C 504.091,26.874 510.235,21.091 510.235,13.362 C 510.234,5.78 504.091,0 496.767,0 C 489.401,0 483.217,5.78 483.217,13.362 L 483.217,13.362 z M 485.66,13.362 C 485.66,6.934 490.479,1.974 496.766,1.974 C 502.98,1.974 507.793,6.934 507.793,13.362 C 507.793,19.936 502.98,24.899 496.766,24.899 C 490.479,24.899 485.66,19.937 485.66,13.362 L 485.66,13.362 z M 491.52,21.272 L 493.963,21.272 L 493.963,14.516 L 496.55,14.516 L 500.824,21.272 L 503.449,21.272 L 498.955,14.334 C 501.293,14.082 503.089,12.901 503.089,10.057 C 503.089,7.042 501.331,5.572 497.59,5.572 L 491.52,5.572 L 491.52,21.272 L 491.52,21.272 z M 493.963,7.547 L 497.197,7.547 C 498.849,7.547 500.645,7.872 500.645,9.952 C 500.645,12.433 498.667,12.539 496.511,12.539 L 493.962,12.539 L 493.962,7.547 L 493.963,7.547 z "
   style="fill:#313a93;fill-rule:evenodd"
   id="path10" />
		<polygon
   points="4.065,128.698 71.101,128.698 71.101,116.092 30.721,116.092 30.721,67.362 64.279,67.362 64.279,54.753 30.721,54.753 30.721,12.606 69.949,12.606 69.949,0 4.065,0 4.065,128.698 "
   style="fill:#313a93;fill-rule:evenodd"
   id="polygon12" />
		<path
   d="M 255.067,74.405 C 255.679,56.78 260.797,44.217 270.782,44.217 C 279.592,44.217 283.942,56.29 284.288,74.405 L 255.067,74.405 L 255.067,74.405 z M 306.873,83.921 C 307.04,80.347 307.04,79.403 307.04,77.142 C 307.04,50.992 292.857,36.126 270.612,36.126 C 246.668,36.126 230.28,53.997 230.28,82.603 C 230.28,113.083 247.007,131.142 272.993,131.142 C 282.84,131.142 290.398,129.077 300.078,122.681 L 301.774,110.45 C 294.136,116.655 287.424,118.92 280.466,118.92 C 264.095,118.92 255.066,105.397 255.066,83.922 L 306.873,83.922 L 306.873,83.921 z "
   style="fill:#313a93;fill-rule:evenodd"
   id="path14" />
		<path
   d="M 230.275,43.441 C 222.289,38.036 212.817,36.506 204.921,36.506 C 179.056,36.506 161.465,55.883 161.465,85.233 C 161.465,112.892 178.582,130.772 203.39,130.772 C 212.476,130.772 218.828,129.905 226.464,124.822 L 228.843,112.968 C 222.219,117.808 217.536,118.728 211.203,118.728 C 195.999,118.728 187.102,106.687 187.102,83.545 C 187.102,60.213 194.929,46.982 207.244,46.441 C 217.59,45.99 222.461,51.003 226.542,54.788 L 230.275,43.441 L 230.275,43.441 z "
   style="fill:#313a93;fill-rule:evenodd"
   id="path16" />
		<path
   d="M 367.427,36.882 C 365.558,36.694 364.705,36.694 363.522,36.694 C 352.996,36.694 345.862,43.842 338.901,61.336 L 338.901,38.569 L 316.316,38.569 L 316.316,128.698 L 338.9,128.698 L 338.9,80.528 C 338.9,69.993 346.705,61.336 356.387,61.336 C 359.616,61.336 362.337,61.819 366.409,64.163 L 367.427,36.882 L 367.427,36.882 z "
   style="fill:#313a93;fill-rule:evenodd"
   id="path18" />
		<path
   d="M 129.372,128.698 L 151.954,128.698 L 151.954,38.569 L 129.372,38.569 L 129.372,89.938 C 129.372,105.764 124.717,114.779 114.499,114.779 C 104.62,114.779 100.308,107.387 100.308,96.12 L 100.308,38.569 L 77.725,38.569 L 77.725,98.625 C 77.725,124.099 90.266,130.395 104.313,130.395 C 116.174,130.395 124.333,123.51 129.372,114.967 L 129.372,128.698 L 129.372,128.698 z "
   style="fill:#313a93;fill-rule:evenodd"
   id="path20" />
		<path
   d="M 414.36,128.698 L 436.948,128.698 L 436.948,79.26 C 436.948,54.724 446.048,52.497 451.312,52.497 C 458.188,52.497 464.824,57.173 464.824,73.936 L 464.824,128.698 L 487.409,128.698 L 487.409,66.495 C 487.409,41.727 472.638,36.507 461.839,36.507 C 452.156,36.507 443.068,42.091 436.948,52.122 L 436.948,38.569 L 414.36,38.569 L 414.36,128.698 L 414.36,128.698 z "
   style="fill:#313a93;fill-rule:evenodd"
   id="path22" />
		<polygon
   points="374.842,0 398.247,0 398.247,23.405 374.842,23.405 374.842,0 "
   style="fill:#313a93;fill-rule:evenodd"
   id="polygon24" />
		<polygon
   points="374.657,38.569 398.435,38.569 398.435,128.698 374.657,128.698 374.657,38.569 "
   style="fill:#313a93;fill-rule:evenodd"
   id="polygon26" />
	</g>
</svg>