<svg height="151.619609" viewBox="0 0 22.915397 5.2778863" width="659.545298" xmlns="http://www.w3.org/2000/svg" xmlns:xlink="http://www.w3.org/1999/xlink"><clipPath id="a"><path d="m225.77734 328.28906h7.22266v14.21094h-7.22266zm0 0"/></clipPath><clipPath id="b"><path d="m269 328.28906h4v14.21094h-4zm0 0"/></clipPath><clipPath id="c"><path d="m274 328.28906h4v14.21094h-4zm0 0"/></clipPath><clipPath id="d"><path d="m278 331h11.98828v11.5h-11.98828zm0 0"/></clipPath><clipPath id="e"><path d="m257 331h12v11.5h-12zm0 0"/></clipPath><clipPath id="f"><path d="m233 331h12v11.5h-12zm0 0"/></clipPath><clipPath id="g"><path d="m245 328.28906h12v14.21094h-12zm0 0"/></clipPath><clipPath id="h"><path d="m287 330h2.98828v3h-2.98828zm0 0"/></clipPath><symbol id="i" overflow="visible"/><symbol id="j" overflow="visible"/><symbol id="k" overflow="visible"/><symbol id="l" overflow="visible"/><symbol id="m" overflow="visible"/><g transform="matrix(.35277778 0 0 .35277778 -79.518316 -115.6808)"><g clip-path="url(#a)"><path d="m225.78125 339.49219c0 1.70703.67578 2.85156 2.74219 2.85156h4.35937v-3.17188c-1.23828 0-4.03515.004-4.03515.004s0-.875 0-1.28516v-9.59765h-3.06641zm0 0" fill="#2347a3"/></g><g clip-path="url(#b)"><path d="m269.82031 328.29297v14.05469l3.03516-.008v-14.04687zm0 0" fill="#2347a3"/></g><g clip-path="url(#c)"><path d="m274.37891 328.29297v14.05469l3.03515-.008v-14.04687zm0 0" fill="#2347a3"/></g><g clip-path="url(#d)"><path d="m281.71094 337.10937c0-1.28515 1.04297-2.33203 2.33203-2.33203s2.33203 1.04688 2.33203 2.33203c0 1.28907-1.04297 2.33594-2.33203 2.33594s-2.33203-1.04687-2.33203-2.33594m-3.05469 0c0-2.97265 2.41016-5.38671 5.38672-5.38671s5.39062 2.41406 5.39062 5.38671c0 2.98047-2.41406 5.39063-5.39062 5.39063s-5.38672-2.41016-5.38672-5.39063" fill="#2347a3" fill-rule="evenodd"/></g><g clip-path="url(#e)"><path d="m260.53125 336.16016c.43359-1.05469 1.41406-1.79297 2.55859-1.79297s2.125.73828 2.5586 1.79297zm7.92187.9414c0-2.96875-2.40625-5.3789-5.3789-5.3789-2.96485 0-5.375 2.41015-5.375 5.3789s2.41015 5.375 5.375 5.375c2.33594 0 4.3125-1.48437 5.05859-3.5625h-2.91797c-.51562.64453-1.27343 1.05469-2.125 1.05469-1.14453 0-2.125-.73828-2.55859-1.78906h.48047l-.004-.004 3.60938-.008h3.73047c.0703-.34375.10546-.70313.10546-1.06641" fill="#2347a3" fill-rule="evenodd"/></g><g clip-path="url(#f)"><path d="m238.93359 339.44531c-1.28906 0-2.33593-1.04687-2.33593-2.33594 0-1.28515 1.04687-2.33203 2.33593-2.33203 1.28516 0 2.33594 1.04688 2.33594 2.33203 0 1.28907-1.05078 2.33594-2.33594 2.33594m5.38672-2.39453c-.0352-2.94922-2.43359-5.32812-5.38672-5.32812-2.97656 0-5.39062 2.41406-5.39062 5.38671 0 2.98047 2.41406 5.39063 5.39062 5.39063.85547 0 1.66797-.20703 2.38672-.5625v.41406h3.00391v-5.30078zm0 0" fill="#2347a3" fill-rule="evenodd"/></g><g clip-path="url(#g)"><path d="m251.11328 339.44531c-1.28906 0-2.33594-1.04687-2.33594-2.33594 0-1.28515 1.04688-2.33203 2.33594-2.33203s2.33203 1.04688 2.33203 2.33203c0 1.28907-1.04297 2.33594-2.33203 2.33594m0-7.72265c-.85156 0-1.64844.19921-2.36328.55078v-3.98438h-3.02734v8.83985h.004c.008 2.96875 2.41797 5.37109 5.38672 5.37109 2.97656 0 5.39063-2.41016 5.39063-5.39063 0-2.97265-2.41407-5.38671-5.39063-5.38671" fill="#2347a3" fill-rule="evenodd"/></g><g clip-path="url(#h)"><path d="m288.85547 332.27344c-.51563 0-.9375-.41407-.9375-.9375 0-.52735.42187-.9375.9375-.9375.51562 0 .9375.41015.9375.9375 0 .52343-.42188.9375-.9375.9375m0-2.07032c-.63281 0-1.13281.5-1.13281 1.13282 0 .63281.5 1.13281 1.13281 1.13281s1.13281-.5 1.13281-1.13281c0-.63282-.5-1.13282-1.13281-1.13282m-.0625 1h-.20703v-.33984h.33593c.16016 0 .30469.0117.30469.18359 0 .1836-.25.15625-.43359.15625m.6289-.17578c0-.28515-.21875-.35937-.46484-.35937h-.56641v1.35547h.19532v-.62891h.25l.34765.62891h.22266l-.34375-.62891c.17969-.004.35937-.10156.35937-.36719" fill="#2347a3"/></g><g fill="#211e1e"><use height="100%" width="100%" x="276.32562" xlink:href="#i" y="155.50011"/><use height="100%" width="100%" x="276.35114" xlink:href="#k" y="166.50011"/><use height="100%" width="100%" x="276.3779" xlink:href="#k" y="166.50011"/><use height="100%" width="100%" x="59.663521" xlink:href="#k" y="177.50011"/><use height="100%" width="100%" x="276.3779" xlink:href="#i" y="188.50011"/><use height="100%" width="100%" x="89.962685" xlink:href="#i" y="199.50011"/><use height="100%" width="100%" x="538.5531" xlink:href="#i" y="155.50011"/><use height="100%" width="100%" x="529.19586" xlink:href="#i" y="199.50011"/><use height="100%" width="100%" x="188.98001" xlink:href="#i" y="595.50012"/><use height="100%" width="100%" x="28.346399" xlink:href="#i" y="606.50012"/><use height="100%" width="100%" x="188.96741" xlink:href="#i" y="606.50012"/><use height="100%" width="100%" x="40.346325" xlink:href="#i" y="617.50012"/><use height="100%" width="100%" x="188.97643" xlink:href="#l" y="650.50012"/><use height="100%" width="100%" x="363.77951" xlink:href="#i" y="507.50009"/><use height="100%" width="100%" x="330.82175" xlink:href="#i" y="518.50012"/><use height="100%" width="100%" x="363.77521" xlink:href="#i" y="540.50012"/><use height="100%" width="100%" x="203.1496" xlink:href="#i" y="551.50012"/><use height="100%" width="100%" x="363.74213" xlink:href="#i" y="551.50012"/><use height="100%" width="100%" x="215.01469" xlink:href="#i" y="584.50012"/><use height="100%" width="100%" x="363.75568" xlink:href="#l" y="584.50012"/><use height="100%" width="100%" x="241.08382" xlink:href="#i" y="606.50012"/><use height="100%" width="100%" x="294.51349" xlink:href="#i" y="639.50012"/><use height="100%" width="100%" x="363.77951" xlink:href="#i" y="639.50012"/><use height="100%" width="100%" x="393.48819" xlink:href="#m" y="551.50012"/><use height="100%" width="100%" x="538.56702" xlink:href="#i" y="595.50012"/><use height="100%" width="100%" x="397.91696" xlink:href="#i" y="628.50012"/><use height="100%" width="100%" x="538.56519" xlink:href="#i" y="628.50012"/><g><use height="100%" width="100%" x="377.9527" xlink:href="#j" y="672.50012"/><use height="100%" width="100%" x="385.0777" xlink:href="#j" y="672.50012"/></g></g></g></svg>