<?xml version="1.0" encoding="UTF-8" standalone="no"?>
<!-- Created with Inkscape (http://www.inkscape.org/) -->

<svg
   xmlns:dc="http://purl.org/dc/elements/1.1/"
   xmlns:cc="http://creativecommons.org/ns#"
   xmlns:rdf="http://www.w3.org/1999/02/22-rdf-syntax-ns#"
   xmlns:svg="http://www.w3.org/2000/svg"
   xmlns="http://www.w3.org/2000/svg"
   xmlns:sodipodi="http://sodipodi.sourceforge.net/DTD/sodipodi-0.dtd"
   xmlns:inkscape="http://www.inkscape.org/namespaces/inkscape"
   width="264.58334mm"
   height="59.886551mm"
   viewBox="0 0 264.58334 59.88655"
   version="1.1"
   id="svg8"
   inkscape:version="0.92.2 (5c3e80d, 2017-08-06)"
   sodipodi:docname="Pond's_(2007)_Wordmark.svg">
  <defs
     id="defs2">
    <clipPath
       id="clipPath831"
       clipPathUnits="userSpaceOnUse">
      <path
         inkscape:connector-curvature="0"
         id="path829"
         d="m 0,14.814 h 360 v 189.52 H 0 Z" />
    </clipPath>
    <clipPath
       id="clipPath845"
       clipPathUnits="userSpaceOnUse">
      <path
         inkscape:connector-curvature="0"
         id="path843"
         d="M 0,216 H 360 V 0 H 0 Z" />
    </clipPath>
  </defs>
  <sodipodi:namedview
     id="base"
     pagecolor="#ffffff"
     bordercolor="#666666"
     borderopacity="1.0"
     inkscape:pageopacity="0.0"
     inkscape:pageshadow="2"
     inkscape:zoom="1"
     inkscape:cx="558.77255"
     inkscape:cy="-115.9669"
     inkscape:document-units="mm"
     inkscape:current-layer="g841"
     showgrid="false"
     fit-margin-top="0"
     fit-margin-left="0"
     fit-margin-right="0"
     fit-margin-bottom="0"
     inkscape:window-width="1600"
     inkscape:window-height="837"
     inkscape:window-x="-8"
     inkscape:window-y="-8"
     inkscape:window-maximized="1" />
  <metadata
     id="metadata5">
    <rdf:RDF>
      <cc:Work
         rdf:about="">
        <dc:format>image/svg+xml</dc:format>
        <dc:type
           rdf:resource="http://purl.org/dc/dcmitype/StillImage" />
        <dc:title></dc:title>
      </cc:Work>
    </rdf:RDF>
  </metadata>
  <g
     inkscape:label="Layer 1"
     inkscape:groupmode="layer"
     id="layer1"
     transform="translate(-15.683111,-148.21222)">
    <g
       transform="matrix(0.35277777,0,0,-0.35277777,-142.11905,237.38151)"
       inkscape:label="ponds"
       id="g823">
      <g
         id="g839"
         transform="matrix(8.5396867,0,0,8.5396867,-859.57145,-958.04386)">
        <g
           clip-path="url(#clipPath845)"
           id="g841">
          <g
             transform="matrix(0.51716054,0,0,0.51716054,246.30792,121.48839)"
             id="g847" />
          <g
             transform="matrix(0.51716054,0,0,0.51716054,247.8013,121.71718)"
             id="g851" />
          <g
             transform="matrix(0.51716054,0,0,0.51716054,244.46857,141.8834)"
             id="g897" />
          <g
             transform="matrix(0.51716054,0,0,0.51716054,157.98635,132.45633)"
             id="g901">
            <path
               inkscape:connector-curvature="0"
               id="path903"
               style="fill:#231f20;fill-opacity:1;fill-rule:nonzero;stroke:none"
               d="m 0,0 h -5.963 l -0.012,0.016 v 15.24 h 7.251 c 1.044,0 10.383,0.929 10.383,-7.54 C 11.659,-0.754 2.668,0 0,0 M 3.132,17.925 H -9.571 c 0,0 0.232,-5.395 0.232,-11.079 v -25.988 l 3.364,2.204 v 14.316 l 0.017,0.012 h 8.916 c 5.917,0 12.414,1.972 12.414,10.267 0,8.295 -7.715,10.268 -12.24,10.268 M 136.584,7.638 c 0,-6.652 5.84,-8.662 11.215,-9.63 5.375,-0.967 8.779,-2.01 8.779,-7.192 0,-5.181 -4.564,-8.508 -9.978,-8.508 -5.413,0 -8.43,3.674 -8.43,3.674 0,0 -1.702,-1.044 -3.248,-1.894 3.558,-3.094 7.773,-4.486 12.027,-4.486 4.254,0 13.302,2.474 13.302,11.408 0,8.932 -9.551,9.745 -12.916,10.479 -3.364,0.735 -7.27,1.547 -7.27,6.381 0,4.834 4.06,7.309 9.203,7.309 5.144,0 6.845,-1.701 6.845,-1.701 l 2.785,1.817 c 0,0 -3.133,2.591 -9.668,2.591 -7.116,0 -12.646,-3.597 -12.646,-10.248 m -6.69,8.352 c 0,-2.822 -1.314,-6.419 -3.712,-8.623 7.85,2.553 7.038,9.203 7.038,10.558 h -3.326 z M 97.508,-15.719 h 6.206 c 6.207,0 16.126,2.901 16.126,15.661 0,11.833 -8.816,15.489 -16.996,15.489 h -5.51 z m -3.77,33.644 h 10.093 c 6.497,0 19.606,-2.379 19.606,-18.099 0,-15.72 -12.472,-18.04 -19.2,-18.04 h -6.903 c 0,0 -3.422,3.481 -3.422,12.182 v 16.01 c 0,3.48 -0.174,7.947 -0.174,7.947 m -35.268,-37.589 3.286,2.05 v 30.821 c 0,0 11.177,-16.436 16.243,-23.86 5.066,-7.424 8.082,-8.431 9.512,-8.431 v 36.97 l -3.325,-2.165 v -30.783 c 0,0 -16.86,25.213 -20.379,29.158 -3.519,3.944 -5.394,3.133 -5.394,3.133 z M 35.78,18.04 c -9.766,0 -17.682,-8.596 -17.682,-19.2 0,-10.604 7.916,-19.199 17.682,-19.199 9.765,0 17.681,8.595 17.681,19.199 0,10.604 -7.916,19.2 -17.681,19.2 m 14.221,-19.2 c 0,-9.066 -6.368,-16.415 -14.221,-16.415 -7.854,0 -14.221,7.349 -14.221,16.415 0,9.066 6.367,16.416 14.221,16.416 7.853,0 14.221,-7.35 14.221,-16.416" />
          </g>
        </g>
      </g>
    </g>
  </g>
</svg>
