<svg fill="none" height="175.678525" viewBox="0 0 985 304" width="569.221537" xmlns="http://www.w3.org/2000/svg"><g clip-rule="evenodd" fill="#13c636" fill-rule="evenodd"><path d="m94.7652 104.471c2.4908-2.24 3.8375-3.916 1.8269-3.916-4.2014 0-29.6424 3.754-34.8838-15.462-5.2449-19.2139 22.8012-77.19079 23.8585-79.67574 1.0157-2.38709-1.0833-5.41726-4.1633-5.41726-3.0246 0-5.2432 3.28181-5.5621 3.68374-28.625 35.89546-68.58724 80.72596-73.73505 100.05026-13.02375 48.926 37.33115 68.755 69.11585 72.379.5633.063.8424-.382.8424-.725v-17.372c0-23.444 8.7738-41.003 22.7006-53.545"/><path d="m890.235 104.471c-2.491-2.24-3.838-3.916-1.827-3.916 4.201 0 29.642 3.754 34.884-15.462 5.245-19.2139-22.801-77.19079-23.859-79.67574-1.015-2.38709 1.084-5.41726 4.164-5.41726 3.024 0 5.243 3.28181 5.562 3.68374 28.625 35.89546 68.587 80.72596 73.735 100.05026 13.023 48.926-37.331 68.755-69.116 72.379-.563.063-.841-.382-.841-.725v-17.372c0-23.444-8.775-41.003-22.702-53.545"/><path d="m856.781 229.373c0 18.975-25.372 29.815-41.883 29.815-17.664 0-42.652-10.84-42.652-29.815v-66.863c0-18.964 24.988-27.869 42.652-27.869 16.511 0 41.883 8.905 41.883 27.869zm-41.883-136.1582c-39.169.3932-84.887 23.2292-84.887 69.2952v70.072c0 46.842 45.718 68.911 84.887 69.295 38.399-.384 84.122-22.453 84.122-69.295v-70.072c0-46.066-45.723-68.902-84.122-69.2952z"/><path d="m561.651 229.373c0 18.975-25.381 29.815-41.888 29.815-17.659 0-42.647-10.84-42.647-29.815v-66.863c0-18.964 24.988-27.869 42.647-27.869 16.507 0 41.888 8.905 41.888 27.869zm-41.888-136.1582c-39.164.3932-84.884 23.2292-84.884 69.2952v70.072c0 46.842 45.72 68.911 84.884 69.295 38.4-.384 84.124-22.453 84.124-69.295v-70.072c0-46.066-45.724-68.902-84.124-69.2952z"/><path d="m431.714 108.47c-31.263-8.53-54.382-12.0984-87.887-12.1037-33.517-.0087-56.694 3.5685-87.9 12.0717-1.48.334-1.769 1.863-1.087 2.786 10.683 8.901 15.167 20.798 17.243 34.224 17.163-4.208 32.638-6.663 50.625-7.678v162.731c-.017.58.403.937 1.014.937h40.191c.694.054 1.035-.25 1.027-.9v-162.74c17.296 1.031 31.725 3.474 48.758 7.65 2.593-13.35 8.004-25.8 18.947-34.135.97-1.213.136-2.553-.931-2.843"/><path d="m731.541 94.6519c-3.003-.4246-11.871-1.7143-19.681-1.4189-38.473 1.4853-81.982 24.374-81.982 69.278v3.621 66.456 68.348c-.014.578.404.937 1.018.937h40.191c.695.054 1.036-.25 1.022-.902v-3.624h.007v-134.836c0-14.808 18.084-23.964 33.17-27.05 4.387-14.764 13.006-25.415 26.198-36.0943 2.312-1.8716 2.188-4.4177.057-4.7148"/><path d="m210.547 174.33c0 .474-.18.909-.478 1.223-.324.346-.787.567-1.296.567h-77.036v-14.106c0-19.244 22.684-28.271 40.599-28.271 16.747 0 38.222 9.027 38.222 28.271zm-38.211-82.6024c-39.725.3949-83.4364 23.5584-83.4364 70.2864v71.066c0 47.511 43.7114 69.896 83.4364 70.286 28.46-.285 60.864-12.154 76.286-37.316.515-.835.059-1.936-.724-2.398-13.598-7.86-21.491-12.213-34.967-19.86-.425-.241-.883-.241-1.227.337-7.363 12.365-26.156 19.189-39.368 19.189-17.915 0-40.599-10.997-40.599-30.238v-21.232h110.122c5.883 0 10.649-4.806 10.649-10.739v-39.095c0-46.728-41.226-69.8915-80.172-70.2864z"/></g></svg>