<?xml version="1.0" encoding="UTF-8"?>
<svg xmlns="http://www.w3.org/2000/svg" xmlns:xlink="http://www.w3.org/1999/xlink" width="207.0px" height="43.0px" viewBox="0 0 207.0 43.0" version="1.1">

<defs>
<polycosvg ratio="1.000000" offsetx="0.000000" offsety="0.000000" />
</defs><g>
<path style="fill:rgb(100.0%,100.0%,100.0%);fill-rule:evenodd;stroke:none;" name="Path No.0" d="M 0.0 43.0 C 68.99448 43.0 138.00552 43.0 207.0 43.0 C 207.0 28.656258 207.0 14.333076 207.0 0.0 C 137.99689 0.0 68.987114 0.0 0.0 0.0 C 0.0 14.337586 0.0 28.66941 0.0 43.0 Z M 12.0 32.0 C 12.663907 32.0 13.339565 32.0 14.0 32.0 C 14.0 29.669958 14.0 27.322735 14.0 25.0 C 16.505264 25.140985 19.744696 24.771399 21.813478 26.007195 C 23.429705 27.642714 24.420565 29.809683 25.0 32.0 C 25.663908 32.0 26.339565 32.0 27.0 32.0 C 27.0 31.500664 27.0 30.99337 27.0 30.5 C 22.382578 26.529327 25.085627 22.919857 26.532215 18.558289 C 27.790083 10.958224 19.138296 7.9095926 14.615179 12.153083 C 10.596976 15.979777 12.534211 23.984148 12.0 30.030128 C 12.0 30.697111 12.0 31.338104 12.0 32.0 Z M 14.0 23.0 C 17.05196 22.726416 21.150654 23.626493 23.24425 21.70383 C 25.739136 19.596088 25.021719 14.891923 23.318953 13.212495 C 21.069632 10.804205 17.619207 11.110891 15.613995 13.270767 C 13.451776 15.4345045 14.111104 19.599363 14.0 23.0 Z M 30.262953 24.914057 C 30.27967 28.828426 34.82919 32.531624 37.99948 31.031143 C 41.24081 30.034937 44.12062 25.924139 42.68574 23.079494 C 41.655197 19.295366 38.3147 18.115408 34.996765 18.47231 C 33.987556 19.138025 31.593859 20.049385 31.401806 20.981726 C 30.450233 22.160421 30.015753 23.333994 30.262953 24.914057 Z M 32.0 24.0 C 34.983795 24.0 38.016205 24.0 41.0 24.0 C 41.078796 20.608614 37.966957 18.738943 35.093815 19.625319 C 32.828392 20.071884 31.896997 21.940758 32.0 24.0 Z M 41.0 26.0 C 38.32855 26.0 35.661453 26.0 33.0 26.0 C 32.858227 29.287508 35.49245 30.418974 38.11684 29.86044 C 40.03816 29.662216 41.081024 27.77119 41.0 26.0 Z M 47.0 32.0 C 47.663906 32.0 48.339565 32.0 49.0 32.0 C 49.035748 28.007866 48.174473 20.01467 53.561005 20.497232 C 59.021755 20.22313 57.620068 29.128035 58.0 32.0 C 58.663906 32.0 59.339565 32.0 60.0 32.0 C 59.809746 28.705202 60.314335 24.391153 57.983166 21.011307 C 55.36395 17.461084 51.21818 17.854425 48.968044 21.033066 C 46.563698 24.134909 47.048367 28.222012 47.0 32.0 Z M 71.0 31.5 C 69.35124 30.347174 67.379005 29.466328 65.84331 27.662548 C 64.59128 25.396122 65.27036 22.303682 65.0 20.0 C 66.67783 20.0 68.33061 20.0 70.0 20.0 C 70.0 19.336092 70.0 18.660435 70.0 18.0 C 68.32217 18.0 66.66939 18.0 65.0 18.0 C 65.0 16.655949 65.0 15.336505 65.0 14.0 C 64.33609 14.0 63.660435 14.0 63.0 14.0 C 63.068077 18.73572 61.02938 32.796036 71.0 31.5 Z M 88.0 32.0 C 88.1095 28.101458 88.034065 23.777409 85.33479 20.632875 C 83.370674 17.788837 78.37542 17.719019 76.188835 20.530107 C 73.46052 22.838694 73.68903 27.768248 77.021126 30.067898 C 80.19336 32.311954 84.46466 31.129122 88.0 32.0 Z M 76.05942 24.402328 C 75.98546 28.328012 78.91493 30.562922 82.26192 29.64783 C 84.915474 29.095053 86.164604 25.92913 85.617966 23.502121 C 85.229454 20.117273 81.90197 19.953821 79.398346 20.149273 C 76.63261 20.312408 75.997574 21.821495 76.05942 24.402328 Z M 91.0 32.0 C 91.66391 32.0 92.33957 32.0 93.0 32.0 C 92.46801 25.256794 93.698654 17.107687 92.5 11.0 C 92.09952 11.392618 91.63664 11.806636 91.0 12.0 C 91.0 18.662516 91.0 25.341677 91.0 32.0 Z M 109.0 29.5 C 105.65248 29.168781 99.1568 31.433395 99.37182 25.109339 C 99.34426 23.523249 99.75581 20.78249 102.299706 20.455345 C 104.264595 20.020718 106.62254 20.415516 108.0 20.0 C 106.98601 18.228277 102.23796 17.965498 101.10513 19.04389 C 97.38782 20.92047 96.042046 24.628115 98.268906 28.018646 C 99.952545 30.870293 104.09998 32.6119 107.02246 30.460728 C 107.73218 30.221004 108.36835 29.87022 109.0 29.5 Z M 127.0 32.0 C 126.79411 28.154425 127.55994 23.441452 124.69857 20.653309 C 122.09429 17.684479 117.437 17.758198 115.052025 20.673288 C 112.45219 23.019062 112.80118 27.852459 116.021126 30.067898 C 119.19336 32.311954 123.46466 31.129122 127.0 32.0 Z M 115.07055 24.45676 C 114.93202 28.328379 117.922165 30.525904 121.27121 29.696571 C 124.77595 29.223833 125.22491 25.737495 124.56096 23.20544 C 123.81241 20.383219 120.57022 19.718637 118.05874 20.222584 C 115.33277 20.352432 114.85547 22.105238 115.07055 24.45676 Z M 130.0 32.0 C 130.66391 32.0 131.33957 32.0 132.0 32.0 C 131.75053 27.484999 131.37968 20.26625 137.0 20.0 C 137.0 19.336092 137.0 18.660435 137.0 18.0 C 132.2972 18.110031 130.33797 23.311388 130.07887 26.822865 C 129.94556 28.54078 130.02815 30.285795 130.0 32.0 Z M 148.5 30.0 C 149.01176 29.488243 149.49286 29.007143 150.0 28.5 C 148.34982 26.008856 145.95683 23.950188 143.0 24.0 C 142.99109 22.317793 143.00586 20.61255 142.5 19.0 C 142.09952 19.392618 141.63664 19.806635 141.0 20.0 C 141.73909 25.55344 148.07007 24.716125 148.5 30.0 Z M 142.0 30.375 C 143.14294 32.236694 145.96898 32.31452 147.42506 30.899248 C 147.64561 30.655151 147.69516 30.309189 147.75 30.0 C 146.01762 30.692015 143.9903 31.136026 142.0 30.0 C 142.0 30.10632 142.0 30.24868 142.0 30.375 Z M 143.0 18.3125 C 144.05083 19.54467 146.73303 18.261915 148.0 18.5 C 146.33301 18.339966 144.66849 18.106142 143.0 18.0 C 143.0 18.104166 143.0 18.208334 143.0 18.3125 Z M 154.5 32.0 C 154.79456 31.357206 154.98451 30.701838 155.0 30.0 C 154.11603 30.057526 153.93536 30.772943 154.16667 31.481333 C 154.26118 31.628386 154.38771 31.825287 154.5 32.0 Z M 159.5 29.0 C 159.74794 27.782272 160.65848 25.305563 159.0 25.0 C 158.92776 26.37675 159.10349 27.694757 159.5 29.0 Z M 160.0 23.4375 C 160.34256 23.84782 160.63123 23.73697 161.0 23.5 C 160.68039 23.296583 160.35574 23.069584 160.0 23.4375 Z M 162.0 22.3125 C 162.33842 23.05883 163.50522 22.797918 164.06024 22.679003 C 164.36975 22.620047 164.69963 22.557213 165.0 22.5 C 164.003 22.328724 163.00952 22.085724 162.0 22.0 C 162.0 22.104166 162.0 22.208334 162.0 22.3125 Z M 162.0 31.3125 C 162.33842 32.05883 163.50522 31.797918 164.06024 31.679003 C 164.36975 31.620047 164.69963 31.557213 165.0 31.5 C 164.003 31.328724 163.00952 31.085724 162.0 31.0 C 162.0 31.104166 162.0 31.208334 162.0 31.3125 Z M 166.0 23.4375 C 166.34256 23.84782 166.63123 23.73697 167.0 23.5 C 166.68039 23.296583 166.35574 23.069584 166.0 23.4375 Z M 171.5 29.0 C 171.74794 27.782272 172.65848 25.305563 171.0 25.0 C 170.92776 26.37675 171.10349 27.694757 171.5 29.0 Z M 172.0 23.4375 C 172.34256 23.84782 172.63123 23.73697 173.0 23.5 C 172.68039 23.296583 172.35574 23.069584 172.0 23.4375 Z M 174.0 22.3125 C 174.33842 23.05883 175.50522 22.797918 176.06024 22.679003 C 176.36975 22.620047 176.69963 22.557213 177.0 22.5 C 176.003 22.328724 175.00952 22.085724 174.0 22.0 C 174.0 22.104166 174.0 22.208334 174.0 22.3125 Z M 174.0 31.3125 C 174.33842 32.05883 175.50522 31.797918 176.06024 31.679003 C 176.36975 31.620047 176.69963 31.557213 177.0 31.5 C 176.003 31.328724 175.00952 31.085724 174.0 31.0 C 174.0 31.104166 174.0 31.208334 174.0 31.3125 Z M 178.0 30.453125 C 178.44318 30.881432 179.04541 30.384222 179.42029 30.079712 C 179.61748 29.882519 179.81071 29.689281 180.0 29.5 C 179.27635 29.095488 178.29346 29.906374 178.0 30.453125 Z M 179.0 24.4375 C 179.34256 24.84782 179.63123 24.73697 180.0 24.5 C 179.68039 24.296583 179.35574 24.069584 179.0 24.4375 Z M 180.0 26.5 C 180.45471 28.052982 182.83105 27.970936 184.0 28.0 C 184.16753 29.34019 184.33353 30.668198 184.5 32.0 C 184.8793 29.342115 185.19588 26.63541 184.5 24.0 C 183.95267 25.948057 181.78375 26.105486 180.0 26.0 C 180.0 26.18 180.0 26.346666 180.0 26.5 Z M 186.0 22.3125 C 186.33842 23.05883 187.50522 22.797918 188.06024 22.679003 C 188.36975 22.620047 188.69963 22.557213 189.0 22.5 C 188.003 22.328724 187.00952 22.085724 186.0 22.0 C 186.0 22.104166 186.0 22.208334 186.0 22.3125 Z M 190.5 32.0 C 190.05148 29.20055 192.37086 24.750282 190.0 23.0 C 189.89345 26.02168 190.06277 29.022757 190.5 32.0 Z M 192.0 22.3125 C 192.33842 23.05883 193.50522 22.797918 194.06024 22.679003 C 194.36975 22.620047 194.69963 22.557213 195.0 22.5 C 194.003 22.328724 193.00952 22.085724 192.0 22.0 C 192.0 22.104166 192.0 22.208334 192.0 22.3125 Z M 196.5 32.0 C 196.21695 29.753141 198.192 25.180931 196.0 24.0 C 195.89783 26.694674 196.06726 29.350111 196.5 32.0 Z " />

<path style="fill:rgb(0.0%,67.84314%,93.725494%);fill-rule:evenodd;stroke:none;" name="Path No.1" d="M 11.0 33.0 C 12.344051 33.0 13.663495 33.0 15.0 33.0 C 15.0 30.669958 15.0 28.322735 15.0 26.0 C 20.091696 25.266666 23.501429 28.208452 24.0 33.0 C 25.677835 33.0 27.330612 33.0 29.0 33.0 C 27.90636 29.281513 24.333014 26.068844 26.943686 21.770397 C 29.640863 15.499212 26.287798 8.868309 19.852373 8.565812 C 11.411069 9.285927 10.4153805 15.330199 11.0 22.059921 C 11.0 25.713448 11.0 29.35344 11.0 33.0 Z M 15.0 22.0 C 17.530695 21.971287 20.92187 22.336245 22.512974 20.5316 C 24.241503 18.856968 24.078724 15.966974 22.453846 14.2939005 C 20.716318 12.081336 17.827787 12.255888 16.354752 14.4281025 C 14.537636 16.46242 15.11523 19.393023 15.0 22.0 Z M 45.0 29.0 C 44.783436 26.096855 44.81145 22.58251 42.335083 19.693151 C 40.300236 16.635221 34.892418 16.770702 32.254467 18.448452 C 30.559658 19.286499 29.064379 21.621689 28.768871 24.08803 C 27.665693 25.838322 30.335358 29.168978 31.262066 30.428186 C 36.388824 35.754524 40.297436 30.617096 45.0 29.0 Z M 33.0 22.25 C 34.45409 23.681913 38.34969 22.734753 40.0 22.5 C 37.953712 19.968113 34.822838 20.012623 33.0 22.25 Z M 34.0 27.375 C 35.157482 29.252655 38.025925 29.319252 39.542038 27.957962 C 39.69469 27.805307 39.847347 27.652655 40.0 27.5 C 38.454834 26.660973 35.979416 27.172361 34.0 27.0 C 34.0 27.10632 34.0 27.24868 34.0 27.375 Z M 46.0 33.0 C 47.34405 33.0 48.663494 33.0 50.0 33.0 C 50.2159 29.068958 49.128784 22.508991 53.423508 21.499887 C 57.832058 22.313696 56.751614 30.167982 57.0 33.0 C 58.34405 33.0 59.663494 33.0 61.0 33.0 C 60.748665 29.201021 61.591846 24.0684 59.016434 20.117521 C 56.726006 16.700626 50.931526 15.955975 47.93958 20.052002 C 45.25287 23.621977 46.200233 29.112144 46.0 33.0 Z M 72.0 33.0 C 72.0 32.336094 72.0 31.660435 72.0 31.0 C 68.784195 28.373238 64.858345 26.747488 66.0 21.0 C 67.67783 21.0 69.33061 21.0 71.0 21.0 C 71.0 19.655949 71.0 18.336504 71.0 17.0 C 69.32217 17.0 67.66939 17.0 66.0 17.0 C 66.0 15.655949 66.0 14.336505 66.0 13.0 C 64.65595 13.0 63.336506 13.0 62.0 13.0 C 61.73262 20.213573 59.6957 33.61106 72.0 33.0 Z M 89.0 33.0 C 89.03019 28.500418 89.41239 23.378664 86.3187 19.656654 C 84.17825 16.42835 77.95486 16.508354 75.18046 19.570147 C 72.254814 22.33472 72.411736 28.446701 76.18149 31.146559 C 80.20912 33.704876 85.058914 32.41246 89.0 33.0 Z M 77.123375 24.329006 C 77.222595 26.772923 79.17609 29.501522 82.12492 28.449545 C 83.87251 27.796753 85.17127 24.944511 84.29187 23.405787 C 83.42071 21.468277 80.964325 20.703444 79.04791 21.395287 C 77.42426 21.671417 77.13236 22.691086 77.123375 24.329006 Z M 90.0 33.0 C 91.34405 33.0 92.6635 33.0 94.0 33.0 C 94.0 25.333237 94.0 17.661428 94.0 10.0 C 93.16749 10.0 92.3296 10.0 91.5 10.0 C 89.26844 12.509336 90.277885 17.156685 90.0 20.970022 C 90.0 24.972294 90.0 28.998245 90.0 33.0 Z M 111.0 29.5 C 109.94747 28.548407 108.56168 27.735495 107.5 27.0 C 105.5677 29.322527 100.01215 29.45381 100.49934 24.757578 C 100.43072 20.567516 105.60585 20.817982 107.5 23.0 C 108.500084 21.913847 109.7334 21.201277 111.0 20.5 C 107.588554 16.72394 100.13594 15.451756 97.03111 21.049618 C 94.94222 24.29799 96.74669 30.532276 100.63847 31.990017 C 105.14534 33.848038 108.134575 32.101017 111.0 29.5 Z M 128.0 33.0 C 127.807335 28.591183 128.67345 22.557632 125.6649 19.6343 C 123.05076 16.665485 117.02138 16.307474 114.18113 19.558079 C 111.286736 22.35093 111.37959 28.434608 115.18149 31.14657 C 119.209114 33.704857 124.05892 32.41248 128.0 33.0 Z M 116.123375 24.329004 C 116.220604 27.58101 118.75581 29.193865 121.306496 28.520977 C 123.24288 27.730957 124.34985 25.34371 123.37005 23.422783 C 122.41952 21.521336 120.01071 20.667614 118.048386 21.395235 C 116.42382 21.671215 116.13271 22.691248 116.123375 24.329004 Z M 129.0 33.0 C 130.34406 33.0 131.6635 33.0 133.0 33.0 C 133.09645 29.84833 132.68195 26.478575 134.05794 23.535076 C 135.46327 21.348242 138.89908 20.242853 139.0 17.0 C 132.34605 16.185616 128.72685 21.13185 129.02902 27.025724 C 128.96288 29.012608 129.02745 31.023344 129.0 33.0 Z M 147.0 27.0 C 147.0 27.663908 147.0 28.339565 147.0 29.0 C 144.83333 29.359072 140.76372 28.923515 140.0 32.0 C 145.2142 34.409134 152.56038 31.621038 149.49477 25.689247 C 148.23991 24.256023 146.07536 23.13886 144.0 23.0 C 144.0 22.011997 144.0 20.979248 144.0 20.0 C 145.17122 20.007807 146.38011 20.195433 147.5 21.0 C 148.68259 19.876774 149.6388 18.591213 150.0 17.0 C 147.1798 17.226759 143.34486 16.585732 141.63101 18.574657 C 139.21533 20.14594 140.76097 23.758186 142.37732 25.181633 C 143.49672 26.322224 145.87666 26.494522 147.0 27.0 Z " />

<path style="fill:rgb(0.0%,42.352943%,63.92157%);fill-rule:evenodd;stroke:none;" name="Path No.2" d="M 153.0 33.0 C 154.00528 33.0 154.99472 33.0 156.0 33.0 C 156.0 31.657568 156.0 30.331135 156.0 29.0 C 155.0007 29.0 153.99065 29.0 153.0 29.0 C 153.0 30.3344 153.0 31.66699 153.0 33.0 Z M 168.0 32.0 C 167.83786 30.823221 167.3088 29.85159 166.5 29.0 C 161.89696 30.949438 159.8451 27.265087 162.5 24.0 C 164.82741 24.416214 167.11519 24.933292 169.0 23.5 C 167.36497 22.063585 164.99503 21.055714 162.35078 21.572502 C 159.86362 21.780104 158.25433 22.670149 158.4137 25.014963 C 157.7623 28.108643 159.15636 32.130554 162.44366 32.511173 C 164.31871 32.62479 166.19295 32.594646 168.0 32.0 Z M 181.0 29.0 C 181.66391 29.0 182.33957 29.0 183.0 29.0 C 183.0 30.344051 183.0 31.663496 183.0 33.0 C 183.98363 33.0 185.01637 33.0 186.0 33.0 C 186.0 30.010054 186.0 26.977646 186.0 24.0 C 186.98363 24.0 188.01637 24.0 189.0 24.0 C 189.0 26.989946 189.0 30.022354 189.0 33.0 C 189.98363 33.0 191.01637 33.0 192.0 33.0 C 192.0 30.010054 192.0 26.977646 192.0 24.0 C 192.98363 24.0 194.01637 24.0 195.0 24.0 C 195.0 26.989946 195.0 30.022354 195.0 33.0 C 195.98363 33.0 197.01637 33.0 198.0 33.0 C 197.74472 29.369802 198.66956 24.472948 196.079 22.28429 C 193.92317 19.877298 188.63591 22.137934 186.2023 21.468216 C 184.66309 21.59485 183.56403 23.649662 183.0 25.0 C 182.33609 25.0 181.66043 25.0 181.0 25.0 C 180.47087 22.004114 176.3078 20.960152 173.79218 21.733719 C 171.60257 21.908237 170.40512 22.946009 170.2434 24.992496 C 169.16725 26.548836 169.21924 27.544352 170.55565 29.406752 C 172.38882 32.757664 175.40945 33.52135 178.52055 31.873774 C 179.95862 31.633093 180.65236 30.20562 181.0 29.0 Z M 178.0 24.0 C 175.43062 23.473293 171.71042 24.877262 173.57211 28.443949 C 174.9455 30.509315 177.34357 29.624569 178.22342 27.89042 C 178.98051 26.744097 178.0991 25.061665 178.0 24.0 Z " />

<path style="fill:rgb(62.352943%,87.84314%,97.64706%);fill-rule:evenodd;stroke:none;" name="Path No.3" d="M 33.0 26.75 C 33.263287 27.650488 33.825516 28.368574 34.5 29.0 C 34.722385 28.32049 34.400784 27.924019 34.0 27.5 C 37.36818 25.911499 41.955956 28.976368 45.0 27.5 C 41.883495 25.0287 36.57024 26.4713 33.0 26.0 C 33.0 26.255077 33.0 26.498953 33.0 26.75 Z " />

<path style="fill:rgb(74.90196%,85.4902%,90.98039%);fill-rule:evenodd;stroke:none;" name="Path No.4" d="M 181.0 25.25 C 181.53424 26.203434 182.08011 27.397848 181.0 28.5 C 181.58905 28.768467 182.2452 28.959091 183.0 29.0 C 183.0 27.667255 183.0 26.323792 183.0 25.0 C 182.35277 25.0 181.5911 25.0 181.0 25.0 C 181.0 25.09 181.0 25.173334 181.0 25.25 Z " />

<path style="fill:rgb(87.45098%,96.07843%,99.21568%);fill-rule:evenodd;stroke:none;" name="Path No.5" d="M 40.0 27.25 C 40.80465 28.45703 43.362366 27.605328 44.5 29.0 C 44.768467 28.410948 44.95909 27.754799 45.0 27.0 C 43.331333 27.0 41.662823 27.0 40.0 27.0 C 40.0 27.09 40.0 27.173334 40.0 27.25 Z " />
</g>
</svg>
