<?xml version="1.0" encoding="UTF-8" standalone="no"?>
<!-- Created with Inkscape (http://www.inkscape.org/) -->

<svg
   xmlns:dc="http://purl.org/dc/elements/1.1/"
   xmlns:cc="http://creativecommons.org/ns#"
   xmlns:rdf="http://www.w3.org/1999/02/22-rdf-syntax-ns#"
   xmlns:svg="http://www.w3.org/2000/svg"
   xmlns="http://www.w3.org/2000/svg"
   xmlns:xlink="http://www.w3.org/1999/xlink"
   xmlns:sodipodi="http://sodipodi.sourceforge.net/DTD/sodipodi-0.dtd"
   xmlns:inkscape="http://www.inkscape.org/namespaces/inkscape"
   width="350.01001"
   height="131.8846"
   viewBox="0 0 92.606813 34.894467"
   version="1.1"
   id="svg8"
   inkscape:version="0.92.3 (2405546, 2018-03-11)"
   sodipodi:docname="Aquarius logo.svg">
  <title
     id="title958">Aquarius logo</title>
  <defs
     id="defs2">
    <linearGradient
       inkscape:collect="always"
       id="linearGradient928">
      <stop
         style="stop-color:#54bcd7;stop-opacity:1"
         offset="0"
         id="stop924" />
      <stop
         style="stop-color:#c5e5e2;stop-opacity:1"
         offset="1"
         id="stop926" />
    </linearGradient>
    <linearGradient
       inkscape:collect="always"
       xlink:href="#linearGradient928"
       id="linearGradient930"
       x1="86.747337"
       y1="105.31716"
       x2="90.854927"
       y2="95.441795"
       gradientUnits="userSpaceOnUse" />
  </defs>
  <sodipodi:namedview
     id="base"
     pagecolor="#ffffff"
     bordercolor="#666666"
     borderopacity="1.0"
     inkscape:pageopacity="0.0"
     inkscape:pageshadow="2"
     inkscape:zoom="2"
     inkscape:cx="156.65385"
     inkscape:cy="64.156315"
     inkscape:document-units="mm"
     inkscape:current-layer="layer1"
     showgrid="false"
     showguides="true"
     inkscape:guide-bbox="true"
     inkscape:snap-text-baseline="false"
     inkscape:snap-intersection-paths="false"
     inkscape:snap-smooth-nodes="false"
     inkscape:object-paths="false"
     units="px"
     fit-margin-right="0.01"
     fit-margin-top="0"
     fit-margin-left="0"
     fit-margin-bottom="0"
     inkscape:window-width="1366"
     inkscape:window-height="705"
     inkscape:window-x="-8"
     inkscape:window-y="-8"
     inkscape:window-maximized="1" />
  <metadata
     id="metadata5">
    <rdf:RDF>
      <cc:Work
         rdf:about="">
        <dc:format>image/svg+xml</dc:format>
        <dc:type
           rdf:resource="http://purl.org/dc/dcmitype/StillImage" />
        <dc:title>Aquarius logo</dc:title>
        <cc:license
           rdf:resource="http://creativecommons.org/licenses/by-sa/4.0/" />
        <dc:date>18/10/2018</dc:date>
        <dc:creator>
          <cc:Agent>
            <dc:title>The Coca-Cola Company</dc:title>
          </cc:Agent>
        </dc:creator>
        <dc:publisher>
          <cc:Agent>
            <dc:title>CMetalCore</dc:title>
          </cc:Agent>
        </dc:publisher>
      </cc:Work>
      <cc:License
         rdf:about="http://creativecommons.org/licenses/by-sa/4.0/">
        <cc:permits
           rdf:resource="http://creativecommons.org/ns#Reproduction" />
        <cc:permits
           rdf:resource="http://creativecommons.org/ns#Distribution" />
        <cc:requires
           rdf:resource="http://creativecommons.org/ns#Notice" />
        <cc:requires
           rdf:resource="http://creativecommons.org/ns#Attribution" />
        <cc:permits
           rdf:resource="http://creativecommons.org/ns#DerivativeWorks" />
        <cc:requires
           rdf:resource="http://creativecommons.org/ns#ShareAlike" />
      </cc:License>
    </rdf:RDF>
  </metadata>
  <g
     inkscape:label="Capa 1"
     inkscape:groupmode="layer"
     id="layer1"
     transform="translate(-42.625914,-74.912823)">
    <g
       id="g956"
       transform="matrix(0.79930039,0,0,0.79930039,8.5550042,22.03828)">
      <g
         id="g939">
        <path
           inkscape:connector-curvature="0"
           id="path900"
           style="font-style:normal;font-variant:normal;font-weight:bold;font-stretch:condensed;font-size:medium;line-height:125%;font-family:'ITC Avant Garde Gothic Std';-inkscape-font-specification:'ITC Avant Garde Gothic Std Bold Condensed';letter-spacing:-0.41990948px;word-spacing:4.26000023px;fill:#2d4780;fill-opacity:1;stroke:none;stroke-width:0.63009596px;stroke-linecap:butt;stroke-linejoin:miter;stroke-opacity:1"
           d="m 47.414643,93.035554 h 4.284653 l 0.957746,3.553741 h 3.881391 L 51.245627,77.938454 h -3.528538 l -5.091175,18.650841 h 3.881391 z m 3.301703,-3.528537 h -2.369161 l 1.18458,-6.09933 z" />
        <path
           style="font-style:normal;font-variant:normal;font-weight:bold;font-stretch:condensed;font-size:medium;line-height:125%;font-family:'ITC Avant Garde Gothic Std';-inkscape-font-specification:'ITC Avant Garde Gothic Std Bold Condensed';letter-spacing:-0.41990948px;word-spacing:4.26000023px;fill:#2d4780;fill-opacity:1;stroke:none;stroke-width:2.38146496px;stroke-linecap:butt;stroke-linejoin:miter;stroke-opacity:1"
           d="m 238.64453,293.23633 c -17.33707,0 -25.91015,14.47963 -25.91015,36.48437 v 0.0957 c 0,22.09999 8.57308,36.58007 25.91015,36.58007 6.02102,0 10.98347,-1.75158 14.89844,-4.95703 0.35898,1.04337 0.56445,2.22018 0.56445,3.62305 h 15.17774 c 0,-5.49966 -2.9915,-11.31862 -7.40039,-16.52734 1.77859,-5.30182 2.66992,-11.61368 2.66992,-18.71875 0,-22.1 -8.5731,-36.58008 -25.91016,-36.58008 z m 0,13.33594 c 7.43017,0 11.05078,6.28811 11.05078,23.24414 0,2.94368 -0.11674,5.54564 -0.33593,7.86914 -5.65929,-3.60865 -11.49144,-5.88086 -15.9668,-5.88086 0,14.42797 2.22512,14.36604 4.35156,15.59375 1.24151,0.71678 3.7843,2.06915 6.44141,3.91601 -1.52679,1.18741 -3.36599,1.74414 -5.54102,1.74414 -7.43017,0 -11.04883,-6.28571 -11.04883,-23.14648 v -0.0957 c 0,-16.95603 3.61866,-23.24414 11.04883,-23.24414 z"
           transform="scale(0.26458333)"
           id="path902"
           inkscape:connector-curvature="0" />
        <path
           inkscape:connector-curvature="0"
           id="path904"
           style="font-style:normal;font-variant:normal;font-weight:bold;font-stretch:condensed;font-size:medium;line-height:125%;font-family:'ITC Avant Garde Gothic Std';-inkscape-font-specification:'ITC Avant Garde Gothic Std Bold Condensed';letter-spacing:-0.41990948px;word-spacing:4.26000023px;fill:#2d4780;fill-opacity:1;stroke:none;stroke-width:0.63009596px;stroke-linecap:butt;stroke-linejoin:miter;stroke-opacity:1"
           d="m 72.134994,77.938454 v 13.332831 c 0,1.63825 0.428465,3.074869 1.386211,4.057818 0.98295,1.008154 2.520384,1.613046 4.763526,1.613046 2.243141,0 3.780575,-0.604892 4.763525,-1.613046 0.98295,-0.982949 1.386211,-2.419568 1.386211,-4.057818 V 77.938454 h -3.830983 v 12.702735 c 0,0.932542 -0.151223,1.613046 -0.504077,2.041511 -0.378058,0.453669 -0.957746,0.6553 -1.814676,0.6553 -0.856931,0 -1.436619,-0.201631 -1.789473,-0.6553 C 76.1172,92.254235 75.965977,91.573731 75.965977,90.641189 V 77.938454 Z" />
        <path
           inkscape:connector-curvature="0"
           id="path907"
           style="font-style:normal;font-variant:normal;font-weight:bold;font-stretch:condensed;font-size:medium;line-height:125%;font-family:'ITC Avant Garde Gothic Std';-inkscape-font-specification:'ITC Avant Garde Gothic Std Bold Condensed';letter-spacing:-1.30591881px;word-spacing:4.26000023px;fill:#2d4780;fill-opacity:1;stroke:none;stroke-width:0.63009596px;stroke-linecap:butt;stroke-linejoin:miter;stroke-opacity:1"
           d="M 112.95501,96.589295 H 116.786 V 81.466992 h 0.88213 c 0.93254,0 1.56264,0.151223 1.9659,0.504077 0.70571,0.579688 0.88214,1.361007 0.88214,2.268345 0,0.730912 -0.20163,1.537434 -0.83173,2.142327 -0.47887,0.478872 -1.20978,0.655299 -1.89029,0.705707 -0.30244,0.0252 -0.52928,0.0252 -0.95774,0.0252 l 4.10822,9.476643 h 4.28465 l -3.52853,-7.435132 c 0.88213,-0.478873 1.63825,-1.234988 2.19273,-2.444773 0.37806,-0.831726 0.55449,-1.814676 0.55449,-2.82283 0,-1.814676 -0.55449,-3.150479 -1.51224,-4.309856 -0.80652,-0.957746 -2.49518,-1.63825 -5.14158,-1.63825 h -4.83914 z" />
        <path
           inkscape:connector-curvature="0"
           id="path909"
           style="font-style:normal;font-variant:normal;font-weight:bold;font-stretch:condensed;font-size:medium;line-height:125%;font-family:'ITC Avant Garde Gothic Std';-inkscape-font-specification:'ITC Avant Garde Gothic Std Bold Condensed';letter-spacing:-1.30591881px;word-spacing:4.26000023px;fill:#2d4780;fill-opacity:1;stroke:none;stroke-width:0.63009596px;stroke-linecap:butt;stroke-linejoin:miter;stroke-opacity:1"
           d="m 126.16164,96.589295 h 3.83098 V 77.938454 h -3.83098 z" />
        <path
           inkscape:connector-curvature="0"
           id="path911"
           style="font-style:normal;font-variant:normal;font-weight:bold;font-stretch:condensed;font-size:medium;line-height:125%;font-family:'ITC Avant Garde Gothic Std';-inkscape-font-specification:'ITC Avant Garde Gothic Std Bold Condensed';letter-spacing:-1.30591881px;word-spacing:4.26000023px;fill:#2d4780;fill-opacity:1;stroke:none;stroke-width:0.63009596px;stroke-linecap:butt;stroke-linejoin:miter;stroke-opacity:1"
           d="m 132.27851,77.938454 v 13.332831 c 0,1.63825 0.42846,3.074869 1.38621,4.057818 0.98295,1.008154 2.52038,1.613046 4.76352,1.613046 2.24314,0 3.78058,-0.604892 4.76353,-1.613046 0.98295,-0.982949 1.38621,-2.419568 1.38621,-4.057818 V 77.938454 h -3.83099 v 12.702735 c 0,0.932542 -0.15122,1.613046 -0.50407,2.041511 -0.37806,0.453669 -0.95775,0.6553 -1.81468,0.6553 -0.85693,0 -1.43662,-0.201631 -1.78947,-0.6553 -0.37806,-0.428465 -0.52928,-1.108969 -0.52928,-2.041511 V 77.938454 Z" />
        <path
           inkscape:connector-curvature="0"
           id="path913"
           style="font-style:normal;font-variant:normal;font-weight:bold;font-stretch:condensed;font-size:medium;line-height:125%;font-family:'ITC Avant Garde Gothic Std';-inkscape-font-specification:'ITC Avant Garde Gothic Std Bold Condensed';letter-spacing:-1.30591881px;word-spacing:4.26000023px;fill:#2d4780;fill-opacity:1;stroke:none;stroke-width:0.63009596px;stroke-linecap:butt;stroke-linejoin:miter;stroke-opacity:1"
           d="m 146.18297,90.716801 c 0,3.931799 1.86508,6.225348 6.12453,6.225348 3.55374,0 6.17494,-2.142326 6.17494,-5.64566 0,-3.553741 -2.01631,-4.813933 -4.03262,-5.620456 -2.0163,-0.806523 -4.03261,-1.134173 -4.03261,-2.898441 0,-1.134173 0.73091,-2.041511 1.9407,-2.041511 1.23498,0 1.9911,0.806522 2.04151,2.16753 h 3.73017 c -0.55449,-3.679761 -2.46998,-5.343214 -5.92291,-5.343214 -3.55374,0 -5.72127,2.268345 -5.72127,5.796883 0,3.15048 2.01631,4.309856 4.03262,5.116379 2.0163,0.781319 4.03261,1.184581 4.03261,2.873238 0,1.335803 -0.75612,2.217938 -2.16753,2.217938 -1.66345,0 -2.31875,-0.907339 -2.36916,-2.848034 z" />
      </g>
      <g
         id="g943">
        <path
           style="opacity:1;fill:#57bfda;fill-opacity:1;fill-rule:evenodd;stroke:none;stroke-width:0.26458332px;stroke-linecap:butt;stroke-linejoin:miter;stroke-opacity:1"
           d="m 98.143874,66.151029 -17.776419,41.662891 4.696083,1.99337 13.080336,-30.815342 10.048236,23.672152 4.61849,-1.96043 z"
           id="path896"
           inkscape:connector-curvature="0"
           sodipodi:nodetypes="ccccccc" />
        <path
           style="opacity:1;fill:url(#linearGradient930);fill-opacity:1;fill-rule:evenodd;stroke:none;stroke-width:0.26458332px;stroke-linecap:butt;stroke-linejoin:miter;stroke-opacity:1"
           d="m 85.063538,109.80729 c 5.121523,-12.293333 16.271772,-22.931253 26.558232,-22.931253 0,-1.434346 0,-2.868692 0,-4.303038 -13.608899,0 -25.102754,12.582323 -31.254316,25.240921 1.565361,0.66446 3.130723,1.32891 4.696084,1.99337 z"
           id="path898"
           inkscape:connector-curvature="0"
           sodipodi:nodetypes="ccccc" />
      </g>
    </g>
  </g>
</svg>
