<?xml version="1.0" encoding="UTF-8" standalone="no"?>
<!-- Created with Inkscape (http://www.inkscape.org/) -->

<svg
   xmlns:dc="http://purl.org/dc/elements/1.1/"
   xmlns:cc="http://creativecommons.org/ns#"
   xmlns:rdf="http://www.w3.org/1999/02/22-rdf-syntax-ns#"
   xmlns:svg="http://www.w3.org/2000/svg"
   xmlns="http://www.w3.org/2000/svg"
   version="1.1"
   width="447"
   height="224"
   id="svg2">
  <defs
     id="defs4" />
  <metadata
     id="metadata7">
    <rdf:RDF>
      <cc:Work
         rdf:about="">
        <dc:format>image/svg+xml</dc:format>
        <dc:type
           rdf:resource="http://purl.org/dc/dcmitype/StillImage" />
        <dc:title></dc:title>
      </cc:Work>
    </rdf:RDF>
  </metadata>
  <g
     transform="translate(0,-828.36218)"
     id="layer1">
    <g
       transform="matrix(1.1236914,0,0,1.1236914,0.01714223,828.85996)"
       id="g3448">
      <path
         d="m 381.6,0 c 0,0 -68.5,33.1 -182.9,33.1 h -0.2 C 83.7,31.9 15.9,0.1 15.9,0.1 c -17.6,48 -24.4,140.6 -0.4,198.4 0,0 70.6,-40.3 182.9,-41.3 h 0.2 c 114.4,0 182.6,40.9 182.6,40.9 C 401.4,151.2 402.8,58.6 381.6,0 z"
         id="path3254"
         style="fill:url(#SVGID_1_);fill-rule:evenodd" />
      <path
         d="m 376.8,13 c 0,0 -67.6,26.9 -178.2,26.9 h -0.2 C 87.6,38.8 20.2,13.2 20.2,13.2 6.9,58.2 3.6,139.1 20.1,186.1 c 0,0 69.9,-35 178.4,-35.9 h 0.2 c 110.6,0 177.8,35.7 177.8,35.7 15,-41.7 16.2,-122.4 0.3,-172.9 z"
         id="path3281"
         style="fill:url(#SVGID_2_);fill-rule:evenodd" />
      <path
         d="m 373.2,20.2 c -18.5,6.3 -81.5,25.2 -174.5,25.2 h -0.2 C 105.3,44.5 42.5,26.4 24,20.3 c -5.9,22.7 -9.5,53.5 -9.5,84 0,26.9 2.8,53.6 9,74.2 19,-8.3 83.4,-33 175.1,-33.8 h 0.2 c 93,0 155.8,25 174.5,33.5 6.2,-20.3 9.5,-48.8 9.5,-78 -0.1,-28.1 -3.2,-57 -9.6,-80 z m 4.9,80.5 c 0,25.8 -2.8,51.1 -7.6,70.2 l -0.3,1 -1,-0.4 C 344.8,161.2 284.5,140.1 198.7,140.1 h -0.2 c -84.8,0.7 -146.4,21.7 -171.1,31.7 l -1,0.4 -0.3,-1 C 21.3,152.2 19,128.5 19,104.6 v -0.5 c 0,-27.5 3,-55.4 8,-76.9 l 0.2,-1 0.9,0.3 c 24,7.3 84.3,22.7 170.2,23.5 h 0.3 C 284.5,50 345,34 369,26.4 l 0.9,-0.3 0.2,0.9 c 5.2,21.4 7.9,47.5 7.9,72.9 v 0.8 z"
         id="path3283"
         style="fill:#ffffff;fill-rule:evenodd" />
      <path
         d="M 186.9,99.4 V 114 c 0.1,0.2 0.2,0.2 0.3,0.3 0,0 0.1,0 0.2,0.1 l 0.2,0.2 c 0.1,0.1 0.5,0.2 0.7,0.2 h 0.3 v -14.2 c 0,0 2.2,-0.1 5.7,-1 0.5,-0.1 0.9,-0.2 0.9,-0.2 -0.2,-0.3 -1.1,-0.9 -1.6,-1.1 -3.2,0.9 -6.7,1.1 -6.7,1.1 z m -86.6,21.9 c -0.5,0 -1,0 -1.4,-0.1 -0.2,0 -0.3,-0.1 -0.4,-0.1 H 88.3 c -0.2,0.1 -0.5,0.2 -0.8,0.2 v 1.4 h 13.1 v -1.1 -0.3 h -0.3 z m 48.9,0 c -0.7,0 -1.3,-0.1 -1.7,-0.2 h -12.6 c -0.4,0.1 -0.7,0.2 -1.3,0.2 -0.3,0 -0.8,-0.1 -1.1,-0.3 h -13.4 c -0.2,0.1 -0.4,0.2 -0.6,0.2 -0.4,0 -0.8,0.1 -1.3,0.1 v 1.4 h 32.5 v -1.1 -0.3 h -0.5 z m 14.3,-15 c 0.9,1.6 1.8,3.2 2.5,4.8 0.8,1.6 1.5,3 2.2,4.3 0.6,1.3 1.1,2.2 1.7,2.8 0.4,0.5 1,0.6 1.2,0.6 -0.4,-0.6 -0.6,-1.1 -1,-1.9 -0.7,-1.3 -1.2,-2.8 -2,-4.4 -0.8,-1.6 -1.7,-3.3 -2.6,-5 -0.9,-1.6 -1.9,-3.2 -3,-4.6 -0.4,-0.6 -1.3,-1.6 -2.2,-2.2 -0.4,-0.3 -0.8,-0.6 -1.3,-0.7 0.4,0.3 1.3,1.3 1.5,1.6 1.1,1.5 2.1,3.1 3,4.7 z m -18.1,12.2 v 0.2 c 0.2,0.1 0.8,0.1 1.1,0.2 v -16.5 l 2.2,-0.1 c -0.3,-0.4 -0.7,-0.7 -1,-1.1 h -0.1 l -0.3,-0.3 -2.4,0.1 v 15.9 c 0,0.6 0.1,1.1 0.2,1.5 0.1,0.1 0.2,0.1 0.3,0.1 z m 81.7,0.3 c 0,0.1 0,0.1 0.1,0.2 0.2,0 0.3,0.1 0.5,0.1 H 228 V 79.9 c 0,-0.7 0,-1.6 0.1,-2 0.1,-0.3 0.3,-0.6 1.6,-0.7 0.4,0 0.9,-0.1 1.5,-0.1 V 76 h -0.4 v -0.3 h -2.9 c -1.3,0.1 -1.4,0.9 -1.4,2.8 v 38.6 c 0,0.7 0.1,1.2 0.2,1.6 0.2,0.1 0.3,0.1 0.4,0.1 z M 58.8,99.6 v 18.2 c 0.1,0.2 0.2,0.2 0.4,0.4 0.1,0 0.2,0.1 0.3,0.1 l 0.1,0.1 c 0.2,0.1 0.3,0.2 0.5,0.3 h 0.5 v -17.6 c 0,0 2.6,-0.2 7,-1.1 0.3,-0.1 1.1,-0.2 1.1,-0.3 -0.6,-0.6 -1.4,-1.1 -2.2,-1.3 -3.9,1.1 -7.7,1.2 -7.7,1.2 z m 71.7,18.8 c 0,0 0.1,0 0.2,0.1 l 0.2,0.2 c 0.1,0.1 0.6,0.2 1.2,0.2 -0.1,-0.1 -0.3,-0.5 -0.9,-1.9 L 115.5,75.2 h -0.3 l -0.1,-0.3 -1.3,-0.1 15.9,42.3 c 0.2,0.5 0.3,0.9 0.8,1.3 z m 116.4,-7.5 c 0.7,1.2 1.6,2.2 2.5,3.2 0,0 0.3,0.2 0.4,0.3 -0.5,-0.7 -1,-1.3 -1.5,-2.1 -1.2,-1.9 -2,-4 -2.6,-6.3 -0.6,-2.3 -0.9,-4.7 -0.9,-7.1 0,-2.3 0.2,-4.7 0.7,-7 0.5,-2.3 1.2,-4.4 2.2,-6.2 1,-1.9 2.4,-3.3 4.1,-4.5 1.7,-1.1 3.8,-1.7 6.3,-1.7 2.7,0 5.6,0.7 7.9,2.2 0.2,0.2 0.4,0.4 0.7,0.6 0,-0.1 -0.1,-0.1 -0.1,-0.2 0.2,0.1 0.3,0.3 0.5,0.4 -0.3,-0.4 -0.6,-0.7 -0.9,-1.1 -0.3,-0.3 -0.6,-0.6 -1,-0.8 -0.1,0 -0.1,-0.1 -0.2,-0.1 l -0.2,-0.2 c -2.3,-1.6 -5.3,-2.3 -8,-2.3 -2.5,0 -4.6,0.5 -6.3,1.7 -1.7,1.1 -3.1,2.6 -4.1,4.5 -1,1.9 -1.8,3.9 -2.2,6.2 -0.4,2.3 -0.7,4.6 -0.7,7 0,2.4 0.3,4.8 0.8,7.1 0.6,2.4 1.5,4.5 2.6,6.4 z m 33.3,10.3 c -0.5,0 -1.3,0 -1.8,-0.1 -0.2,0 -0.3,-0.1 -0.4,-0.1 h -13.8 l -0.1,0.1 c -0.2,0.1 -0.6,0.2 -0.9,0.4 -2.4,0.9 -5,1.3 -7.9,1.2 -3.4,-0.1 -6.8,-0.7 -9.6,-1.8 -1.3,-0.6 -2.6,-1.2 -3.7,-2 -1.1,-0.7 -2.1,-1.6 -3,-2.5 -0.1,0 -0.2,-0.1 -0.4,-0.3 0.3,0.3 0.5,0.7 0.8,1 1,1.1 2.2,2 3.4,2.9 1.3,0.9 2.7,1.7 4.2,2.3 2.8,1.1 6.2,1.7 9.6,1.8 2.9,0.1 5.5,-0.3 7.8,-1.2 l 0.6,-0.3 h 14.9 v -1.4 z m 29.9,-2.8 0.2,0.2 c 0.1,0.1 0.1,0 0.2,0.1 0.1,0.1 0.6,0.2 1.2,0.2 -0.1,-0.2 -0.3,-0.5 -0.9,-1.9 L 295.1,75.2 295,75 h -1.6 l 15.9,42.2 c 0.2,0.4 0.3,0.8 0.8,1.2 z m 15.4,7.8 c -0.7,0 -1.3,-0.1 -1.8,-0.2 H 313 c -0.3,0.1 -0.7,0.1 -1.2,0.2 v 1.5 h 14.1 v -1.5 h -0.4 z m -4.3,-2.7 c 0.1,0 0.2,0.1 0.3,0.1 v 0.1 c 0.1,0 0.2,0.1 0.3,0.1 h 0.7 c -0.1,-0.6 -0.1,-1.2 -0.1,-2.1 V 85.6 l -1.2,-1.8 v 0.3 l -0.4,-0.5 v 36.9 c 0,0.9 0,1.7 0.1,2.3 0.1,0.2 0.2,0.5 0.3,0.7 z m 25.2,-18.9 c 0.1,0.2 0.2,0.4 0.3,0.5 l 0.5,-1.3 C 344.4,98.5 332.6,76.1 329.1,69.5 L 329,69.2 h -0.2 l -1.3,-0.1 c 3.2,6.2 15.8,29.8 18.8,35.7 l 0.1,-0.2 z M 231,121.3 c -0.5,0 -1,0 -1.4,-0.1 -0.3,0 -0.5,-0.1 -0.7,-0.2 H 216 c -0.1,0.1 -0.3,0.1 -0.4,0.1 -0.4,0.1 -0.9,0.1 -1.4,0.1 v 1.4 h 17.3 v -1.4 H 231 z m 40.1,-33.1 c 0,0.1 0.1,0.3 0.1,0.3 0,0 0.2,0 0.2,-0.1 l 0.9,-0.3 -0.1,-12.1 v -0.3 h -1.4 v 0.2 l 0.1,10.7 c 0,0 -0.2,0.1 -0.5,0.2 l 0.7,1.4 z M 75.5,96.3 c 0.7,0.2 1.4,0.6 2,0.9 L 79,96.3 c 1.6,-1.1 2.1,-1.7 3,-3 0.8,-1.1 1.3,-2.2 1.8,-3.6 0.4,-1.3 0.7,-3 0.7,-5 0,-2.8 -0.5,-5.1 -1.6,-6.9 -0.6,-1 -1.2,-1.8 -2,-2.5 -0.1,0 -0.2,-0.2 -0.4,-0.3 0.3,0.4 0.6,0.8 0.9,1.3 1.1,1.8 1.6,4.1 1.6,6.9 0,1.9 -0.3,3.7 -0.7,5 -0.4,1.4 -0.9,2.5 -1.8,3.6 -0.9,1.2 -1.5,1.9 -3,3 -0.7,0.5 -1.5,0.8 -2.4,1.2 0.2,0.1 0.3,0.1 0.5,0.2 0,0.1 -0.1,0.1 -0.1,0.1 z m 205.7,6.2 h 1.4 l 4.8,-13.5 -0.7,-2 -0.1,0.4 -0.2,-0.7 -5.5,15.5 h 0.5 l -0.2,0.3 z m -94,-7.8 c 0.3,0 1,-0.2 1.3,-0.3 V 81.6 c 0.2,-0.8 0.9,-1.1 3.4,-1.1 1.7,0 2.7,0.5 3.7,1.2 -0.1,-0.2 -0.3,-0.4 -0.4,-0.7 -0.2,-0.1 -0.4,-0.3 -0.6,-0.4 -1.1,-0.8 -2.3,-1.3 -4.1,-1.3 -0.7,0 -1.5,0 -2.2,0.2 -0.7,0.2 -1.2,0.5 -1.5,1.3 v 13.6 c 0.1,0 0.2,0 0.4,-0.1 v 0.4 z m 15.5,2.7 c 0.4,-0.2 0.8,-0.4 1.2,-0.7 1.3,-0.9 1.7,-1.4 2.5,-2.4 0.7,-0.9 1.1,-1.8 1.5,-2.9 0.3,-1 0.6,-2.5 0.6,-4 0,-2.2 -0.5,-4.1 -1.4,-5.6 -0.5,-0.8 -0.9,-1.4 -1.6,-2 -0.1,-0.1 -0.2,-0.2 -0.5,-0.3 0.3,0.3 0.5,0.7 0.7,1 0.9,1.5 1.3,3.3 1.3,5.6 0,1.6 -0.3,3 -0.6,4 -0.4,1.2 -0.8,2.1 -1.5,3 -0.8,1 -1.2,1.4 -2.4,2.3 -0.5,0.3 -1.2,0.7 -2,1 0.3,0.1 1.7,0.7 2.2,1 z m -101,5.1 h 1.4 l 4.8,-13.5 -0.7,-2 -0.1,0.4 -0.2,-0.7 -5.5,15.5 h 0.5 l -0.2,0.3 z m 70.3,18.8 c -0.3,0 -0.6,0 -1,-0.2 h -10.9 c 0.1,0.4 0.5,1 0.6,1.3 l 0.1,0.2 h 11.6 v -1.1 -0.3 l -0.4,0.1 z m 122.3,-11.6 -0.1,-0.3 h -15.3 l -3,7.4 c -0.2,0.6 -0.3,1.1 -0.2,1.5 0,0.1 0,0.1 0.1,0.2 h 0.3 c 0,0.1 0,0.1 0.1,0.2 0.1,0 0.1,0 0.2,0.1 0.2,0 0.5,0.1 0.8,0.1 0,-0.2 0.1,-0.5 0.2,-0.7 l 3,-7.3 h 14.9 l -0.6,-1.2 h -0.4 z m -118.4,-9.6 c -2.3,0.7 -3.8,1.8 -4.6,2.5 -1.4,1.4 0,0.8 0.9,0.4 0.9,-0.5 2.4,-1 3.6,-1.2 v -1.7 z M 59.1,93.8 c 0.4,-0.1 1.2,-0.1 1.5,-0.2 V 78.1 c 0.3,-1.1 0.7,-1.4 1.6,-1.6 0.9,-0.2 1.7,-0.2 2.5,-0.2 2,0 3.3,0.6 4.6,1.4 -0.1,-0.3 -0.3,-0.6 -0.5,-0.8 -0.2,-0.2 -0.5,-0.4 -0.7,-0.5 -1.3,-0.9 -2.7,-1.6 -4.8,-1.6 -0.8,0 -1.7,0 -2.5,0.3 -0.8,0.3 -1.5,0.6 -1.9,1.6 v 16.8 c 0.1,0 0.2,0 0.4,-0.1 v 0.4 z m 254.4,28.8 v -1.1 h -0.4 v -0.2 c -0.4,0 -0.7,-0.1 -1,-0.3 h -13.4 c -0.2,0.1 -0.4,0.1 -0.6,0.2 -0.4,0 -0.8,0.1 -1.3,0.1 v 1.4 h 16.7 z m 45,-52.6 -0.4,-0.1 h -1.2 c -0.5,0 -1,0.1 -1.2,0.2 -0.4,0.1 -0.7,0.4 -0.9,0.7 -0.2,0.3 -0.4,0.7 -0.5,1.2 -0.1,0.5 -0.1,2.1 -0.1,2.9 v 51.3 h -8.4 l 0.4,0.9 c 0.1,0.1 0.2,0.2 0.3,0.5 l 0.1,0.3 h 9.1 V 76.3 c 0,-0.8 -0.1,-3.4 0.3,-4.2 0.2,-0.3 0.4,-0.5 0.8,-0.6 0.4,-0.1 0.8,-0.2 1.5,-0.3 v -1.1 l 0.2,-0.1 z m -151.8,31.3 c 0,0 -0.2,-0.2 -0.4,-0.3 h -0.1 c 0.6,0.7 1.1,1.5 1.5,2.4 0.6,1.3 0.9,2.8 0.9,4.4 0,2.5 -0.5,4.7 -1.4,6.3 -1,1.7 -2.2,3.1 -3.7,4.1 -1.5,1 -3.2,1.8 -5.1,2.2 -1.9,0.4 -4.7,0.8 -6.5,0.8 h -16 c -0.4,0.1 -0.8,0.1 -1.2,0.1 v 1.4 h 18.5 c 1.8,0 4.6,-0.5 6.5,-0.9 1.9,-0.4 3.6,-1.2 5.1,-2.2 1.5,-1 2.8,-2.4 3.7,-4.1 1,-1.7 1.4,-4 1.4,-6.4 0,-1.7 -0.3,-3.1 -0.9,-4.4 -0.5,-1.4 -1.3,-2.5 -2.3,-3.4 z M 46,100.7 c -2.8,0.8 -4.7,2.1 -5.6,3 -1.7,1.8 -0.2,1.5 1.4,0.6 1.1,-0.6 2.6,-1.4 4.1,-1.6 l 0.1,-2 z m 36.7,1.1 c -0.2,-0.3 -0.6,-0.5 -0.7,-0.6 0.1,0.2 0.2,0.3 0.2,0.3 0.7,0.9 1.3,1.8 1.8,2.9 0.7,1.6 1.1,3.4 1.1,5.4 0,3.1 -0.6,5.8 -1.7,7.8 -1.2,2 -2.6,3.8 -4.5,5 -1.8,1.2 -3.9,2.2 -6.2,2.7 -2.3,0.5 -5.6,1 -7.8,1 H 46 c -0.4,0.1 -0.9,0.1 -1.5,0.2 v 1.5 h 21.8 c 2.2,0 5.6,-0.6 7.8,-1.1 2.3,-0.5 4.3,-1.5 6.2,-2.7 1.8,-1.2 3.3,-3 4.5,-5 1.1,-2.1 1.7,-4.7 1.7,-7.8 0,-2 -0.4,-3.8 -1.1,-5.4 -0.7,-1.7 -1.6,-3.1 -2.7,-4.2 z m 32.1,7.9 -0.1,-0.3 H 99.4 l -3,7.4 c -0.2,0.6 -0.3,1.1 -0.2,1.5 0,0.1 0,0.1 0.1,0.2 h 0.3 c 0,0.1 0,0.1 0.1,0.2 h 0.2 c 0.3,0 0.5,0.1 0.8,0.1 0,-0.2 0.1,-0.5 0.2,-0.7 l 3,-7.3 h 14.9 l -0.6,-1.2 h -0.4 z m 39.1,-29.1 c -1.4,-1 -2.9,-1.6 -5.1,-1.6 -0.8,0 -1.6,0.1 -2.3,0.2 -0.7,0.2 -1.2,0.7 -1.6,1.5 v 13.8 h 0.4 v 0.3 h 1.2 l -0.1,-13.1 c 0.4,-0.8 0.8,-1.2 1.5,-1.3 0.7,-0.2 1.3,-0.1 2.2,-0.1 1.9,0 3.4,0.5 4.7,1.3 -0.1,-0.3 -0.3,-0.5 -0.5,-0.7 -0.1,-0.1 -0.2,-0.2 -0.4,-0.3 z M 164.6,96 c 0.9,-0.9 1.8,-2.2 2.4,-3.4 0.6,-1.3 1,-2.8 1,-4.4 0,-2.6 -0.4,-5.1 -1.4,-6.7 -0.5,-0.8 -1.1,-1.5 -1.7,-2.1 0,0 -0.2,-0.2 -0.4,-0.3 0.3,0.3 0.5,0.6 0.7,1 1,1.6 1.6,4.1 1.6,6.7 0,1.6 -0.3,3.2 -0.9,4.4 -0.6,1.3 -1.4,2.5 -2.4,3.4 -1,0.9 -1.9,1.8 -3.2,2.5 -1.3,0.7 -2.2,1.2 -3.6,1.5 0.2,0.2 1.1,1.1 1.3,1.2 1.3,-0.3 2.3,-0.7 3.5,-1.4 1.2,-0.7 2.1,-1.4 3.1,-2.4 z"
         id="path3320"
         style="fill:url(#SVGID_3_)" />
      <path
         d="m 130.5,119.4 h -16.4 v -1.1 c 0.5,0 0.9,0 1.3,-0.1 0.4,0 0.6,-0.2 0.9,-0.3 0.3,-0.2 0.4,-0.5 0.5,-0.8 0.1,-0.4 0,-0.9 -0.3,-1.5 l -3,-7.8 H 97.8 l -3,7.6 c -0.2,0.6 -0.3,1.1 -0.3,1.5 0,0.4 0.2,0.7 0.4,0.9 0.2,0.2 0.6,0.3 1,0.4 0.4,0.1 0.9,0.1 1.4,0.1 v 1.1 H 84.5 v -1.1 c 0.8,-0.1 1.4,-0.5 1.8,-1 0.4,-0.5 0.8,-1.1 1,-1.9 l 16.2,-42.5 h 7.9 l 16.3,42.7 c 0.3,0.6 0.6,1.2 1,1.8 0.4,0.6 1,0.8 1.7,0.8 v 1.2 z m -24.9,-35 -6.2,17.5 H 112 l -6.4,-17.5 z"
         id="path3322"
         style="fill:#ffffff" />
      <path
         d="m 143.2,115.5 c 0,1.3 0.3,2 0.8,2.3 0.5,0.3 1.3,0.4 2.3,0.4 v 1.1 h -16 v -1.1 c 1,-0.1 1.8,-0.2 2.3,-0.5 0.5,-0.3 0.7,-1.1 0.7,-2.4 V 76.8 c 0,-1.2 -0.3,-2 -0.8,-2.3 -0.5,-0.3 -1.3,-0.5 -2.2,-0.4 V 73 h 18.3 c 1.9,0 3.6,0.1 5.6,0.4 2,0.3 3.8,0.9 5.4,1.7 1.6,0.9 2.9,2.1 4,3.7 1,1.6 1.5,4.1 1.5,6.7 0,1.6 -0.3,3.1 -0.9,4.4 -0.6,1.3 -1.4,2.5 -2.4,3.4 -1,0.9 -2.1,1.8 -3.4,2.5 -1.3,0.7 -1.9,1.1 -3.3,1.5 1.3,1 2.3,1.7 3.4,3.2 1.1,1.5 2.1,3 3,4.6 0.9,1.6 1.7,3.2 2.5,4.8 0.8,1.6 1.5,3 2.2,4.3 0.7,1.3 1.2,2.4 1.8,3.2 0.6,0.8 1.3,1.1 1.9,1.1 v 0.9 h -12.1 c -1.4,-4 -3,-7.6 -4.9,-11 -1.9,-3.4 -4.3,-6 -7.1,-8.9 l -2.5,0.1 v 15.9 z m 1.9,-21.3 c 1.4,0 2.4,-0.1 3.7,-0.3 1.2,-0.2 2.4,-0.8 3.2,-1.5 1.7,-1.5 2.8,-3.6 2.9,-6.3 0,-2.8 -0.7,-5.3 -2.1,-6.6 -1.4,-1.3 -3.1,-1.9 -5.6,-1.9 -0.8,0 -1.6,0.1 -2.3,0.2 -0.7,0.2 -1.2,0.7 -1.6,1.5 v 14.8 h 1.8 z m 82.9,25.2 h -16.9 v -0.9 c 0.5,-0.1 1,-0.1 1.4,-0.1 0.4,0 0.8,-0.2 1,-0.3 0.3,-0.2 0.5,-0.4 0.6,-0.8 0.1,-0.4 0.2,-0.9 0.2,-1.5 V 77.1 c 0,-0.7 -0.1,-1.2 -0.2,-1.6 -0.1,-0.4 -0.4,-0.6 -0.6,-0.8 -0.3,-0.2 -0.6,-0.3 -1,-0.3 -0.4,0 -0.9,-0.1 -1.4,-0.1 V 73.1 H 228 v 1.2 c -0.5,0 -1,0.1 -1.4,0.1 -0.4,0 -0.8,0.2 -1,0.3 -0.3,0.2 -0.5,0.4 -0.6,0.8 -0.1,0.4 -0.2,0.9 -0.2,1.5 v 38.6 c 0,0.7 0.1,1.2 0.2,1.6 0.2,0.4 0.4,0.7 0.6,0.8 0.3,0.1 0.6,0.3 1,0.3 0.4,0 0.9,0.1 1.4,0.1 v 1 z M 345.6,72.2 c 0,-1.6 -0.3,-2.7 -0.8,-3.2 -0.5,-0.6 -1.4,-0.8 -2.6,-0.8 v -1.1 h 13.1 v 1.1 c -0.6,0.1 -1.1,0.2 -1.5,0.3 -0.4,0.1 -0.7,0.4 -0.9,0.7 -0.2,0.3 -0.4,0.7 -0.5,1.2 -0.1,0.5 -0.1,1.1 -0.1,2 v 52.5 h -8.7 c -0.2,-0.2 -0.3,-0.4 -0.3,-0.5 L 319,81.4 V 119 c 0,0.9 0,1.7 0.1,2.2 0.1,0.6 0.3,1 0.5,1.4 0.3,0.3 0.6,0.5 1.1,0.7 0.5,0.1 1.1,0.2 1.8,0.2 v 1 h -13.7 v -1 c 0.7,-0.1 1.3,-0.3 1.7,-0.4 0.4,-0.1 0.8,-0.4 1,-0.7 0.2,-0.3 0.4,-0.8 0.5,-1.3 0.1,-0.5 0.1,-1.3 0.1,-2.2 V 72.4 c 0,-1.1 -0.3,-2.2 -0.9,-3 -0.6,-0.9 -1.4,-1.3 -2.3,-1.2 v -1.1 h 15.6 c 3.4,6.6 7,14 10.5,20.3 3.6,6.4 7.1,12.8 10.5,19.5 V 72.2 z M 82.5,102.7 c -0.7,-1.6 -1.6,-3 -2.8,-4.1 -1.2,-1.2 -2.3,-2 -4.5,-2.7 -2.9,1.2 -8.1,2.3 -8.1,2.3 0.9,0.4 0.8,0.3 1.6,0.9 1,0.8 1.5,2.2 2,3.5 0.5,1.4 0.8,3.3 0.8,5.4 0,3.7 -0.8,6.3 -2.5,8 -1.7,1.6 -4.1,2.5 -7.1,2.5 -1,0 -1.9,-0.1 -2.7,-0.4 -0.8,-0.3 -1.5,-1 -2,-2.1 V 98 c 0,0 13.8,-0.9 18.9,-4.7 1.5,-1.1 2.1,-2 3.1,-3.2 0.8,-1.1 1.3,-2.2 1.8,-3.6 0.4,-1.3 0.7,-3 0.7,-5 0,-2.8 -0.5,-5.1 -1.6,-6.9 -1.1,-1.8 -2.5,-3.8 -4.1,-4.8 -1.7,-1 -3.5,-1.7 -5.6,-2.1 -2,-0.4 -5.2,-0.6 -7.1,-0.6 H 42 v 1.5 c 1.2,-0.1 2.1,0.1 2.7,0.5 0.6,0.4 0.9,1.3 0.9,2.9 l 0.1,22.7 c -4.1,1.6 -6.9,5.3 -7.4,6.3 -2.2,3.7 -1.4,3.9 0.8,1.8 1.9,-1.8 4.8,-3.1 6.5,-3.6 v 20.3 c 0,1.5 -0.3,2.4 -0.9,2.8 -0.6,0.3 -1.5,0.5 -2.7,0.6 v 1.5 h 21.4 c 2.2,0 5.6,-0.4 7.8,-0.8 2.3,-0.5 4.3,-1.5 6.1,-2.7 1.8,-1.2 3.3,-3 4.5,-5 1.2,-2 1.7,-4.7 1.7,-7.8 0,-2 -0.3,-3.8 -1,-5.4 z M 57.1,75.3 c 0.4,-0.9 1.1,-1.5 2,-1.7 0.9,-0.2 1.7,-0.3 2.5,-0.3 2.7,0 4.7,0.7 6.1,2.2 1.4,1.5 2,3.4 2,6.6 0,1.9 -0.2,3.1 -0.7,4.3 -0.5,1.2 -1.1,2.2 -1.9,2.9 -1.4,1.2 -2.2,1.7 -4.1,2.5 -1.4,0.6 -2.8,0.8 -6,1.3 V 75.3 z m 149.3,26.5 c -0.6,-1.3 -1.4,-2.4 -2.3,-3.3 -1,-0.9 -1.6,-1.6 -3.4,-2.2 -2.7,1 -2.9,1.3 -7.1,2 0.5,0.2 0.7,0.3 1.3,0.7 0.8,0.6 1.3,1.7 1.7,2.7 0.4,1.1 0.6,2.6 0.6,4.4 0,3 -0.7,5.1 -2.1,6.5 -1.4,1.3 -3.4,2 -5.9,2 -0.8,0 -1.6,-0.1 -2.2,-0.4 -0.7,-0.2 -1.2,-0.8 -1.6,-1.7 V 98 c 0,0 11.7,-0.7 15.9,-3.8 1.7,-1.2 1.7,-1.5 2.5,-2.5 0.7,-0.9 1.1,-1.9 1.5,-3 0.3,-1 0.6,-2.5 0.6,-4 0,-2.3 -0.4,-4.1 -1.3,-5.6 -0.9,-1.5 -2,-3.1 -3.4,-3.9 -1.4,-0.8 -2.9,-1.4 -4.6,-1.7 -1.7,-0.3 -4.5,-0.5 -6.2,-0.5 h -17.8 v 1.1 c 1,0 1.7,0.1 2.2,0.4 0.5,0.3 0.7,1.1 0.7,2.4 l 0.1,18.6 c -3.3,1.4 -5.3,4.1 -5.8,4.9 -1.8,3 -1.2,3.1 0.6,1.4 1.6,-1.5 3.7,-2.3 5.1,-2.7 v 16.6 c 0,1.2 -0.2,2 -0.7,2.2 -0.5,0.3 -1.2,0.4 -2.2,0.5 v 1.1 h 18.1 c 1.8,0 4.6,-0.3 6.5,-0.7 1.9,-0.4 3.6,-1.2 5.1,-2.2 1.5,-1 2.8,-2.4 3.7,-4.1 1,-1.6 1.4,-3.8 1.4,-6.3 -0.1,-1.7 -0.4,-3.2 -1,-4.4 z M 185.3,79.6 c 0.4,-0.7 0.9,-1.2 1.6,-1.4 0.7,-0.2 1.5,-0.2 2.1,-0.2 2.2,0 3.9,0.6 5,1.8 1.1,1.2 1.7,2.8 1.7,5.4 0,1.6 -0.2,2.5 -0.6,3.5 -0.9,2.6 -2.4,3.6 -4.4,4.3 -1.2,0.4 -2.9,0.6 -5.5,1 V 79.6 z m 84.6,35.4 c -2.2,2.1 -4.5,3.7 -6.9,4.6 -2.4,1 -5.1,1.5 -8.1,1.4 -3.5,0 -6.9,-0.5 -9.8,-1.6 -2.9,-1.1 -5.4,-2.7 -7.4,-4.8 -2.1,-2.1 -3.7,-4.6 -4.8,-7.7 -1.1,-3 -1.5,-6.5 -1.4,-10.4 0,-3.7 0.6,-7.1 1.7,-10.2 1.1,-3.1 2.7,-5.7 4.8,-7.9 2,-2.2 4.5,-3.9 7.4,-5 2.9,-1.2 6.1,-1.8 9.5,-1.7 2.4,0 4.9,0.4 7.3,1.3 0.1,0 0.4,0.1 0.9,0.3 0.5,0.2 1,0.3 1.5,0.5 0.5,0.2 1,0.3 1.5,0.5 0.5,0.2 0.7,0.2 0.8,0.2 0.5,0 0.8,-0.2 1.1,-0.5 0.3,-0.3 0.4,-0.7 0.5,-1.1 h 1 v 12.5 c 0,0 -0.4,0.2 -1,0.3 -1.1,-2.8 -2.8,-5 -5.2,-6.6 -2.4,-1.6 -4.9,-2.4 -7.8,-2.5 -2.6,0 -4.7,0.6 -6.5,1.7 -1.7,1.1 -3.1,2.6 -4.2,4.5 -1.1,1.9 -1.8,3.9 -2.3,6.3 -0.5,2.3 -0.7,4.7 -0.7,7 0,2.4 0.3,4.8 0.9,7.2 0.6,2.3 1.5,4.4 2.7,6.3 1.2,1.9 2.7,3.5 4.4,4.8 1.7,1.3 3.8,2.2 6.1,2.6 2.7,0.5 5.3,0.4 7.6,-0.2 2.3,-0.7 4.4,-1.9 6.1,-3.6 l 0.3,1.8 z"
         id="path3324"
         style="fill:#ffffff" />
      <path
         d="m 310,119.2 h -16.4 v -1.1 c 0.5,0 0.9,0 1.3,-0.1 0.4,0 0.6,-0.2 0.9,-0.3 0.2,-0.2 0.4,-0.5 0.5,-0.8 0.1,-0.4 0,-0.9 -0.3,-1.5 l -3,-7.8 h -15.8 l -3,7.6 c -0.2,0.6 -0.3,1.1 -0.3,1.5 0,0.4 0.2,0.7 0.4,0.9 0.2,0.2 0.6,0.3 1,0.4 0.4,0.1 0.9,0.1 1.4,0.1 v 1.1 H 264 v -1.1 c 0.8,-0.1 1.4,-0.5 1.8,-1 0.4,-0.5 0.8,-1.2 1.1,-1.9 l 16.2,-42.5 h 7.9 l 16.3,42.7 c 0.3,0.6 0.6,1.2 1,1.8 0.4,0.6 1,0.8 1.7,0.8 v 1.2 z m -25,-35 -6.2,17.5 h 12.6 L 285,84.2 z"
         id="path3326"
         style="fill:#ffffff" />
      <g
         id="g3328">
        <linearGradient
           x1="0.42199999"
           y1="99.571999"
           x2="397.754"
           y2="99.571999"
           id="SVGID_4_"
           gradientUnits="userSpaceOnUse">
          <stop
             id="stop3331"
             style="stop-color:#404040;stop-opacity:1"
             offset="0" />
          <stop
             id="stop3333"
             style="stop-color:#636363;stop-opacity:1"
             offset="0.024" />
          <stop
             id="stop3335"
             style="stop-color:#9a9a9a;stop-opacity:1"
             offset="0.064" />
          <stop
             id="stop3337"
             style="stop-color:#c6c6c6;stop-opacity:1"
             offset="0.102" />
          <stop
             id="stop3339"
             style="stop-color:#e5e5e5;stop-opacity:1"
             offset="0.13600001" />
          <stop
             id="stop3341"
             style="stop-color:#f8f8f8;stop-opacity:1"
             offset="0.164" />
          <stop
             id="stop3343"
             style="stop-color:#ffffff;stop-opacity:1"
             offset="0.184" />
          <stop
             id="stop3345"
             style="stop-color:#b7b7b7;stop-opacity:1"
             offset="0.26699999" />
          <stop
             id="stop3347"
             style="stop-color:#797979;stop-opacity:1"
             offset="0.347" />
          <stop
             id="stop3349"
             style="stop-color:#4c4c4c;stop-opacity:1"
             offset="0.41499999" />
          <stop
             id="stop3351"
             style="stop-color:#303030;stop-opacity:1"
             offset="0.46700001" />
          <stop
             id="stop3353"
             style="stop-color:#262626;stop-opacity:1"
             offset="0.49700001" />
          <stop
             id="stop3355"
             style="stop-color:#2e2e2e;stop-opacity:1"
             offset="0.55599999" />
          <stop
             id="stop3357"
             style="stop-color:#444444;stop-opacity:1"
             offset="0.648" />
          <stop
             id="stop3359"
             style="stop-color:#676767;stop-opacity:1"
             offset="0.759" />
          <stop
             id="stop3361"
             style="stop-color:#979797;stop-opacity:1"
             offset="0.88599998" />
          <stop
             id="stop3363"
             style="stop-color:#b3b3b3;stop-opacity:1"
             offset="0.95099998" />
        </linearGradient>
        <path
           d="m 382.4,0.2 c 0,0 -68.5,33.1 -183.1,33.1 h -0.2 C 84.2,32.1 16.3,0.3 16.3,0.3 -1.3,48.4 -8.1,141 16,198.9 c 0,0 70.6,-40.4 183.1,-41.3 h 0.2 c 114.6,0 182.8,41 182.8,41 20.2,-47 21.5,-139.7 0.3,-198.4 z"
           id="path3365"
           style="fill:url(#SVGID_4_);fill-rule:evenodd" />
        <linearGradient
           x1="9.3640003"
           y1="99.887001"
           x2="389.03601"
           y2="99.887001"
           id="SVGID_5_"
           gradientUnits="userSpaceOnUse">
          <stop
             id="stop3368"
             style="stop-color:#005ca3;stop-opacity:1"
             offset="0" />
          <stop
             id="stop3370"
             style="stop-color:#0068ad;stop-opacity:1"
             offset="0.067" />
          <stop
             id="stop3372"
             style="stop-color:#0071b4;stop-opacity:1"
             offset="0.133" />
          <stop
             id="stop3374"
             style="stop-color:#0074b6;stop-opacity:1"
             offset="0.19" />
          <stop
             id="stop3376"
             style="stop-color:#105c98;stop-opacity:1"
             offset="0.30000001" />
          <stop
             id="stop3378"
             style="stop-color:#1f437e;stop-opacity:1"
             offset="0.43099999" />
          <stop
             id="stop3380"
             style="stop-color:#233470;stop-opacity:1"
             offset="0.53299999" />
          <stop
             id="stop3382"
             style="stop-color:#242e6b;stop-opacity:1"
             offset="0.59500003" />
          <stop
             id="stop3384"
             style="stop-color:#213370;stop-opacity:1"
             offset="0.65899998" />
          <stop
             id="stop3386"
             style="stop-color:#13407c;stop-opacity:1"
             offset="0.75800002" />
          <stop
             id="stop3388"
             style="stop-color:#005493;stop-opacity:1"
             offset="0.88" />
          <stop
             id="stop3390"
             style="stop-color:#006cb2;stop-opacity:1"
             offset="1" />
        </linearGradient>
        <path
           d="m 377.6,13.3 c 0,0 -67.7,26.9 -178.4,26.9 H 199 C 88.1,39.1 20.7,13.4 20.7,13.4 7.3,58.5 4,139.5 20.5,186.5 c 0,0 69.9,-35 178.6,-35.9 h 0.2 c 110.7,0 178,35.8 178,35.8 15,-41.8 16.2,-122.6 0.3,-173.1 z"
           id="path3392"
           style="fill:url(#SVGID_5_);fill-rule:evenodd" />
        <path
           d="m 374,20.4 c -18.6,6.4 -81.6,25.3 -174.7,25.3 h -0.2 C 105.8,44.8 43,26.7 24.4,20.6 c -5.9,22.7 -9.5,53.5 -9.5,84 0,26.9 2.8,53.7 9,74.3 19,-8.3 83.5,-33.1 175.2,-33.8 h 0.2 c 93.1,0 155.9,25 174.7,33.6 6.2,-20.3 9.6,-48.9 9.5,-78.1 0,-28.2 -3.1,-57.1 -9.5,-80.2 z m 4.9,80.6 c 0,25.8 -2.8,51.2 -7.6,70.2 l -0.3,1 -1,-0.4 C 345.6,161.5 285.2,140.4 199.3,140.4 h -0.2 c -84.9,0.7 -146.6,21.7 -171.2,31.7 l -1,0.4 -0.3,-1 c -4.8,-19 -7.1,-42.8 -7.1,-66.7 v -0.5 c 0,-27.6 3,-55.5 8,-77 l 0.2,-1 0.9,0.3 c 24,7.3 84.4,22.7 170.4,23.6 h 0.3 c 86,0 146.5,-16 170.6,-23.7 l 0.9,-0.3 0.2,1 c 5.2,21.4 7.9,47.5 7.9,73 v 0.8 z"
           id="path3394"
           style="fill:#ffffff;fill-rule:evenodd" />
        <linearGradient
           x1="199.70399"
           y1="128.261"
           x2="199.70399"
           y2="69.419998"
           id="SVGID_6_"
           gradientUnits="userSpaceOnUse">
          <stop
             id="stop3397"
             style="stop-color:#404040;stop-opacity:1"
             offset="0" />
          <stop
             id="stop3399"
             style="stop-color:#636363;stop-opacity:1"
             offset="0.024" />
          <stop
             id="stop3401"
             style="stop-color:#9a9a9a;stop-opacity:1"
             offset="0.064" />
          <stop
             id="stop3403"
             style="stop-color:#c6c6c6;stop-opacity:1"
             offset="0.102" />
          <stop
             id="stop3405"
             style="stop-color:#e5e5e5;stop-opacity:1"
             offset="0.13600001" />
          <stop
             id="stop3407"
             style="stop-color:#f8f8f8;stop-opacity:1"
             offset="0.164" />
          <stop
             id="stop3409"
             style="stop-color:#ffffff;stop-opacity:1"
             offset="0.184" />
          <stop
             id="stop3411"
             style="stop-color:#b7b7b7;stop-opacity:1"
             offset="0.26699999" />
          <stop
             id="stop3413"
             style="stop-color:#797979;stop-opacity:1"
             offset="0.347" />
          <stop
             id="stop3415"
             style="stop-color:#4c4c4c;stop-opacity:1"
             offset="0.41499999" />
          <stop
             id="stop3417"
             style="stop-color:#303030;stop-opacity:1"
             offset="0.46700001" />
          <stop
             id="stop3419"
             style="stop-color:#262626;stop-opacity:1"
             offset="0.49700001" />
          <stop
             id="stop3421"
             style="stop-color:#2e2e2e;stop-opacity:1"
             offset="0.55599999" />
          <stop
             id="stop3423"
             style="stop-color:#444444;stop-opacity:1"
             offset="0.648" />
          <stop
             id="stop3425"
             style="stop-color:#676767;stop-opacity:1"
             offset="0.759" />
          <stop
             id="stop3427"
             style="stop-color:#979797;stop-opacity:1"
             offset="0.88599998" />
          <stop
             id="stop3429"
             style="stop-color:#b3b3b3;stop-opacity:1"
             offset="0.95099998" />
        </linearGradient>
        <path
           d="m 187.5,99.8 v 14.7 c 0.1,0.2 0.2,0.2 0.3,0.3 0,0 0.1,0 0.2,0.1 l 0.2,0.2 c 0.1,0.1 0.5,0.2 0.7,0.2 h 0.3 v -14.2 c 0,0 2.2,-0.1 5.7,-1 0.5,-0.1 0.9,-0.2 0.9,-0.2 -0.2,-0.3 -1.1,-0.9 -1.6,-1.1 -3.2,0.7 -6.7,1 -6.7,1 z m -86.7,21.9 c -0.5,0 -1,0 -1.4,-0.1 -0.2,0 -0.3,-0.1 -0.5,-0.1 H 88.8 c -0.2,0.1 -0.5,0.2 -0.8,0.2 v 1.4 h 13.2 v -1.1 -0.3 h -0.4 z m 49,0 c -0.7,0 -1.3,-0.1 -1.8,-0.2 h -12.6 c -0.4,0.1 -0.7,0.2 -1.3,0.2 -0.3,0 -0.8,-0.1 -1.1,-0.2 h -13.4 c -0.2,0.1 -0.4,0.2 -0.6,0.2 -0.4,0 -0.8,0.1 -1.3,0.1 v 1.4 h 32.5 v -1.1 -0.3 l -0.4,-0.1 z m 14.3,-15.1 c 0.9,1.6 1.8,3.2 2.5,4.8 0.8,1.6 1.5,3 2.2,4.3 0.6,1.3 1.1,2.2 1.7,2.8 0.4,0.5 1,0.6 1.2,0.6 -0.4,-0.6 -0.6,-1.1 -1,-1.9 -0.7,-1.3 -1.2,-2.8 -2,-4.4 -0.8,-1.6 -1.7,-3.3 -2.6,-5 -0.9,-1.6 -1.9,-3.2 -3,-4.6 -0.4,-0.6 -1.3,-1.6 -2.2,-2.2 -0.4,-0.3 -0.8,-0.6 -1.3,-0.7 0.4,0.3 1.3,1.3 1.5,1.6 1.1,1.6 2.1,3.1 3,4.7 z M 146,118.9 c 0,0.1 0,0.1 0.1,0.2 0.2,0.1 0.8,0.1 1.1,0.2 v -16.5 l 2.2,-0.1 c -0.3,-0.4 -0.7,-0.7 -1,-1.1 h -0.1 l -0.3,-0.3 -2.4,0.1 v 15.9 c 0,0.6 0.1,1.1 0.2,1.5 -0.1,0 0.1,0 0.2,0.1 z m 81.7,0.2 c 0,0.1 0,0.1 0.1,0.2 0.2,0 0.3,0.1 0.5,0.1 h 0.3 V 80.2 c 0,-0.7 0,-1.6 0.1,-2 0.1,-0.3 0.3,-0.6 1.6,-0.7 0.4,0 0.9,-0.1 1.5,-0.1 v -1.1 h -0.4 V 76 h -2.9 c -1.3,0.1 -1.4,0.9 -1.4,2.8 v 38.7 c 0,0.7 0.1,1.2 0.2,1.6 h 0.4 z M 59.3,100 v 18.2 c 0.1,0.2 0.2,0.2 0.4,0.4 0.1,0 0.2,0.1 0.3,0.1 l 0.1,0.1 c 0.2,0.1 0.3,0.2 0.5,0.3 h 0.5 v -17.6 c 0,0 2.6,-0.2 7,-1.1 0.3,-0.1 1.1,-0.2 1.1,-0.3 -0.6,-0.6 -1.4,-1.1 -2.2,-1.3 -4,1 -7.7,1.2 -7.7,1.2 z m 71.7,18.8 c 0,0 0.1,0 0.2,0.1 l 0.2,0.2 c 0.1,0.1 0.6,0.2 1.2,0.2 -0.1,-0.2 -0.3,-0.5 -0.9,-1.9 L 116,75.5 h -0.3 l -0.1,-0.3 -1.3,-0.1 15.9,42.3 c 0.3,0.5 0.4,1 0.8,1.4 z m 116.6,-7.6 c 0.7,1.2 1.5,2.2 2.5,3.2 0,0 0.3,0.2 0.4,0.3 -0.5,-0.6 -1,-1.3 -1.5,-2.1 -1.2,-1.9 -2,-4 -2.6,-6.3 -0.6,-2.3 -0.9,-4.7 -0.9,-7.1 0,-2.4 0.2,-4.7 0.7,-7 0.5,-2.3 1.2,-4.4 2.2,-6.2 1,-1.9 2.4,-3.4 4.1,-4.5 1.7,-1.1 3.8,-1.7 6.3,-1.7 2.7,0 5.6,0.7 7.9,2.2 0.2,0.2 0.4,0.4 0.7,0.5 0,-0.1 -0.1,-0.1 -0.1,-0.2 0.2,0.1 0.4,0.3 0.5,0.4 -0.3,-0.4 -0.6,-0.7 -0.9,-1.1 -0.3,-0.3 -0.6,-0.6 -1,-0.8 -0.1,0 -0.1,-0.1 -0.2,-0.1 -0.1,0 -0.1,-0.1 -0.2,-0.2 -2.3,-1.6 -5.3,-2.3 -8,-2.3 -2.5,0 -4.6,0.5 -6.3,1.7 -1.7,1.1 -3.1,2.6 -4.1,4.5 -1,1.9 -1.8,3.9 -2.2,6.2 -0.4,2.3 -0.7,4.6 -0.7,7 0,2.4 0.3,4.8 0.9,7.1 0.5,2.5 1.3,4.6 2.5,6.5 z m 33.3,10.4 c -0.5,0 -1.3,0 -1.8,-0.1 -0.2,0 -0.3,-0.1 -0.4,-0.1 h -13.8 l -0.1,0.1 c -0.2,0.1 -0.6,0.2 -0.9,0.4 -2.4,0.9 -5,1.3 -7.9,1.2 -3.4,-0.1 -6.8,-0.6 -9.6,-1.8 -1.3,-0.6 -2.6,-1.2 -3.7,-2 -1.1,-0.7 -2.1,-1.6 -3,-2.5 -0.1,0 -0.1,-0.1 -0.4,-0.3 0.3,0.3 0.5,0.7 0.8,1 1,1.1 2.2,2 3.4,2.9 1.3,0.9 2.7,1.7 4.2,2.3 2.8,1.2 6.2,1.7 9.6,1.8 2.9,0.1 5.5,-0.3 7.9,-1.2 l 0.6,-0.3 h 14.9 l 0.2,-1.4 z m 29.9,-2.9 0.2,0.2 c 0.1,0.1 0.1,0 0.2,0.1 0.1,0.1 0.6,0.2 1.2,0.2 -0.1,-0.2 -0.3,-0.5 -0.9,-1.9 l -15.7,-41.8 -0.1,-0.3 h -1.6 l 15.9,42.2 c 0.3,0.6 0.3,0.9 0.8,1.3 z m 15.5,7.9 c -0.7,0 -1.3,-0.1 -1.8,-0.2 h -10.8 c -0.4,0.1 -0.7,0.1 -1.2,0.2 v 1.5 h 14.1 v -1.5 h -0.3 z m -4.4,-2.7 c 0.1,0 0.2,0.1 0.3,0.1 v 0.1 c 0.1,0 0.2,0.1 0.3,0.1 h 0.7 c -0.1,-0.6 -0.1,-1.2 -0.1,-2.1 V 85.9 l -1.2,-1.8 v 0.3 l -0.4,-0.5 v 36.9 c 0,0.9 0,1.7 0.1,2.3 0.2,0.2 0.2,0.5 0.3,0.8 z m 25.2,-19 c 0.1,0.2 0.2,0.4 0.3,0.5 l 0.5,-1.3 C 345.1,98.8 333.2,76.4 329.8,69.7 l -0.1,-0.3 h -0.2 l -1.3,-0.1 c 3.2,6.2 15.8,29.8 18.9,35.8 v -0.2 z m -115.5,16.8 c -0.5,0 -1,0 -1.4,-0.1 -0.3,0 -0.5,-0.1 -0.7,-0.2 h -12.9 c -0.1,0 -0.3,0.1 -0.4,0.1 -0.4,0.1 -0.9,0.1 -1.4,0.1 V 123 H 232 v -1.4 h -0.4 z m 40.1,-33.2 c 0,0.1 0.1,0.3 0.1,0.3 0,0 0.2,0 0.2,-0.1 l 0.9,-0.3 -0.1,-12.1 V 76 h -1.4 v 0.2 l 0.1,10.8 c 0,0 -0.2,0.1 -0.5,0.2 0.4,0.5 0.6,0.9 0.7,1.3 z M 76,96.6 c 0.7,0.2 1.4,0.6 2,0.9 l 1.5,-0.9 c 1.6,-1.1 2.1,-1.7 3,-3 0.8,-1.1 1.3,-2.2 1.8,-3.6 0.4,-1.3 0.7,-3 0.7,-5 0,-2.8 -0.5,-5.1 -1.6,-6.9 -0.6,-1 -1.2,-1.8 -2,-2.5 -0.1,0 -0.2,-0.2 -0.4,-0.3 0.3,0.4 0.6,0.8 0.9,1.3 1.1,1.8 1.6,4.1 1.6,6.9 0,1.9 -0.3,3.7 -0.7,5 -0.4,1.4 -1,2.5 -1.8,3.6 -0.9,1.2 -1.5,1.9 -3,3 -0.7,0.5 -1.5,0.9 -2.4,1.2 0.2,0.1 0.3,0.1 0.5,0.2 0,0.1 -0.1,0.1 -0.1,0.1 z m 205.9,6.2 h 1.4 l 4.8,-13.5 -0.7,-2 -0.1,0.4 -0.3,-0.7 -5.5,15.5 h 0.5 l -0.1,0.3 z M 187.8,95 c 0.3,0 1,-0.2 1.3,-0.3 V 81.9 c 0.2,-0.8 0.9,-1.1 3.4,-1.1 1.7,0 2.7,0.5 3.7,1.2 -0.1,-0.2 -0.3,-0.5 -0.4,-0.7 -0.2,-0.2 -0.4,-0.3 -0.6,-0.4 -1.1,-0.8 -2.3,-1.3 -4.1,-1.3 -0.7,0 -1.5,0 -2.2,0.2 -0.7,0.2 -1.2,0.5 -1.5,1.3 v 13.6 c 0.1,0 0.2,0 0.4,-0.1 V 95 z m 15.5,2.7 c 0.4,-0.2 0.8,-0.4 1.2,-0.7 1.3,-0.9 1.7,-1.4 2.5,-2.4 0.7,-0.9 1.1,-1.8 1.5,-3 0.3,-1 0.6,-2.5 0.6,-4 0,-2.3 -0.5,-4.1 -1.3,-5.6 -0.5,-0.8 -1,-1.4 -1.6,-2 -0.1,-0.1 -0.2,-0.2 -0.4,-0.3 0.3,0.3 0.5,0.7 0.7,1 0.9,1.5 1.3,3.3 1.3,5.6 0,1.6 -0.3,3 -0.6,4 -0.4,1.2 -0.8,2.1 -1.5,3 -0.8,1 -1.2,1.4 -2.4,2.3 -0.5,0.3 -1.2,0.7 -2,1 0.1,0.2 1.5,0.9 2,1.1 z m -101.1,5.2 h 1.4 l 4.8,-13.5 -0.7,-2 -0.1,0.4 -0.2,-0.7 -5.5,15.5 h 0.5 l -0.2,0.3 z m 70.4,18.8 c -0.3,0 -0.6,0 -1,-0.2 h -10.9 c 0.1,0.4 0.5,1 0.6,1.3 l 0.1,0.2 H 173 v -1.1 -0.3 l -0.4,0.1 z M 295,110 l -0.1,-0.3 h -15.3 l -3,7.4 c -0.2,0.6 -0.3,1.1 -0.2,1.5 0,0.1 0,0.1 0.1,0.2 h 0.3 c 0,0.1 0,0.1 0.1,0.2 h 0.2 c 0.3,0 0.5,0.1 0.8,0.1 0,-0.2 0.1,-0.5 0.2,-0.8 l 3,-7.3 H 296 l -0.6,-1.2 H 295 z m -118.5,-9.5 c -2.3,0.7 -3.8,1.8 -4.6,2.5 -1.4,1.4 0,0.8 0.9,0.4 0.9,-0.5 2.4,-1 3.6,-1.2 v -1.7 z M 59.6,94.1 C 60,94 60.8,94 61.1,93.9 V 78.4 c 0.3,-1.1 0.7,-1.4 1.6,-1.6 0.9,-0.2 1.7,-0.2 2.5,-0.2 2,0 3.3,0.6 4.6,1.4 -0.2,-0.3 -0.3,-0.6 -0.5,-0.8 -0.2,-0.2 -0.5,-0.4 -0.7,-0.5 -1.3,-0.9 -2.7,-1.6 -4.8,-1.6 -0.8,0 -1.7,0 -2.5,0.3 -0.8,0.3 -1.5,0.6 -1.9,1.6 v 16.9 c 0.1,0 0.2,0 0.4,-0.1 v 0.3 z m 254.6,28.8 v -1.1 h -0.4 v -0.2 c -0.4,0 -0.7,-0.1 -1,-0.3 h -13.4 c -0.2,0.1 -0.4,0.1 -0.6,0.2 -0.4,0 -0.8,0.1 -1.3,0.1 v 1.4 h 16.7 z m 45.1,-52.6 -0.4,-0.1 h -1.2 c -0.5,0 -1,0.1 -1.2,0.2 -0.4,0.1 -0.7,0.4 -0.9,0.7 -0.2,0.3 -0.4,0.7 -0.5,1.2 -0.1,0.5 -0.1,2.1 -0.1,2.9 v 51.4 h -8.4 l 0.4,0.9 c 0,0.1 0.2,0.2 0.3,0.5 l 0.1,0.3 h 9.1 V 76.6 c 0,-0.8 -0.1,-3.4 0.3,-4.2 0.2,-0.3 0.5,-0.5 0.8,-0.6 0.4,-0.1 0.8,-0.2 1.5,-0.3 v -1.1 l 0.2,-0.1 z m -152,31.3 c 0,0 -0.2,-0.2 -0.4,-0.3 h -0.1 c 0.6,0.7 1.1,1.5 1.5,2.4 0.6,1.3 0.9,2.8 0.9,4.4 0,2.5 -0.5,4.7 -1.4,6.3 -1,1.7 -2.2,3.1 -3.7,4.1 -1.5,1 -3.2,1.8 -5.1,2.2 -1.9,0.4 -4.7,0.8 -6.5,0.8 h -16 c -0.4,0.1 -0.7,0.1 -1.2,0.1 v 1.4 h 18.5 c 1.8,0 4.6,-0.5 6.5,-0.9 1.9,-0.4 3.6,-1.2 5.1,-2.2 1.5,-1 2.8,-2.4 3.7,-4.1 1,-1.7 1.4,-4 1.4,-6.4 0,-1.7 -0.3,-3.1 -0.9,-4.4 -0.5,-1.3 -1.3,-2.4 -2.3,-3.4 z M 46.5,101 c -2.8,0.8 -4.7,2.1 -5.6,3 -1.7,1.8 -0.2,1.5 1.4,0.6 1.1,-0.6 2.6,-1.4 4.1,-1.6 l 0.1,-2 z m 36.7,1.1 c -0.2,-0.3 -0.6,-0.5 -0.7,-0.6 0.1,0.2 0.2,0.3 0.2,0.3 0.7,0.9 1.3,1.8 1.8,2.9 0.7,1.6 1.1,3.4 1.1,5.4 0,3.1 -0.6,5.8 -1.7,7.8 -1.2,2.1 -2.6,3.8 -4.5,5 -1.8,1.2 -3.9,2.2 -6.2,2.7 -2.3,0.5 -5.6,1 -7.8,1 H 46.5 c -0.4,0.1 -0.9,0.1 -1.5,0.2 v 1.5 h 21.8 c 2.2,0 5.6,-0.6 7.8,-1.1 2.3,-0.5 4.3,-1.5 6.2,-2.7 1.8,-1.2 3.3,-3 4.5,-5 1.2,-2.1 1.7,-4.7 1.7,-7.8 0,-2 -0.4,-3.8 -1.1,-5.4 -0.7,-1.7 -1.6,-3 -2.7,-4.2 z m 32.1,7.9 -0.1,-0.3 H 99.9 l -3,7.4 c -0.2,0.6 -0.3,1.1 -0.2,1.5 0,0.1 0,0.1 0.1,0.2 0.1,0 0.1,0 0.2,0.1 h 0.1 c 0,0.1 0,0.1 0.1,0.2 h 0.2 c 0.3,0 0.5,0.1 0.8,0.1 0,-0.2 0.1,-0.5 0.2,-0.8 l 3,-7.3 h 14.9 l -0.6,-1.2 h -0.4 z m 39.2,-29.1 c -1.4,-1 -2.9,-1.6 -5.2,-1.6 -0.8,0 -1.6,0.1 -2.3,0.2 -0.7,0.2 -1.2,0.7 -1.6,1.5 v 13.8 h 0.4 v 0.3 H 147 V 82 c 0.4,-0.8 0.8,-1.2 1.5,-1.3 0.7,-0.2 1.3,-0.1 2.2,-0.1 1.9,0 3.4,0.5 4.7,1.3 -0.2,-0.2 -0.3,-0.5 -0.5,-0.7 -0.1,-0.1 -0.3,-0.2 -0.4,-0.3 z m 10.6,15.5 c 0.8,-0.9 1.8,-2.2 2.4,-3.4 0.6,-1.3 1,-2.8 1,-4.4 0,-2.6 -0.4,-5.1 -1.4,-6.7 -0.5,-0.8 -1.1,-1.5 -1.7,-2.1 0,0 -0.2,-0.2 -0.4,-0.3 0.3,0.3 0.5,0.6 0.7,1 1,1.6 1.6,4.1 1.6,6.7 0,1.6 -0.3,3.2 -0.9,4.4 -0.6,1.3 -1.4,2.5 -2.4,3.4 -1,1 -1.9,1.8 -3.2,2.5 -1.3,0.7 -2.2,1.2 -3.6,1.5 0.2,0.2 1.1,1.1 1.3,1.2 1.3,-0.3 2.3,-0.8 3.5,-1.4 1.3,-0.8 2.2,-1.4 3.1,-2.4 z"
           id="path3431"
           style="fill:url(#SVGID_6_)" />
        <path
           d="m 131.1,119.7 h -16.4 v -1.1 c 0.5,0 0.9,0 1.3,-0.1 0.4,0 0.6,-0.2 0.9,-0.3 0.3,-0.2 0.4,-0.5 0.5,-0.8 0.1,-0.4 0,-0.9 -0.3,-1.5 l -3,-7.8 H 98.3 l -3,7.6 c -0.2,0.6 -0.3,1.1 -0.2,1.5 0,0.4 0.2,0.7 0.4,0.9 0.2,0.2 0.6,0.3 1,0.4 0.4,0.1 0.9,0.1 1.4,0.1 v 1.1 H 85 v -1.1 c 0.8,-0.1 1.4,-0.5 1.8,-1 0.4,-0.5 0.8,-1.2 1.1,-1.9 l 16.2,-42.5 h 7.9 l 16.3,42.8 c 0.3,0.6 0.6,1.2 1,1.8 0.4,0.6 1,0.8 1.7,0.8 v 1.1 z m -25,-35 -6.2,17.5 h 12.6 l -6.4,-17.5 z"
           id="path3433"
           style="fill:#ffffff" />
        <path
           d="m 143.8,115.8 c 0,1.3 0.3,2 0.8,2.3 0.5,0.3 1.3,0.4 2.3,0.4 v 1.1 h -16 v -1.1 c 1,-0.1 1.8,-0.2 2.3,-0.5 0.5,-0.3 0.7,-1.1 0.7,-2.4 V 77.1 c 0,-1.2 -0.3,-2 -0.8,-2.3 -0.5,-0.3 -1.3,-0.5 -2.2,-0.4 v -1.1 h 18.3 c 1.9,0 3.6,0.1 5.6,0.4 2,0.3 3.8,0.9 5.4,1.7 1.6,0.9 2.9,2.1 4,3.7 1,1.6 1.5,4.1 1.5,6.7 0,1.6 -0.3,3.2 -0.9,4.4 -0.6,1.3 -1.4,2.5 -2.4,3.4 -1,0.9 -2.1,1.8 -3.4,2.6 -1.3,0.7 -1.9,1.1 -3.3,1.5 1.3,1 2.3,1.7 3.4,3.2 1.1,1.5 2.1,3 3,4.6 0.9,1.6 1.8,3.2 2.5,4.8 0.8,1.6 1.5,3 2.2,4.3 0.6,1.3 1.2,2.4 1.8,3.2 0.6,0.8 1.3,1.1 1.9,1.1 v 0.9 h -12.1 c -1.4,-4 -3,-7.6 -4.9,-11 -1.9,-3.4 -4.3,-6 -7.1,-8.9 l -2.5,0.1 v 15.8 z m 1.9,-21.3 c 1.4,0 2.4,-0.1 3.7,-0.3 1.2,-0.2 2.4,-0.8 3.2,-1.5 1.7,-1.5 2.8,-3.6 2.9,-6.3 0,-2.8 -0.7,-5.3 -2.1,-6.6 -1.4,-1.3 -3.2,-1.9 -5.6,-1.9 -0.8,0 -1.6,0.1 -2.3,0.2 -0.7,0.2 -1.2,0.7 -1.6,1.5 v 14.8 h 1.8 z m 82.9,25.2 h -16.9 v -0.9 c 0.5,-0.1 1,-0.1 1.4,-0.1 0.4,0 0.8,-0.2 1,-0.3 0.3,-0.2 0.5,-0.5 0.6,-0.8 0.1,-0.4 0.2,-0.9 0.2,-1.5 V 77.4 c 0,-0.7 -0.1,-1.2 -0.2,-1.6 -0.1,-0.4 -0.4,-0.6 -0.6,-0.8 -0.3,-0.2 -0.6,-0.3 -1,-0.3 -0.4,0 -0.9,-0.1 -1.4,-0.1 v -1.2 h 16.9 v 1.2 c -0.5,0.1 -1,0.1 -1.4,0.1 -0.4,0 -0.8,0.2 -1,0.3 -0.3,0.2 -0.5,0.4 -0.6,0.8 -0.1,0.4 -0.2,0.9 -0.2,1.6 v 38.7 c 0,0.7 0.1,1.2 0.2,1.6 0.2,0.4 0.4,0.7 0.6,0.8 0.3,0.1 0.6,0.3 1,0.3 0.4,0 0.9,0.1 1.4,0.1 v 0.8 z M 346.4,72.5 c 0,-1.6 -0.3,-2.7 -0.8,-3.3 -0.5,-0.6 -1.4,-0.8 -2.6,-0.8 v -1.1 h 13.1 v 1.1 c -0.6,0.1 -1.1,0.2 -1.5,0.3 -0.4,0.1 -0.7,0.4 -0.9,0.7 -0.2,0.3 -0.4,0.7 -0.5,1.2 -0.1,0.5 -0.1,1.2 -0.1,2 v 52.5 h -8.7 c -0.2,-0.2 -0.3,-0.4 -0.3,-0.5 L 319.8,81.5 v 37.8 c 0,0.9 0,1.7 0.1,2.3 0.1,0.6 0.3,1 0.5,1.4 0.3,0.3 0.6,0.5 1.1,0.7 0.5,0.1 1.1,0.2 1.8,0.2 v 1 h -13.7 v -1 c 0.7,-0.1 1.3,-0.3 1.7,-0.4 0.4,-0.1 0.8,-0.4 1,-0.7 0.2,-0.3 0.4,-0.8 0.5,-1.3 0.1,-0.5 0.1,-1.3 0.1,-2.2 V 72.7 c 0,-1.1 -0.3,-2.2 -0.9,-3.1 -0.6,-0.9 -1.4,-1.3 -2.3,-1.2 v -1.1 h 15.6 c 3.4,6.6 7,14 10.5,20.3 3.6,6.4 7.1,12.9 10.5,19.5 V 72.5 z M 83,103 c -0.7,-1.6 -1.6,-3 -2.8,-4.1 -1.1,-1.2 -2.3,-2 -4.5,-2.7 -2.9,1.2 -8.1,2.3 -8.1,2.3 0.9,0.4 0.8,0.3 1.6,0.9 1,0.8 1.5,2.2 2,3.5 0.5,1.4 0.8,3.3 0.8,5.4 0,3.7 -0.8,6.3 -2.6,8 -1.7,1.7 -4.1,2.5 -7.1,2.5 -1,0 -1.9,-0.1 -2.7,-0.4 -0.8,-0.3 -1.5,-1 -2,-2.1 v -18 c 0,0 13.8,-0.9 18.9,-4.7 1.5,-1.1 2.1,-2 3.1,-3.2 0.8,-1.1 1.3,-2.2 1.8,-3.6 0.4,-1.3 0.7,-3 0.7,-5 0,-2.8 -0.5,-5.1 -1.6,-6.9 -1.1,-1.8 -2.5,-3.8 -4.1,-4.8 -1.7,-1 -3.5,-1.7 -5.6,-2.1 -2.1,-0.4 -5.2,-0.6 -7.1,-0.6 h -21 V 69 c 1.2,-0.1 2.1,0.1 2.7,0.5 0.6,0.4 0.9,1.3 0.9,2.9 L 46,95.1 c -4.1,1.6 -6.9,5.3 -7.4,6.3 -2.2,3.7 -1.4,3.9 0.8,1.8 1.9,-1.8 4.8,-3.1 6.6,-3.6 V 120 c 0,1.5 -0.3,2.4 -0.9,2.8 -0.6,0.3 -1.5,0.5 -2.7,0.6 v 1.5 h 21.4 c 2.2,0 5.6,-0.4 7.8,-0.9 2.3,-0.5 4.3,-1.5 6.2,-2.7 1.8,-1.2 3.3,-3 4.5,-5 1.2,-2 1.7,-4.7 1.7,-7.8 0,-2.1 -0.3,-3.9 -1,-5.5 z M 57.5,75.6 c 0.4,-0.9 1.1,-1.5 2,-1.7 0.9,-0.2 1.7,-0.3 2.6,-0.3 2.7,0 4.7,0.7 6.1,2.2 1.4,1.5 2.1,3.4 2.1,6.6 0,1.9 -0.2,3.1 -0.7,4.3 -0.6,1.3 -1.2,2.3 -2,3 -1.4,1.2 -2.2,1.7 -4.1,2.5 -1.5,0.6 -2.8,0.8 -6,1.3 V 75.6 z m 149.6,26.5 c -0.6,-1.3 -1.4,-2.4 -2.3,-3.3 -1,-0.9 -1.6,-1.6 -3.4,-2.2 -2.7,1 -2.9,1.3 -7.1,2 0.5,0.2 0.6,0.3 1.3,0.7 0.8,0.6 1.3,1.7 1.7,2.7 0.4,1.1 0.6,2.7 0.6,4.4 0,3 -0.7,5.1 -2.1,6.5 -1.4,1.3 -3.4,2 -5.9,2 -0.8,0 -1.6,-0.1 -2.2,-0.4 -0.7,-0.2 -1.2,-0.8 -1.6,-1.7 V 98.3 c 0,0 11.7,-0.7 15.9,-3.8 1.7,-1.2 1.8,-1.5 2.5,-2.6 0.7,-0.9 1.1,-1.8 1.5,-3 0.3,-1 0.6,-2.4 0.6,-4 0,-2.3 -0.4,-4.1 -1.4,-5.6 -0.9,-1.5 -2,-3.1 -3.4,-3.9 -1.4,-0.8 -2.9,-1.4 -4.6,-1.7 -1.7,-0.3 -4.5,-0.5 -6.2,-0.5 h -18 v 1.1 c 1,0 1.7,0.1 2.2,0.4 0.5,0.3 0.7,1.1 0.7,2.4 l 0.1,18.6 c -3.3,1.4 -5.3,4.1 -5.8,4.9 -1.8,3 -1.2,3.2 0.6,1.4 1.6,-1.5 3.7,-2.3 5.1,-2.7 v 16.6 c 0,1.2 -0.2,2 -0.7,2.2 -0.5,0.3 -1.2,0.4 -2.2,0.5 v 1.1 h 18.1 c 1.8,0 4.6,-0.3 6.5,-0.7 1.9,-0.4 3.6,-1.2 5.1,-2.2 1.5,-1 2.8,-2.4 3.7,-4.1 1,-1.6 1.4,-3.8 1.4,-6.3 0.1,-1.6 -0.2,-3 -0.7,-4.3 z M 185.9,79.9 c 0.4,-0.8 0.9,-1.2 1.6,-1.4 0.7,-0.2 1.5,-0.2 2.1,-0.2 2.2,0 3.9,0.6 5.1,1.8 1.1,1.2 1.7,2.8 1.7,5.4 0,1.6 -0.2,2.5 -0.6,3.5 -0.9,2.6 -2.4,3.6 -4.4,4.3 -1.2,0.4 -2.9,0.6 -5.5,1 V 79.9 z m 84.6,35.4 c -2.2,2.1 -4.5,3.7 -6.9,4.6 -2.4,1 -5.1,1.5 -8.1,1.4 -3.5,0 -6.9,-0.5 -9.8,-1.6 -2.9,-1.1 -5.4,-2.7 -7.5,-4.8 -2.1,-2.1 -3.7,-4.6 -4.8,-7.7 -1.1,-3 -1.5,-6.6 -1.4,-10.4 0,-3.7 0.6,-7.2 1.7,-10.2 1.1,-3.1 2.7,-5.7 4.8,-7.9 2,-2.2 4.5,-3.9 7.4,-5 2.9,-1.2 6.1,-1.8 9.5,-1.7 2.4,0 4.9,0.4 7.3,1.3 0.1,0 0.4,0.1 0.9,0.3 0.5,0.2 1,0.3 1.5,0.5 0.5,0.2 1,0.3 1.5,0.4 0.5,0.2 0.7,0.2 0.8,0.2 0.5,0 0.8,-0.2 1.1,-0.5 0.3,-0.3 0.4,-0.7 0.5,-1.1 h 1 v 12.5 c 0,0 -0.4,0.2 -1,0.3 -1.1,-2.8 -2.8,-5 -5.2,-6.6 -2.4,-1.6 -5,-2.4 -7.8,-2.4 -2.6,0 -4.7,0.6 -6.5,1.7 -1.7,1.1 -3.1,2.6 -4.2,4.5 -1.1,1.9 -1.8,4 -2.3,6.3 -0.5,2.3 -0.7,4.7 -0.7,7 0,2.5 0.3,4.8 0.9,7.2 0.6,2.3 1.5,4.4 2.7,6.4 1.2,1.9 2.7,3.5 4.4,4.8 1.7,1.3 3.8,2.2 6.1,2.6 2.7,0.5 5.3,0.4 7.6,-0.2 2.3,-0.7 4.4,-1.9 6.2,-3.6 l 0.3,1.7 z"
           id="path3435"
           style="fill:#ffffff" />
        <path
           d="m 310.7,119.6 h -16.4 v -1.1 c 0.5,0 1,0 1.4,-0.1 0.4,0 0.6,-0.2 0.9,-0.3 0.3,-0.2 0.4,-0.5 0.5,-0.8 0.1,-0.4 0,-0.9 -0.3,-1.5 l -3,-7.8 H 278 l -3,7.6 c -0.2,0.6 -0.3,1.1 -0.3,1.5 0.1,0.4 0.2,0.7 0.4,0.9 0.2,0.2 0.5,0.3 1,0.4 0.4,0.1 0.9,0.1 1.4,0.1 v 1.1 h -12.8 v -1.1 c 0.8,-0.1 1.4,-0.5 1.8,-1 0.4,-0.5 0.8,-1.2 1,-1.9 L 283.8,73 h 7.9 l 16.3,42.8 c 0.3,0.6 0.6,1.2 1,1.8 0.4,0.6 1,0.8 1.7,0.8 v 1.2 z m -25,-35.1 -6.2,17.5 h 12.6 l -6.4,-17.5 z"
           id="path3437"
           style="fill:#ffffff" />
      </g>
      <path
         d="m 360.5,62.4 c -4,0.1 -7.2,-3 -7.3,-6.9 -0.1,-3.9 2.9,-7.3 7,-7.4 4,-0.1 7.2,3 7.3,6.9 0,3.9 -3,7.3 -7,7.4 m -0.4,-13.5 c -3.6,0.1 -6.3,3.1 -6.2,6.6 0.1,3.5 2.9,6.3 6.5,6.2 3.6,-0.1 6.3,-3.1 6.2,-6.6 -0.1,-3.6 -2.9,-6.3 -6.5,-6.2 m 2,7.2 1.9,2.7 -2,0.1 -1.7,-2.4 H 359 l 0.1,2.5 h -1.7 l -0.2,-7.6 3.4,-0.1 c 1.8,0 3,0.9 3.1,2.4 0,1.2 -0.7,2 -1.6,2.4 m -1.5,-3.4 H 359 V 55 h 1.7 c 0.8,0 1.3,-0.5 1.3,-1.1 -0.1,-0.9 -0.6,-1.2 -1.4,-1.2"
         id="path3439"
         style="fill:#ffffff" />
    </g>
  </g>
  <style
     id="style3217" />
</svg>
