<?xml version="1.0" encoding="iso-8859-1"?>
<!-- Generator: Adobe Illustrator 18.0.0, SVG Export Plug-In . SVG Version: 6.00 Build 0)  -->
<!DOCTYPE svg PUBLIC "-//W3C//DTD SVG 1.1//EN" "http://www.w3.org/Graphics/SVG/1.1/DTD/svg11.dtd">
<svg version="1.1" id="Layer_1" xmlns="http://www.w3.org/2000/svg" xmlns:xlink="http://www.w3.org/1999/xlink" x="0px" y="0px"
	 viewBox="445 432 160 32" style="enable-background:new 445 432 160 32;" xml:space="preserve">
<g>
	<g>
		<path d="M591.912,447.991c0.048-2.864,0.885-4.429,4.784-4.586c4.219-0.17,7.954-6.326,8.304-9.08
			c-1.32,0.368-2.82,0.696-4.192,0.634c-1.179-0.054-2.406-0.05-3.504,0.439c-1.042,0.463-1.955,1.279-2.586,2.222
			c-0.396,0.592-0.737,1.296-0.939,1.98c-0.188,0.638-0.188,0.845-0.343,1.387c0,0-0.098,0.361,0.109,0.084
			c2.647-3.538,7.192-5.058,8.728-4.429c-0.896,0.228-2.333,0.822-3.21,1.309c-3.799,2.11-7.104,5.987-7.166,5.896L591.912,447.991z
			"/>
		<g>
			<g>
				<g>
					<g>
						<g>
							<path d="M599.315,460.316h0.873c0.247,0,0.439,0.077,0.568,0.209c0.102,0.111,0.16,0.268,0.16,0.448v0.005
								c0,0.342-0.191,0.551-0.468,0.633l0.533,0.786h-0.408l-0.482-0.727h-0.005h-0.424v0.727h-0.346L599.315,460.316
								L599.315,460.316z M600.165,461.348c0.242,0,0.404-0.136,0.404-0.346v-0.008c0-0.22-0.156-0.343-0.41-0.343h-0.497v0.697
								H600.165z"/>
						</g>
						<path d="M600.094,463.449c-1.152,0-2.091-0.94-2.091-2.091c0-1.156,0.939-2.09,2.091-2.09s2.089,0.935,2.089,2.09
							C602.183,462.509,601.245,463.449,600.094,463.449z M600.094,459.618c-0.963,0-1.741,0.782-1.741,1.74
							c0,0.956,0.778,1.738,1.741,1.738c0.956,0,1.736-0.782,1.736-1.738C601.83,460.4,601.05,459.618,600.094,459.618z"/>
					</g>
					<g>
						<path d="M445,459.577h1.902c2.004,0,2.168-0.352,2.213-2.045c0.133-2.981,0.133-17.133,0-19.535
							c-0.091-1.736-0.345-2.275-1.945-2.275h-2.127v-3.159c0,0,4.931,0.134,7.778,0.134c2.848,0,7.431-0.134,7.968-0.134v3.159
							h-2.227c-1.599,0-2.271,0.578-2.358,2.315c-0.09,1.067-0.314,4.582-0.314,8.321c3.429,0.044,9.357,0.044,13.094,0
							c0-3.738-0.141-7.211-0.231-8.321c-0.133-1.736-0.845-2.315-2.447-2.315h-2.033v-3.159c0,0,4.969,0.134,7.818,0.134
							c2.848,0,7.282-0.134,7.818-0.134v3.159h-2.212c-1.599,0-2.037,0.45-2.171,2.187c-0.135,2.401-0.135,16.554,0,19.536
							c0.087,1.602,0.438,2.132,2.441,2.132h1.942v3.251c0,0-4.969-0.089-7.818-0.089c-2.848,0-7.818,0.089-7.818,0.089v-3.251
							h1.899c2.003,0,2.536-0.49,2.581-2.003c0.045-1.336,0.231-4.896,0.231-8.635c-3.737-0.044-9.665-0.044-13.094,0.046
							c0,3.738,0.27,7.253,0.314,8.589c0.087,1.513,0.446,2.003,2.492,2.003h2.093v3.251c0,0-5.12-0.089-7.968-0.089
							c-2.847,0-7.821,0.089-7.821,0.089C445.043,462.471,445.043,459.932,445,459.577z"/>
						<path d="M492.659,439.919c6.854,0,11.343,3.813,11.343,12.165c0,7.917-4.536,11.829-11.343,11.829
							c-6.953,0-11.345-3.96-11.345-11.829C481.314,443.78,485.853,439.919,492.659,439.919z M492.659,460.87
							c2.511,0,4.296-1.256,4.296-8.786c0-7.485-1.785-9.174-4.344-9.174c-2.607,0-4.246,1.69-4.246,9.174
							C488.365,459.614,490.054,460.87,492.659,460.87z"/>
						<path d="M531.291,456.753c0.093,2.316,0.276,3.151,2.35,3.151h0.628c-0.047,0.724-0.047,2.897,0,3.236
							c-0.577,0-3.205-0.145-5.571-0.145c-2.366,0-6.277,0.145-6.568,0.145v-3.236h0.773c1.737,0,2.415-0.82,2.511-3.04
							c0.098-2.269,0.098-4.779,0-7.533c-0.145-3.62-2.054-5.841-4.856-5.841c-3.378,0-4.586,2.994-4.586,9.028v4.296
							c0,2.316,0.726,3.089,2.558,3.089h0.822v3.236c-0.58,0-4.299-0.145-6.663-0.145c-2.417,0-6.015,0.226-6.354,0.226v-3.237
							h0.917c1.981-0.047,2.463-0.771,2.56-3.04c0.093-2.51,0.093-8.4,0-10.235c-0.097-1.835-0.388-2.945-2.705-2.945h-0.725v-3.089
							c2.173,0,7.707-0.081,9.589-0.227l0.033,2.667c1.039-1.905,2.728-3.593,7.404-3.195c5.721,0.486,7.888,3.548,7.794,8.954
							C531.152,451.674,531.238,454.869,531.291,456.753z"/>
						<path d="M565.648,445.517c0,1.69,1.014,2.463,6.132,3.042c6.081,0.626,8.398,3.475,8.398,7.628
							c0,4.778-2.801,7.725-8.884,7.725c-2.315,0-4.441-0.677-6.47-2.077c-1.542-1.061-1.881-0.097-2.073,1.4
							c-0.579-0.048-1.787-0.048-2.318,0c0.338-2.703,0.482-5.552,0.289-8.352c0.58,0.048,1.737,0.048,2.268,0
							c1.354,3.574,3.962,6.082,7.968,6.082c2.947,0,4.298-1.207,4.298-2.799c0-1.401-0.967-2.415-5.601-2.897
							c-6.857-0.627-8.978-4.105-8.978-7.725c0-4.49,3.715-7.772,9.412-7.626c2.319,0.048,3.768,0.675,5.068,1.545
							c1.208,0.771,1.499,0.531,1.79-1.209c0.531,0.049,1.593,0.049,2.122,0c-0.241,2.752-0.286,4.587-0.241,7.242
							c-0.577-0.097-1.689-0.097-2.269,0c-1.16-3.524-3.621-4.588-6.614-4.588C566.805,442.91,565.648,444.214,565.648,445.517z"/>
						<path d="M556.365,456.929c-0.812,4.522-3.823,6.96-9.703,6.96c-6.98,0-11.043-4.09-11.043-11.792
							c0-7.845,4.589-12.129,11.091-12.129c7.502,0,10.513,5.342,10.037,12.898h-14.341c0.144,5.538,1.721,7.558,5.07,7.558
							c3.294,0,4.399-1.382,4.924-4.078C552.922,456.345,555.841,456.929,556.365,456.929z M542.406,451.036h6.357
							c0.765,0,1.1-0.144,1.1-1.396c0-4.475-1.05-6.545-3.395-6.545C543.935,443.096,542.501,445.07,542.406,451.036z"/>
					</g>
				</g>
				<path d="M595.56,459.077c-0.082-0.032-0.143-0.062-0.179-0.076c-0.347,0.688-0.771,1.387-1.637,1.387
					c-1.303,0-1.738-1.063-1.786-5.07c-0.031-1.619-0.044-4.516-0.048-7.327l-0.002-3.138v-1.219l0.05-2.8
					c0.048-2.703,0.192-6.565,0.483-8.834h-2.705c-0.771,5.89-2.848,8.882-7.096,9.125v2.558l2.511-0.049
					c0,2.608-0.051,8.739-0.098,12.601c-0.048,4.877,1.933,7.482,6.421,7.482c3.615,0,5.27-1.695,5.834-4.264
					C596.844,459.399,596.049,459.269,595.56,459.077z"/>
			</g>
		</g>
	</g>
</g>
</svg>
