<?xml version="1.0" encoding="UTF-8" standalone="no"?>
<!-- Created with Inkscape (http://www.inkscape.org/) -->

<svg
   width="141.9225mm"
   height="131.44662mm"
   viewBox="0 0 141.9225 131.44662"
   version="1.1"
   id="svg5"
   xml:space="preserve"
   xmlns="http://www.w3.org/2000/svg"
   xmlns:svg="http://www.w3.org/2000/svg"><defs
     id="defs2"><style
       id="style129">.cls-1{fill:#fff;}.cls-2{fill:#fafafa;}.cls-3{isolation:isolate;}.cls-4{fill:#101820;mix-blend-mode:multiply;}</style></defs><g
     id="layer1"
     transform="translate(12.692679,-60.996419)"><g
       class="cls-3"
       id="g169"
       transform="matrix(0.79374999,0,0,0.79374999,-13.168929,55.28304)"><g
         id="Layer_1"><g
           id="g166"><path
             class="cls-4"
             d="m 179.4,10 c 0,-1.59 -1.33,-2.86 -2.92,-2.8 C 135.89,8.59 95.83,24.72 68.09,50.36 67.72,50.7 67.17,50.74 66.76,50.46 47.62,37.41 28.16,31.85 3.62,30.16 1.99,30.04 0.6,31.33 0.6,32.95 v 137.18 c 0,1.48 1.22,2.67 2.72,2.67 h 173.44 c 1.47,0 2.64,-1.22 2.64,-2.67 z"
             id="path136"
             style="fill:#000000" /><g
             id="g164"><path
               class="cls-1"
               d="m 64.5,80.61 c -2.45,0 -4.16,-1.65 -4.16,-4.01 0,-2.36 1.71,-4.01 4.16,-4.01 2.45,0 4.16,1.65 4.16,4.01 0,2.36 -1.71,4.01 -4.16,4.01"
               id="path138" /><path
               class="cls-1"
               d="m 121.17,102.37 c -1.39,0 -1.56,-0.98 -1.56,-1.71 V 87.21 c 0,-1.52 0,-2.73 -0.46,-3.53 -0.49,-0.84 -1.49,-1.21 -3.26,-1.21 -2.8,0 -5.63,0.91 -5.63,2.94 0,0.97 0.44,1.19 0.94,1.44 0.6,0.3 1.28,0.64 1.28,2.25 v 7.25 c 0,2.42 0,5.74 -3.16,5.74 -3.16,0 -3.08,-3.31 -3.08,-5.97 v -8.71 c 0,-3.18 0,-4.93 -3.76,-4.93 -2.8,0 -5.63,0.91 -5.63,2.94 0,0.97 0.44,1.19 0.96,1.44 0.61,0.3 1.31,0.64 1.31,2.25 V 99.8 c 0,5.06 2.22,7.74 6.41,7.74 2.54,0 4.55,-0.95 5.88,-2.84 0.41,-0.58 0.55,-0.87 0.87,-0.87 0.32,0 0.5,0.27 0.73,0.77 0.96,2.01 2.51,2.95 4.74,2.95 3.11,0 5.12,-1.45 5.12,-3.7 0,-1.09 -0.44,-1.45 -1.73,-1.45"
               id="path140" /><path
               class="cls-1"
               d="m 134.6,147.49 c -3.04,0 -3.91,-1.25 -4.67,-2.81 -0.15,-0.31 -0.35,-0.63 -0.66,-0.63 -0.25,0 -0.52,0.2 -0.87,0.64 -1.59,1.98 -3.18,2.79 -5.71,2.79 -4.92,0 -7.9,-4.64 -7.9,-12.16 0,-8.09 3.1,-12.93 8.29,-12.93 2.37,0 4.1,0.85 5.3,2.67 0.2,0.31 0.34,0.47 0.56,0.47 0.18,0 0.38,-0.12 0.38,-0.69 v -4.52 c 0,-1.46 -0.88,-1.94 -1.66,-2.36 -0.7,-0.38 -1.3,-0.7 -1.3,-1.64 0,-1.84 2.25,-2.94 6.03,-2.94 3.38,0 4.06,1.74 4.06,4.56 v 22.66 c 0,1.22 0.5,1.71 1.71,1.71 1.21,0 1.57,0.38 1.57,1.45 0,2.21 -2.06,3.7 -5.12,3.7 m -8.52,-20.02 c -2.57,0 -3.98,2.57 -3.98,7.24 0,4.67 1.48,7.57 4.18,7.57 1.88,0 3.04,-1.49 3.04,-3.9 v -7.66 c 0,-1.92 -1.33,-3.26 -3.24,-3.26"
               id="path142" /><path
               class="cls-1"
               d="m 106.65,120.59 c -2.45,0 -4.16,-1.65 -4.16,-4.01 0,-2.36 1.71,-4.01 4.16,-4.01 2.45,0 4.16,1.65 4.16,4.01 0,2.36 -1.71,4.01 -4.16,4.01"
               id="path144" /><path
               class="cls-1"
               d="m 108.5,147.49 c -3.78,0 -5.24,-1.35 -5.24,-4.5 v -13.77 c 0,-1.61 -0.66,-1.95 -1.24,-2.25 -0.49,-0.25 -0.91,-0.47 -0.91,-1.44 0,-2.03 2.77,-2.94 5.51,-2.94 3.4,0 3.76,1.39 3.76,4.56 v 13.48 c 0,1.23 0.49,1.71 1.75,1.71 1.12,0 1.53,0.39 1.53,1.45 0,2.28 -1.98,3.7 -5.16,3.7"
               id="path146" /><path
               class="cls-1"
               d="m 66.35,107.52 c -3.78,0 -5.24,-1.35 -5.24,-4.5 V 89.25 c 0,-1.61 -0.66,-1.95 -1.24,-2.25 -0.49,-0.25 -0.91,-0.47 -0.91,-1.44 0,-2.03 2.77,-2.94 5.52,-2.94 3.4,0 3.76,1.39 3.76,4.56 v 13.48 c 0,1.23 0.49,1.71 1.75,1.71 1.12,0 1.53,0.39 1.53,1.45 0,2.28 -1.98,3.7 -5.16,3.7"
               id="path148" /><path
               class="cls-1"
               d="m 96.38,147.49 c -2.68,0 -3.89,-1.45 -4.63,-2.77 -0.16,-0.29 -0.35,-0.58 -0.64,-0.58 -0.24,0 -0.52,0.2 -0.91,0.68 -1.45,1.75 -2.83,2.68 -5.58,2.68 -3.91,0 -6.34,-2.45 -6.34,-6.4 0,-5.11 4.21,-6.79 8.52,-8.09 3,-0.91 4.18,-0.8 4.18,-3.9 0,-1.97 -0.9,-3.06 -2.53,-3.06 -1.63,0 -2.62,0.99 -3.16,2.96 -0.58,2.21 -2.17,2.68 -3.41,2.68 -1.97,0 -3.06,-1.06 -3.06,-2.99 0,-1.93 1.04,-3.51 3,-4.65 1.78,-1.03 4.2,-1.6 6.81,-1.6 6.15,0 9.27,2.84 9.27,8.43 v 9.76 c 0,1.25 0.48,1.7 1.83,1.7 1.07,0 1.53,0.46 1.53,1.54 0,2.17 -1.96,3.63 -4.89,3.63 m -6.34,-11.7 c -0.28,0 -0.64,0.07 -1.11,0.21 -2.22,0.65 -3.44,1.97 -3.44,3.71 0,2 1.31,2.72 2.53,2.72 1.48,0 2.96,-0.77 2.96,-2.49 v -2.88 c 0,-0.66 -0.11,-1.27 -0.95,-1.27"
               id="path150" /><path
               class="cls-1"
               d="m 149.25,107.52 c -6.66,0 -10.48,-4.64 -10.48,-12.72 0,-7.61 4.12,-12.34 10.75,-12.34 3.01,0 5.45,0.96 7.05,2.78 1.33,1.52 2.06,3.6 2.06,5.88 0,1.4 -0.84,2.36 -2.8,3.21 l -8.31,3.65 c -0.64,0.27 -0.61,0.71 -0.53,1.02 0.46,1.97 2,3.06 4.33,3.06 1.73,0 3.36,-0.52 5.1,-1.64 0.64,-0.43 1.04,-0.6 1.42,-0.6 0.28,0 1.18,0.1 1.18,1.36 0,2.14 -2.95,6.34 -9.77,6.34 m -0.43,-20.91 c -1.99,0 -3,1.92 -3,5.71 0,0.62 0,1.91 0.97,1.91 0.23,0 0.5,-0.07 0.82,-0.22 l 1.8,-0.81 c 1.56,-0.71 2.37,-1.17 2.37,-2.85 0,-1.8 -0.93,-3.74 -2.96,-3.74"
               id="path152" /><path
               class="cls-1"
               d="m 51.75,107.52 c -4.23,0 -6.85,-0.43 -6.85,-2.54 0,-1.23 0.65,-1.58 1.4,-1.98 0.8,-0.43 1.71,-0.92 1.71,-2.63 V 85.71 c 0,-0.55 -0.27,-0.59 -0.35,-0.59 -0.19,0 -0.38,0.18 -0.48,0.44 l -5.52,14.77 c -0.68,1.78 -1.46,2.12 -2.67,2.12 -1.54,0 -2.12,-0.44 -2.79,-2.16 L 30.6,85.56 c -0.09,-0.25 -0.27,-0.4 -0.45,-0.4 -0.18,0 -0.38,0.17 -0.38,0.56 v 14.66 c 0,1.74 1.17,2.26 2.2,2.72 0.93,0.41 1.74,0.77 1.74,1.89 0,2.04 -1.29,2.54 -6.55,2.54 -4.69,0 -6.2,-0.62 -6.2,-2.54 0,-1.22 0.75,-1.57 1.62,-1.98 0.92,-0.43 1.97,-0.92 1.97,-2.63 V 81.93 c 0,-1.73 -0.87,-2.28 -1.64,-2.77 -0.69,-0.44 -1.29,-0.82 -1.29,-1.96 0,-1.97 1.64,-2.78 5.67,-2.78 6.78,0 7.72,0.22 9.08,3.95 l 3.86,10.84 c 0.13,0.35 0.29,0.43 0.4,0.43 0.11,0 0.28,-0.07 0.4,-0.43 l 3.83,-10.84 c 1.29,-3.66 2.26,-3.95 7.12,-3.95 4,0 5.94,0.91 5.94,2.78 0,1.12 -0.51,1.49 -1.1,1.92 -0.64,0.47 -1.36,1 -1.36,2.61 v 18.64 c 0,1.74 0.98,2.26 1.84,2.71 0.78,0.41 1.45,0.77 1.45,1.9 0,1.97 -1.58,2.54 -7.03,2.54"
               id="path154" /><path
               class="cls-1"
               d="m 69.99,147.49 c -4.23,0 -6.85,-0.43 -6.85,-2.54 0,-1.23 0.65,-1.58 1.4,-1.98 0.8,-0.43 1.71,-0.92 1.71,-2.63 v -14.66 c 0,-0.55 -0.27,-0.59 -0.35,-0.59 -0.19,0 -0.38,0.18 -0.48,0.44 L 59.9,140.3 c -0.68,1.78 -1.46,2.12 -2.67,2.12 -1.54,0 -2.12,-0.44 -2.79,-2.16 l -5.6,-14.73 c -0.09,-0.25 -0.27,-0.4 -0.45,-0.4 -0.18,0 -0.38,0.17 -0.38,0.56 v 14.66 c 0,1.74 1.17,2.26 2.2,2.72 0.93,0.41 1.74,0.77 1.74,1.89 0,2.04 -1.29,2.54 -6.55,2.54 -4.69,0 -6.2,-0.62 -6.2,-2.54 0,-1.22 0.75,-1.57 1.62,-1.98 0.92,-0.43 1.97,-0.92 1.97,-2.63 V 121.9 c 0,-1.73 -0.87,-2.28 -1.64,-2.77 -0.69,-0.44 -1.29,-0.82 -1.29,-1.96 0,-1.97 1.64,-2.78 5.67,-2.78 6.78,0 7.72,0.22 9.08,3.95 l 3.86,10.84 c 0.13,0.35 0.29,0.43 0.4,0.43 0.11,0 0.28,-0.07 0.4,-0.43 l 3.83,-10.84 c 1.29,-3.66 2.26,-3.95 7.12,-3.95 4,0 5.94,0.91 5.94,2.78 0,1.12 -0.51,1.49 -1.1,1.92 -0.64,0.47 -1.36,1 -1.36,2.61 v 18.64 c 0,1.74 0.98,2.26 1.84,2.71 0.78,0.41 1.45,0.77 1.45,1.9 0,1.97 -1.58,2.54 -7.03,2.54"
               id="path156" /><path
               class="cls-1"
               d="m 92.02,107.52 c -3.67,0 -5.24,-1.35 -5.24,-4.5 v -9.46 c 0,-2.36 0,-5.58 -3.08,-5.58 -2.89,0 -2.89,3.45 -2.89,5.74 v 6.25 c 0,3 0.6,3.28 0.6,4.6 0,1.96 -1.32,2.95 -4.08,2.95 -2.53,0 -3.64,-1.29 -3.64,-3.56 V 89.25 c 0,-1.61 -0.66,-1.95 -1.24,-2.25 -0.49,-0.25 -0.91,-0.47 -0.91,-1.44 0,-2.15 3.2,-2.94 5.36,-2.94 3.35,0 3.72,0.96 3.72,3.1 0,0.34 0.16,0.55 0.38,0.55 0.17,0 0.34,-0.12 0.49,-0.33 1.56,-2.4 3.56,-3.48 6.31,-3.48 3.93,0 6.1,2.74 6.1,7.7 v 10.49 c 0,1.23 0.49,1.71 1.75,1.71 1.12,0 1.53,0.39 1.53,1.45 0,2.28 -1.98,3.7 -5.16,3.7"
               id="path158" /><path
               class="cls-1"
               d="m 131.97,107.52 c -4.6,0 -6.56,-2.17 -6.56,-7.26 V 89.1 c 0,-0.78 -0.27,-1.05 -1.02,-1.05 h -0.94 c -0.83,0 -1.68,-0.29 -1.68,-2.42 0,-2 0.69,-2.85 2.31,-2.85 h 0.75 c 0.64,0 0.9,-0.27 0.9,-0.93 v -2.09 c 0,-2.6 1.6,-3.92 4.77,-3.92 1.61,0 2.03,0.6 2.03,2.94 v 3.1 c 0,0.62 0.3,0.9 0.97,0.9 h 2.54 c 1.24,0 1.79,0.56 1.79,1.81 0,1.72 -0.71,3.46 -2.29,3.46 h -1.78 c -1.04,0 -1.23,0.37 -1.23,1.42 v 8.05 c 0,2.21 0,4.29 2.31,4.29 0.62,0 0.98,-0.12 1.55,-0.12 1.02,0 1.68,0.71 1.68,1.81 0,2.18 -2.79,4.02 -6.09,4.02"
               id="path160" /></g></g></g></g></g></svg>
