<?xml version="1.0" encoding="UTF-8" standalone="no"?>
<!-- Created with Inkscape (http://www.inkscape.org/) -->

<svg
   xmlns:dc="http://purl.org/dc/elements/1.1/"
   xmlns:cc="http://creativecommons.org/ns#"
   xmlns:rdf="http://www.w3.org/1999/02/22-rdf-syntax-ns#"
   xmlns:svg="http://www.w3.org/2000/svg"
   xmlns="http://www.w3.org/2000/svg"
   xmlns:sodipodi="http://sodipodi.sourceforge.net/DTD/sodipodi-0.dtd"
   xmlns:inkscape="http://www.inkscape.org/namespaces/inkscape"
   width="614.29694mm"
   height="94.798317mm"
   viewBox="0 0 614.29694 94.798317"
   version="1.1"
   id="svg839"
   inkscape:version="0.92.5 (2060ec1f9f, 2020-04-08)"
   sodipodi:docname="ROCKSTAR-LOGO.svg">
  <defs
     id="defs833" />
  <sodipodi:namedview
     id="base"
     pagecolor="#ffffff"
     bordercolor="#666666"
     borderopacity="1.0"
     inkscape:pageopacity="0.0"
     inkscape:pageshadow="2"
     inkscape:zoom="0.62022122"
     inkscape:cx="1160.8761"
     inkscape:cy="179.14642"
     inkscape:document-units="mm"
     inkscape:current-layer="layer1"
     showgrid="false"
     fit-margin-top="0"
     fit-margin-left="0"
     fit-margin-right="0"
     fit-margin-bottom="0"
     inkscape:window-width="1920"
     inkscape:window-height="1027"
     inkscape:window-x="-8"
     inkscape:window-y="-8"
     inkscape:window-maximized="1" />
  <metadata
     id="metadata836">
    <rdf:RDF>
      <cc:Work
         rdf:about="">
        <dc:format>image/svg+xml</dc:format>
        <dc:type
           rdf:resource="http://purl.org/dc/dcmitype/StillImage" />
        <dc:title></dc:title>
      </cc:Work>
    </rdf:RDF>
  </metadata>
  <g
     inkscape:label="Layer 1"
     inkscape:groupmode="layer"
     id="layer1"
     transform="translate(199.80323,-89.338932)">
    <g
       transform="matrix(0.76445853,0,0,0.76445853,-199.80323,89.344393)"
       data-v-853d903a=""
       id="Layer_2"
       data-name="Layer 2">
      <g
         data-v-853d903a=""
         id="Layer_1-2"
         data-name="Layer 1">
        <path
           style="fill:#ce9b43"
           inkscape:connector-curvature="0"
           data-v-853d903a=""
           d="m 795.49,20.53 a 8.83,8.83 0 0 1 -3.26,-0.58 7.13,7.13 0 0 1 -2.55,-1.66 7.39,7.39 0 0 1 -1.68,-2.62 10,10 0 0 1 -0.58,-3.48 9.33,9.33 0 0 1 0.62,-3.47 7.51,7.51 0 0 1 4.27,-4.29 8.47,8.47 0 0 1 3.14,-0.58 9.14,9.14 0 0 1 3.3,0.58 6.92,6.92 0 0 1 2.53,1.66 7.55,7.55 0 0 1 1.72,2.63 10,10 0 0 1 0.57,3.47 9.34,9.34 0 0 1 -0.61,3.48 7.7,7.7 0 0 1 -1.72,2.62 7.49,7.49 0 0 1 -2.62,1.71 8.37,8.37 0 0 1 -3.13,0.53 z m 0,-1.81 a 5.86,5.86 0 0 0 4.31,-1.72 6.57,6.57 0 0 0 1.68,-4.83 6.56,6.56 0 0 0 -1.68,-4.82 5.82,5.82 0 0 0 -4.35,-1.7 5.68,5.68 0 0 0 -4.3,1.7 6.67,6.67 0 0 0 -1.64,4.82 6.68,6.68 0 0 0 1.64,4.83 5.72,5.72 0 0 0 4.3,1.72 z m -3,-10.66 h 3 a 5.54,5.54 0 0 1 1.74,0.22 2.88,2.88 0 0 1 1,0.54 1.64,1.64 0 0 1 0.5,0.77 3.09,3.09 0 0 1 0.14,0.91 2.87,2.87 0 0 1 -0.29,1.37 2.1,2.1 0 0 1 -1,0.83 l 1.7,3.32 h -2 l -1.46,-2.94 h -1.47 V 16 h -1.81 z m 3.2,3.48 c 0.67,0 1.07,-0.1 1.2,-0.31 a 1.44,1.44 0 0 0 0.19,-0.73 0.9,0.9 0 0 0 -0.27,-0.64 2,2 0 0 0 -1.35,-0.29 h -1.16 v 2 z M 770.85,12 Q 760.09,3 739.93,3 h -44.81 l -4.49,21.24 -3.18,15 L 660,39.36 654.94,3 h -36.42 l -20,36.09 -41.34,-0.09 1.94,-9.09 H 585.8 L 600.88,3 H 499 l -1.37,6.34 v 0 Q 485.49,0 463.82,0 448.43,0 437.11,4.8 a 46,46 0 0 0 -6.45,3.34 L 436,3 H 400.44 L 356.78,44.81 365.55,3 H 333.8 L 318,77.88 h -31.18 q -2.47,9.6 -7.61,14.22 -5.14,4.62 -13.21,4.63 -19.85,0 -19.85,-26.46 A 62.23,62.23 0 0 1 250,47.7 q 3.8,-9.84 10.25,-15.13 a 22.38,22.38 0 0 1 14.55,-5.29 q 15.54,0 17,18.36 L 323.39,41.5 Q 322.22,22.15 309.91,11.08 297.6,0.01 277.07,0 258.22,0 243.58,9.42 A 63.45,63.45 0 0 0 220.92,34.89 73.5,73.5 0 0 0 217.66,42.52 53.88,53.88 0 0 0 212,24.23 42.83,42.83 0 0 0 194.22,6.23 Q 182.77,0 167.22,0 A 61.94,61.94 0 0 0 132.91,9.75 65.08,65.08 0 0 0 111.18,32.87 Q 109.82,19.66 100.71,12 90,3 69.78,3 H 25 L 0,121 h 30.26 l 8.6,-40.68 H 56.55 L 68.29,121 h 32.08 L 84.83,75.24 a 43.75,43.75 0 0 0 16.94,-11.35 c -0.22,2.53 -0.36,5.09 -0.36,7.71 q 0,16.37 6.28,28.19 a 42.89,42.89 0 0 0 17.78,18 q 11.49,6.2 27,6.2 a 61.92,61.92 0 0 0 34.32,-9.76 65.3,65.3 0 0 0 23.31,-26 75.77,75.77 0 0 0 3.33,-7.7 q 2.17,18.37 12.79,29.47 13.31,14 37.28,14 22.67,0 37.46,-12.16 a 49.11,49.11 0 0 0 13.57,-17.8 l -5.7,27 h 31.75 l 7.77,-36.21 15.54,-14.39 17.86,50.56 h 33.57 l -5.25,-13.67 a 37.18,37.18 0 0 0 15.47,11.85 q 11.16,4.8 26.87,4.8 23.64,0 37.45,-11 13.81,-11 13.81,-29.85 0,-13.73 -7.94,-21.82 -7.94,-8.09 -25,-11.91 l -13.06,-3 q -6,-1.34 -8.85,-3.89 a 8.55,8.55 0 0 1 -2.89,-6.7 9,9 0 0 1 4.25,-7.81 q 4.21,-2.82 12,-2.82 c 5.52,0 9.68,1.14 12.49,3.39 2.81,2.25 4.6,5.93 5.37,11 l 30.92,-3.47 a 48.45,48.45 0 0 0 -0.88,-6.12 h 17.15 L 507.86,121 h 31.75 l 15.64,-73 26.11,22 -28.31,51.06 h 32.24 l 3,-5.71 31.15,-17.54 18,14.71 0.8,8.56 h 62.17 L 709,80.36 h 17.7 L 738.44,121 h 32.08 L 755,75.24 q 12.72,-5 19.68,-14.72 A 38.4,38.4 0 0 0 781.6,37.7 Q 781.6,21 770.85,12 Z M 75.32,51.75 q -5,4 -14.63,4 H 44.15 l 6,-28.27 h 14.51 q 15.7,0 15.71,12.73 0,7.58 -5.05,11.54 z m 105.79,23.9 Q 177,85.65 170,91.19 a 24.26,24.26 0 0 1 -15.54,5.54 q -9.6,0 -14.8,-6.61 -5.2,-6.61 -5.21,-18.85 a 59.46,59.46 0 0 1 4.14,-22.9 q 4.13,-10 11.07,-15.55 a 24.31,24.31 0 0 1 15.54,-5.54 q 9.6,0 14.81,6.62 5.21,6.62 5.2,18.85 a 59.65,59.65 0 0 1 -4.1,22.9 z m 266.34,-2.89 12.4,2.81 q 6,1.32 8.84,4 a 8.93,8.93 0 0 1 2.9,6.94 10.15,10.15 0 0 1 -4.59,8.9 q -4.63,3.15 -12.9,3.14 -9.26,0 -14.55,-4.22 c -3.53,-2.81 -5.45,-6.86 -5.79,-12.15 h -31.62 a 54.65,54.65 0 0 0 0.44,5.7 L 387.87,49.61 419.26,19.19 a 35.1,35.1 0 0 0 -5.38,19.34 q 0,13.38 8.27,21.91 8.27,8.53 25.3,12.32 z M 622.28,78 597.28,92.17 609.7,67.34 590,50.65 h 28.27 l 14.24,-27.44 3.6,27.45 30.27,0.2 -28,17 3.5,26.67 z m 48.57,39.75 -6.22,-44.88 18.13,-11.44 z M 745.47,51.8 q -5,4 -14.64,4 H 714.3 l 6,-28.27 h 14.5 q 15.72,0 15.71,12.73 0,7.53 -5.04,11.49 z"
           class="logoPath1"
           id="path2" />
      </g>
    </g>
  </g>
</svg>
