<?xml version="1.0" encoding="UTF-8" standalone="no"?>
<svg
   id="Livello_1"
   data-name="Livello 1"
   viewBox="0 0 765.35803 218.22406"
   version="1.1"
   width="765.35803"
   height="218.22406"
   xmlns="http://www.w3.org/2000/svg"
   xmlns:svg="http://www.w3.org/2000/svg">
  <defs
     id="defs1">
    <style
       id="style1">
      .cls-1, .cls-2 {
        fill: #fff;
      }

      .cls-1 {
        fill-rule: evenodd;
      }

      .cls-3 {
        fill: #e40520;
      }
    </style>
  </defs>
  <g
     id="g13"
     transform="translate(0.003)">
    <path
       class="cls-1"
       d="m 797.738,211.274 a 5.757,5.757 0 1 0 5.768,5.732 5.739,5.739 0 0 0 -5.768,-5.732 z m 5.146,5.732 a 5.139,5.139 0 1 1 -5.146,-5.106 5.159,5.159 0 0 1 5.146,5.106 z m -6.328,-2.856 v 2.312 a 3.721,3.721 0 0 0 0.7,0.055 1.988,1.988 0 0 0 1.266,-0.293 1.085,1.085 0 0 0 0.4,-0.993 0.946,0.946 0 0 0 -0.422,-0.875 2.955,2.955 0 0 0 -1.372,-0.25 c -0.078,0 -0.289,0.017 -0.572,0.044 z m 2.953,6.246 -1.9,-3.067 c -0.248,0 -0.576,0 -1.055,-0.048 v 3.119 h -0.977 v -7.119 c 0.035,0 0.28,-0.01 0.747,-0.026 a 7.616,7.616 0 0 1 1.037,-0.062 c 1.731,0 2.6,0.691 2.6,2.06 a 1.98,1.98 0 0 1 -0.427,1.194 1.825,1.825 0 0 1 -0.965,0.677 l 2.06,3.276 z"
       transform="translate(-38.275,-76.892)"
       id="path1" />
    <path
       class="cls-2"
       d="m 750.486,262.936 a 16.063,16.063 0 0 1 -3.243,-16.436 16.327,16.327 0 0 1 9.849,-10.13 c 4.975,-2.078 11.716,-0.863 16.028,2.644 -5.555,-2.2 -11.607,-2.129 -16.115,0.606 -7.9,4.318 -8.961,11.978 -8.139,18.355 a 22.3,22.3 0 0 0 1.62,4.961 z m -4.554,22.124 c -13.954,-7.616 -20.876,-22.41 -18.881,-38.343 1.479,-12.775 11.279,-24.879 23,-29.388 8.22,-3 15.388,-2.726 23.5,-0.222 13.05,4.042 23.27,17.516 24.148,31.408 0.9,14.135 -4.348,26.49 -15.915,34.548 -9.741,7.414 -25.408,8.064 -35.852,1.997 z m -2.381,-27.8 c 1.92,7.192 8.275,13.906 15.673,14.612 7.836,1.092 15.631,-2.269 19.561,-9.459 3.906,-5.83 3.278,-14.8 0,-20.608 -2.6,-3.6 -6.274,-7.648 -10.449,-8.537 -7.394,-2.652 -15.671,0 -21.093,6.26 -3.437,4.965 -5.423,11.49 -3.692,17.732 z m 60.065,-4.542 c -0.264,-9.778 -4.356,-21.737 -12.609,-27.635 11.116,11.5 12.34,31.5 6.583,44.3 -7.633,16.88 -26.547,29.105 -51.289,19.685 7.9,6.824 20.547,6.6 30.365,3.665 17.084,-5.084 27.398,-22.814 26.95,-40.015 z"
       transform="translate(-38.275,-76.892)"
       id="path2"
       style="fill:#062251;fill-opacity:1" />
    <path
       class="cls-2"
       d="M 713.237,223.071 V 281.4 c -0.081,4.955 3.109,6.5 3.109,6.5 h -19.4 l -20.139,-33.935 v 27.4 c 0,8.054 6.66,12.473 6.66,12.473 H 656.54 c 0,0 -3.691,-2.763 -3.691,-2.778 h 24.469 c 0,0 -3.379,-3.195 -3.379,-9.695 V 248.8 l -3.25,-5.478 V 281.4 c 0,4.918 3.25,6.5 3.25,6.5 h -22.553 c 0,0 3,-1.586 3,-6.5 l -0.057,-58.324 c 0,-5.1 -3.127,-6.548 -3.176,-6.535 h 22.578 l 23.169,36.34 0.047,-5.3 -16.947,-28.7 4.186,1.144 12.714,21.267 v -18.257 c 0,-5.011 -3.017,-6.5 -3.017,-6.5 h 22.489 c 0,0 -3.135,1.39 -3.135,6.536 z m 3.42,58.227 c 0,6.486 3.148,9.765 3.148,9.765 h -21.18 c 0,0.011 3.715,2.778 3.715,2.778 h 23.617 c 0,0 -6.427,-4.491 -6.427,-12.543 v -55.319 c 0,-4.218 2.18,-4.664 2.18,-4.664 l -2.741,-1.254 c 0,0 -2.312,0.6 -2.312,5.1 z"
       transform="translate(-38.275,-76.892)"
       id="path3"
       style="fill:#062251;fill-opacity:1" />
    <path
       class="cls-2"
       d="m 614.151,216.536 h 22.442 c 0,0 -3.207,1.488 -3.207,6.3 v 58.535 c 0,4.988 3.465,6.531 3.465,6.531 h -22.663 c 0,0 3.057,-1.586 3.057,-6.531 v -58.333 c -0.053,-5.064 -3.094,-6.502 -3.094,-6.502 z m 23.24,64.762 c 0,6.486 2.492,9.765 2.492,9.765 H 616 c 0,0.011 3.72,2.778 3.72,2.778 h 26.932 c 0,0 -6.443,-4.491 -6.443,-12.543 v -55.456 c 0,-3.923 1.837,-4.423 1.837,-4.423 l -2.4,-1.494 c 0,0 -2.259,0.6 -2.259,5.1 z"
       transform="translate(-38.275,-76.892)"
       id="path4"
       style="fill:#062251;fill-opacity:1" />
    <path
       class="cls-2"
       d="m 604.289,278.306 c -1.982,0.169 -4.1,0.186 -5.607,-2.15 -5.579,-8.547 -9.521,-13.506 -15.741,-18.518 a 17.294,17.294 0 0 0 6.928,-4 c 5.827,-5.616 8,-13.463 6.482,-21.558 -1.7,-7.365 -9.223,-15.523 -16.428,-15.543 h -42.556 c 0,0 3.054,1.389 3.054,6.535 V 281.4 c 0,4.918 -3.107,6.5 -3.107,6.5 h 22.459 c 0,0 -3.081,-1.543 -3.081,-6.531 l -0.011,-21.225 h 10.329 c 5.423,0 11.736,14.113 15.427,21.492 3.437,5.945 10.218,8.195 16.686,6.78 a 8.251,8.251 0 0 0 5.648,-5.614 c 0.289,-1.271 0.612,-3.345 -0.482,-4.496 z m -30.85,-34.981 H 562.82 v -5.563 l 15.05,-0.033 a 2.679,2.679 0 0 0 -2.761,-2.66 H 560 l 0.011,8.256 h -3.342 v -11.482 h 16.951 c 5.787,0 7.229,2.491 7.229,5.925 0,1.355 -0.69,5.557 -7.41,5.557 z m 28.921,-10.569 a 24,24 0 0 1 -9.384,25.991 c 3.7,2.635 7.373,10.5 10.757,14.929 l 1.389,1.5 c -3.887,1.795 -6.735,-4.5 -11.944,-11.921 a 34.233,34.233 0 0 0 -4.547,-4.9 c 8.014,-5.4 12.9,-13.708 11.684,-24.853 -0.493,-4.406 -4.41,-10.708 -7.019,-13.635 4.12,1.393 8.062,9.082 9.064,12.889 z m 7.2,49.749 A 10,10 0 0 1 604.782,292 c -4.672,2.588 -11.057,2.707 -15.149,-1.392 4.3,1.392 11.482,1.833 15.3,-2 a 11.385,11.385 0 0 0 3.046,-8.857 3.153,3.153 0 0 1 1.581,2.754 z m -46.725,-1.141 c 0,8.055 6.43,12.477 6.43,12.477 h -26.931 c 0,0 -3.715,-2.763 -3.715,-2.778 h 24.471 c 0,0 -3.087,-3.2 -3.087,-9.7 v -17.929 c 0.1,0 5.448,0 5.448,0 2.79,0 3.847,0.531 4.867,2.64 h -7.5 z"
       transform="translate(-38.275,-76.892)"
       id="path5"
       style="fill:#062251;fill-opacity:1" />
    <path
       class="cls-2"
       d="m 481.929,239.95 c -6.057,3.915 -7.923,10.85 -6.975,17.954 0.614,4.377 3.289,7.644 6.1,11.022 -4.925,-2.928 -8.754,-8.768 -9.073,-14.338 -0.356,-6.2 1.026,-11.452 5.759,-15.875 4.731,-4.658 12.515,-5.882 18.668,-4.6 5.142,1.064 8.089,4.082 8.869,6.14 l 10.83,-18.936 v 0 a 7.036,7.036 0 0 1 -3.25,0.158 c -1.248,-0.41 -10.94,-5.291 -16.961,-6 -15.049,-1.771 -27.237,4.162 -35.383,15.225 -7.974,12.649 -7.889,33.176 1.378,44.844 8.44,10.6 22.8,15.643 37.176,13.25 12.588,-2.1 21.935,-18.932 26.662,-20.863 a 27.421,27.421 0 0 1 -1.185,-4.41 c 0,0 -0.165,-2.572 -0.165,-5.325 a 51,51 0 0 1 0.3,-5.533 c 0,-2.407 1.79,-3.006 3.063,-3.876 -0.077,0.016 -22.454,-0.076 -22.446,-0.039 1.778,0.98 2.918,1.507 2.965,3.825 0,0 0.03,7.939 0.016,8.014 a 11.093,11.093 0 0 1 -1.432,3.652 15.744,15.744 0 0 1 -12.594,7.971 13.937,13.937 0 0 1 -11.27,-3.752 19.766,19.766 0 0 1 -5.034,-18.519 13.992,13.992 0 0 1 10.453,-10.18 c 7.35,-1.571 15.435,0.114 20.232,6.787 l 11.449,-21.008 -1.156,-2.4 -10.8,19.181 c -0.05,0.004 -12.383,-11.302 -26.196,-2.369 z m 50.3,30.725 c -9.253,4.93 -14.562,16.761 -24.32,21.35 -10.519,4.938 -26.723,4.041 -33.511,-3.278 7.506,3.8 13.129,3.806 17.843,3.934 6.07,0.131 10.489,-1.31 15.866,-4.1 8.007,-4.111 14.054,-15.484 20.763,-19.239 a 27.962,27.962 0 0 1 -1.561,-7.548 l -0.026,-5.812 c 0,-4.494 2.838,-5.563 2.838,-5.563 l 2.291,1.4 c 0,0 -2.232,0.546 -2.232,4.642 a 31,31 0 0 0 2.05,14.214 z"
       transform="translate(-38.275,-76.892)"
       id="path6"
       style="fill:#062251;fill-opacity:1" />
    <path
       class="cls-2"
       d="m 433.565,271.727 -20.213,-0.041 V 265.1 l 10.694,-0.027 c 3.18,0 9.754,2.625 11.989,6.675 l 0.075,-29.97 -3.068,-1.881 v 25.839 a 19.4,19.4 0 0 0 -2.894,-2.005 13.16,13.16 0 0 0 -5.436,-1.3 h -14.188 v 9.256 h -3.28 v -12.48 h 16.277 a 6.12,6.12 0 0 1 6.368,3.856 l -0.042,-25.284 a 12.056,12.056 0 0 1 -0.71,1.277 c -2.146,3.507 -4.563,3.089 -4.563,3.089 h -11.238 v -4.413 l 14.9,0.012 c 8.079,0 11.3,2.039 16.641,6.735 0,-0.007 0.4,0.446 0.4,0.446 l -5.52,-24.377 -3.178,-1.964 4.468,19.656 c -3.028,-2.457 -7.295,-3.215 -12.856,-3.171 h -17.653 v 7.076 h -3.288 v -10.32 h 21.256 c 3.224,0 6.243,0.205 8.412,2.146 l -3.845,-17.435 H 387.89 c 0,0 3.063,1.488 3.063,6.455 l -0.027,58.4 c 0,4.918 -3.1,6.5 -3.1,6.5 h 54.332 l 6.419,-19.912 c -4.698,3.669 -9.377,3.748 -15.012,3.748 z m 19.723,0.817 -6.649,21.3 h -53.557 l -3.694,-2.778 h 55.317 l 6.663,-20.384 z"
       transform="translate(-38.275,-76.892)"
       id="path7"
       style="fill:#062251;fill-opacity:1" />
    <path
       class="cls-2"
       d="m 380.8,268.2 -6.4,19.7 h -49.744 c 0,0 3.1,-1.586 3.1,-6.5 v -58.329 c 0,-5.014 -3.057,-6.535 -3.057,-6.535 h 22.466 c 0,0 -3.134,1.488 -3.134,6.3 v 48.853 h 3.29 v -46.968 c 0,-4.509 1.97,-5 1.97,-5 l 2.5,1.5 c 0,0 -1.609,0.148 -1.609,4.383 v 46.086 h 20.32 c 6.268,0 9.66,-2.978 10.223,-3.521 a 0.731,0.731 0 0 0 0.075,0.031 z m 2.811,2.757 -6.611,20.106 h -50.774 l 3.7,2.778 h 48.82 l 6.8,-21.139 z"
       transform="translate(-38.275,-76.892)"
       id="path8"
       style="fill:#062251;fill-opacity:1" />
    <path
       class="cls-2"
       d="m 317.052,268.2 -6.386,19.7 h -49.747 c 0,0 3.081,-1.587 3.081,-6.5 v -58.329 c 0,-5.014 -3.034,-6.535 -3.034,-6.535 H 283.4 c 0,0 -3.113,1.488 -3.113,6.3 l 0.01,48.853 h 3.267 v -46.968 c 0,-4.509 1.962,-5 1.962,-5 l 2.5,1.5 c 0,0 -1.611,0.148 -1.611,4.383 v 46.086 h 20.318 c 6.293,0 9.665,-2.978 10.245,-3.521 0.022,0.012 0.054,0.016 0.074,0.031 z m 2.823,2.757 -6.612,20.108 h -50.788 l 3.715,2.778 h 48.818 l 6.8,-21.139 z"
       transform="translate(-38.275,-76.892)"
       id="path9"
       style="fill:#062251;fill-opacity:1" />
    <path
       class="cls-2"
       d="m 237.569,271.727 -20.228,-0.041 V 265.1 l 10.7,-0.027 c 3.19,0 9.751,2.625 11.981,6.675 l 0.1,-29.97 -3.068,-1.881 v 25.839 a 19.733,19.733 0 0 0 -2.9,-2.005 13.219,13.219 0 0 0 -5.442,-1.3 h -14.183 v 9.256 h -3.279 v -12.48 h 16.279 a 6.581,6.581 0 0 1 6.364,4.381 l -0.048,-25.809 a 11.1,11.1 0 0 1 -0.7,1.277 c -2.149,3.507 -4.569,3.089 -4.569,3.089 h -11.245 v -4.413 l 14.9,0.012 c 8.089,0 11.32,2.039 16.641,6.735 0.013,-0.007 0.409,0.446 0.409,0.446 l -5.47,-24.2 -3.18,-1.973 4.4,19.489 c -3.02,-2.457 -7.276,-3.215 -12.831,-3.171 h -17.66 v 7.076 h -3.28 v -10.32 h 21.24 c 3.237,0 6.259,0.205 8.432,2.146 l -3.846,-17.435 h -45.198 c 0,0 3.051,1.488 3.051,6.455 l -0.019,58.4 c 0,4.918 -3.083,6.5 -3.083,6.5 h 54.333 l 6.418,-19.912 c -4.688,3.668 -9.404,3.747 -15.019,3.747 z m 19.711,0.817 -6.637,21.3 h -53.554 l -3.7,-2.778 h 55.314 l 6.665,-20.384 z"
       transform="translate(-38.275,-76.892)"
       id="path10"
       style="fill:#062251;fill-opacity:1" />
    <path
       class="cls-2"
       d="m 182.591,231.862 c -1.953,-6.515 -5.8,-15.326 -19.69,-15.326 h -38.323 c 0,0 3.124,1.438 3.124,6.5 V 281.4 c -0.007,4.865 -3.168,6.5 -3.139,6.5 0,0.015 0,-0.011 0,0 h 22.507 c 0,0 -3.04,-1.586 -3.04,-6.5 v -21.242 c 0.029,0 16.939,-0.028 16.978,0 6.454,0 12.571,-2.014 17.3,-6.908 4.715,-4.869 6.632,-13.528 4.283,-21.388 z m -32.47,49.538 c 0,8.075 6.459,12.436 6.459,12.436 h -26.918 c 0,0 -3.713,-2.763 -3.713,-2.778 h 24.456 c 0,0 -3.077,-3.14 -3.077,-9.658 v -17.97 c 0,0 11.578,0.021 11.6,0.014 5.731,0 9.756,-0.386 14.764,-2.772 a 23.614,23.614 0 0 0 13,-21.718 25.359,25.359 0 0 0 -7.116,-18.033 c 0.017,-0.006 0.019,0.047 0.037,0.036 7.177,4.421 9.808,12.587 9.47,21.165 -0.362,8.72 -5.005,16.029 -13.153,20.483 -4.508,2.444 -10.3,3.453 -18.127,3.453 l -7.685,-0.011 z m 10.431,-37.865 h -10.431 v -5.778 l 14.864,0.013 a 2.721,2.721 0 0 0 -2.763,-2.706 h -14.894 v 8.471 h -3.292 v -11.7 h 16.7 c 5.778,0 7.228,2.581 7.228,6.023 0.003,1.687 -0.691,5.682 -7.412,5.682 z"
       transform="translate(-38.275,-76.892)"
       id="path11"
       style="fill:#062251;fill-opacity:1" />
    <path
       class="cls-2"
       d="m 113.02,284.5 a 8.086,8.086 0 0 1 -2.738,5.388 8.23,8.23 0 0 1 -5.39,1.773 c -1.546,0 -4.521,-0.564 -5.375,-1.694 a 0.087,0.087 0 0 1 0.014,-0.027 c 0.285,0.13 5.468,2.057 9.44,-1.935 3.433,-3.431 2.95,-8.632 2.981,-8.614 a 9.422,9.422 0 0 1 1.068,5.109 z m -11.865,-13.7 a 8.674,8.674 0 1 0 8.6,8.674 8.63,8.63 0 0 0 -8.6,-8.668 z"
       transform="translate(-38.275,-76.892)"
       id="path12"
       style="fill:#062251;fill-opacity:1" />
    <path
       class="cls-2"
       d="m 68.145,268.68 -0.036,0.1 c -5.13,-6.616 -15.073,-5.374 -19.38,-13.157 0.019,-0.013 0.029,-0.026 0.042,-0.035 6.371,4.683 16.543,4.089 19.374,13.092 z m 21.2,-5.231 c 0.595,1.855 0.4,5.9 0.311,7.625 a 23.546,23.546 0 0 1 -2.732,9.631 c -5.069,8.91 -14.313,13.142 -26.11,11.055 -3.948,-0.693 -10.183,-3.152 -11.406,-3.152 a 2.791,2.791 0 0 0 -2.454,1.589 l 1.544,1.156 a 1.8,1.8 0 0 1 2.009,-0.66 c 3.836,1.076 7.833,2.734 11.787,3.376 6.508,1.1 12.262,0.331 17.948,-3.121 4.91,-2.981 9.4,-7.731 10.531,-13.563 A 22.418,22.418 0 0 0 89.344,263.449 Z M 90.7,249.908 c -1.059,-0.736 -9.035,-5.355 -13.034,-7.469 -4.434,-2.474 -13.215,-5.988 -15.132,-5.691 -1.94,0.313 -2.573,2.107 -1.053,3.371 10.058,5.177 24.338,9.487 25.426,23.531 1.33,9.23 -2.347,17.837 -9.768,22.614 -5.218,3.338 -11.289,3.125 -17.133,1.936 -4.044,-0.84 -12.75,-5.658 -15.006,0.064 l -0.081,0.259 a 0.067,0.067 0 0 1 -0.03,0.011 c -0.266,-0.842 -6.446,-25.884 -6.617,-26.632 a 0.1,0.1 0 0 0 0.038,-0.021 c 1.008,0.742 19.6,14.774 29.17,9.666 a 5.829,5.829 0 0 0 2.149,-5.632 c -0.176,-2.96 -2.856,-5.067 -5.386,-6.368 -8.939,-4.574 -22.1,-7.69 -24.256,-20.162 a 19.441,19.441 0 0 1 8.041,-20.324 19.89,19.89 0 0 1 6.3,-2.881 c 3.362,-0.859 6.845,-0.152 10.12,0.792 1.639,0.485 3.251,1.048 4.864,1.526 1.613,0.478 3.335,1.5 5.079,1.266 1.613,-0.218 2.916,-1.4 4.236,-2.247 l 5.648,25.709 c 1.45,0.961 3.153,1.872 3.153,1.872 l -5.444,-25.493 c 0.027,-0.017 2.721,1.726 2.721,1.726 z m -28.924,-15.5 c 3.265,-0.562 16.7,5.451 22.143,8.717 -0.493,-0.54 -2.261,-2.492 -2.922,-3.151 a 25.271,25.271 0 0 0 -4.986,-3.928 40.852,40.852 0 0 0 -10.832,-4.087 c -1.8,-0.4 -4.472,-0.83 -6.155,0.043 -2.275,1.218 -2.365,2.663 -2.225,4.044 a 4.907,4.907 0 0 0 2.849,3.172 3.089,3.089 0 0 1 -0.706,-1.611 c -0.332,-1.715 0.847,-2.843 2.837,-3.197 z"
       transform="translate(-38.275,-76.892)"
       id="path13"
       style="fill:#062251;fill-opacity:1" />
  </g>
  <g
     id="g15"
     transform="translate(0.003)">
    <polygon
       class="cls-3"
       points="449.088,48.238 408.047,78.067 423.716,126.316 382.666,96.497 341.615,126.316 357.294,78.067 316.251,48.238 366.994,48.238 382.666,0 398.337,48.238 "
       id="polygon13" />
    <polygon
       class="cls-2"
       points="436.654,52.283 403.291,76.53 416.037,115.738 382.666,91.5 349.309,115.738 362.046,76.53 328.685,52.283 369.931,52.283 382.666,13.073 395.408,52.283 "
       id="polygon14" />
    <polygon
       class="cls-3"
       points="426.16,55.697 399.291,75.215 409.552,106.83 382.666,87.299 355.785,106.83 366.05,75.215 339.173,55.697 372.405,55.697 382.666,24.079 392.936,55.697 "
       id="polygon15" />
  </g>
</svg>
