<?xml version="1.0" encoding="UTF-8" standalone="no"?>
<svg
   xmlns="http://www.w3.org/2000/svg"
   viewBox="0 0 999.99998 123.36192"
   width="1000"
   height="123.36192">
  <path
     id="path946"
     style="fill:#75a7ad;stroke-width:6.41440916"
     d="m 579.85619,81.01399 c 0,14.894258 -13.71401,26.06174 -32.0079,26.06174 -19.6281,0 -33.57302,-9.794798 -35.97843,-26.523578 h 18.2041 c 2.54124,6.894541 9.48481,11.141374 16.78009,10.263055 9.12771,0 14.5543,-3.880718 14.5543,-9.621614 0,-17.799986 -47.90281,-3.406051 -47.90281,-34.868729 0,-14.393935 12.00777,-25.401061 31.30873,-25.401061 18.05015,0 30.85331,9.191849 33.57943,24.766034 h -19.15984 c -1.28288,-4.778735 -5.46507,-9.037902 -14.75314,-9.037902 -7.44713,0 -12.6877,3.207204 -12.6877,8.46702 0,16.754437 48.10807,1.359855 48.10807,35.920692 M 606.84161,1.45607 H 588.5413 v 74.054356 c 0,20.263119 11.76403,31.430604 29.40365,31.430604 3.33221,0.0244 6.645,-0.50911 9.80122,-1.57794 V 88.967857 c -1.86464,0.764707 -3.86717,1.135947 -5.88201,1.09045 -8.52629,1.084824 -15.85476,-6.024689 -15.02897,-14.579953 V 39.455032 h 20.91098 V 22.668522 H 606.79671 Z M 178.53867,44.054163 c 0,-7.498444 7.05585,-13.341971 17.42795,-13.341971 9.30411,-0.783615 17.57601,5.896671 18.76856,15.157249 h 10.05138 c -0.92188,-14.934998 -13.95548,-26.184442 -28.86484,-24.913566 -13.93851,0 -27.4665,8.094985 -27.4665,23.213747 0,31.918101 48.19787,15.837177 48.19787,38.435141 0,6.658157 -5.89484,14.714655 -19.24323,14.714655 -10.57095,0 -20.52611,-5.946157 -20.52611,-16.709536 h -10.06421 c 0,15.926978 13.21369,26.497928 30.62239,26.497928 19.41642,0 29.26895,-12.681291 29.26895,-24.470975 0,-33.463973 -48.19145,-17.543409 -48.19145,-38.557014 M 501.87621,22.700594 v 82.630426 h -9.95516 V 91.039711 c -7.78301,10.374809 -20.10038,16.348319 -33.06628,16.036019 -23.8175,0.17884 -43.12376,-19.263512 -42.77769,-43.079168 -0.34606,-23.815658 18.96019,-43.257985 42.77769,-43.079173 12.9659,-0.312299 25.28327,5.661212 33.06628,16.036023 v -14.28489 z m -9.89743,41.302382 c 0.40539,-18.355025 -14.4314,-33.418187 -32.79046,-33.290784 -43.77157,0.60763 -43.77157,65.967523 0,66.575154 18.35906,0.12739 33.19584,-14.93576 32.79046,-33.290784 M 409.188,1.43041 v 103.91343 h -9.95516 V 91.039711 c -7.78231,10.375659 -20.10016,16.349399 -33.06628,16.036019 -23.81751,0.17884 -43.12377,-19.263512 -42.7777,-43.079168 -0.34606,-23.815658 18.96019,-43.257985 42.7777,-43.079173 12.96612,-0.313376 25.28397,5.660364 33.06628,16.036023 V 1.43041 Z m -9.92309,62.572566 c 0.40539,-18.355025 -14.4314,-33.418187 -32.79046,-33.290784 -43.77157,0.60763 -43.77157,65.967523 0,66.575154 18.35906,0.12739 33.19584,-14.93576 32.79046,-33.290784 m 446.14783,-41.32804 h 17.5434 v 82.662498 h -17.5434 v -8.479854 c -7.26516,6.777584 -16.89184,10.446844 -26.82506,10.224564 -23.62774,-0.0455 -42.62747,-19.455848 -42.16833,-43.079168 -0.45927,-23.62332 18.54059,-43.033423 42.16833,-43.079173 9.92957,-0.228533 19.55548,3.431258 26.82506,10.19891 z m 0.59654,41.32804 c 0.2957,-14.556618 -11.59546,-26.42711 -26.15155,-26.106646 -34.27174,0.537187 -34.27174,51.682518 0,52.219706 14.55609,0.320464 26.44699,-11.550029 26.15155,-26.106646 m -527.95079,0 c 0,38.382114 -46.40224,57.596984 -73.53921,30.460029 -27.13696,-27.136961 -7.92208,-73.539202 30.46003,-73.539202 23.87499,-0.201611 43.28079,19.204192 43.07918,43.079173 m -10.16684,0 C 307.55551,34.772854 272.12674,20.45788 251.57746,41.24345 c -20.54928,20.785569 -5.8302,56.04838 23.40185,56.05031 18.26307,-0.148185 32.97296,-15.027216 32.91234,-33.290784 M 685.73243,21.026434 c -11.0054,-1.176946 -21.77666,3.741447 -28.09511,12.828818 v -11.18673 h -17.48568 v 82.662498 h 18.13353 V 71.482177 c -0.24246,-5.377917 0.18859,-10.765026 1.28288,-16.036023 3.41042,-11.304894 14.49901,-18.482889 26.20928,-16.966113 z m 84.79208,42.976542 c -0.005,2.118153 -0.13406,4.234203 -0.38487,6.337436 h -66.48535 c 1.97153,11.834329 12.43786,20.35473 24.42607,19.884669 8.15951,0.955048 16.15822,-2.782314 20.66081,-9.653686 h 19.79487 c -6.08381,16.850019 -22.57173,27.651095 -40.44927,26.497925 -23.99572,0.29282 -43.60483,-19.078448 -43.60483,-43.075966 0,-23.997517 19.60911,-43.368787 43.60483,-43.075965 23.99721,-0.737143 43.55153,19.094745 42.47622,43.079173 m -66.31216,-8.749255 h 47.02403 C 749.04284,44.397316 739.0703,36.915152 728.02904,37.806528 716.98446,37.338289 707.08888,44.583497 704.19951,55.253722 m 295.762,-0.885189 c 0,-17.723013 -10.67357,-33.44473 -31.23176,-33.44473 -10.89205,-0.513672 -21.34401,4.344429 -27.97323,13.002008 -5.07323,-8.171606 -14.04493,-13.101291 -23.66276,-13.002008 -9.33252,-0.284671 -18.32584,3.511709 -24.63133,10.397758 v -8.653039 h -17.69094 v 82.662498 h 18.29389 V 60.237718 c -0.13983,-3.527351 0.29378,-7.054016 1.28288,-10.442659 2.41695,-7.037398 9.05061,-11.751392 16.49145,-11.719125 12.01419,0 17.42154,7.735777 17.42154,19.461317 v 47.793769 h 18.29389 V 60.122258 c -0.13149,-3.489032 0.30148,-6.976389 1.28288,-10.327199 2.41092,-7.019494 9.01815,-11.72939 16.44013,-11.719125 12.01419,0 17.42154,7.735777 17.42154,19.461317 V 105.33102 H 1000 Z" />
  <path
     style="fill:#75a7ad;stroke-width:6.41440916"
     d="M 0,61.68096 A 61.68096,61.68096 0 1 1 61.68096,123.36192 61.68096,61.68096 0 0 1 0,61.68096 m 107.83264,9.570299 q 0.0449,-1.25081 0.0449,-2.565764 A 47.088179,47.088179 0 0 0 61.57833,19.81411 c -16.388816,0 -28.492807,7.806336 -28.492807,19.55112 0,6.414409 3.848646,13.739665 16.677465,13.739665 8.582479,0 14.438835,-2.847998 24.945637,-2.847998 A 34.830243,34.830243 0 0 1 107.86471,71.257673 M 90.289226,84.028762 c 0,-6.414409 -3.848646,-13.739665 -16.677465,-13.739665 -8.582479,0 -14.438835,2.847998 -24.945637,2.847998 A 34.830243,34.830243 0 0 1 15.522871,52.110661 q -0.03849,1.25081 -0.03849,2.565764 a 47.088179,47.088179 0 0 0 46.312035,48.884215 c 16.388816,0 28.492807,-7.806338 28.492807,-19.551121 M 84.561158,112.5344 A 30.725021,30.725021 0 0 0 104.19567,84.028762 27.755149,27.755149 0 0 0 74.689382,56.158153 c -9.846118,0 -15.587014,2.847998 -24.945638,2.847998 -16.11941,0.0064 -22.610793,-9.923091 -22.610793,-19.647336 0,-14.599195 13.816638,-25.484448 34.445379,-25.484448 A 53.021508,53.021508 0 0 1 113.82369,68.691909 61.033105,61.033105 0 0 1 111.16813,87.383498 55.766875,55.766875 0 0 0 38.794348,10.833937 30.725021,30.725021 0 0 0 19.159841,39.3075 27.755149,27.755149 0 0 0 48.666124,67.178109 c 9.846118,0 15.587014,-2.847998 24.945637,-2.847998 16.119411,-0.0064 22.604379,9.942334 22.604379,19.698651 0,14.599196 -13.816638,25.484448 -34.426135,25.484448 A 53.021508,53.021508 0 0 1 9.5510555,54.663596 61.033105,61.033105 0 0 1 12.187378,35.972007 55.773289,55.773289 0 0 0 84.561158,112.52798"/>
</svg>
