<?xml version="1.0" encoding="UTF-8" standalone="no"?>
<svg
   xmlns:dc="http://purl.org/dc/elements/1.1/"
   xmlns:cc="http://creativecommons.org/ns#"
   xmlns:rdf="http://www.w3.org/1999/02/22-rdf-syntax-ns#"
   xmlns:svg="http://www.w3.org/2000/svg"
   xmlns="http://www.w3.org/2000/svg"
   xmlns:xlink="http://www.w3.org/1999/xlink"
   xmlns:sodipodi="http://sodipodi.sourceforge.net/DTD/sodipodi-0.dtd"
   xmlns:inkscape="http://www.inkscape.org/namespaces/inkscape"
   viewBox="0 0 737.95721 131.49614"
   height="131.49614"
   width="737.95721"
   xml:space="preserve"
   id="svg2"
   version="1.1"
   sodipodi:docname="Crest.svg"
   inkscape:version="0.92.4 (5da689c313, 2019-01-14)"><sodipodi:namedview
     pagecolor="#ffffff"
     bordercolor="#666666"
     borderopacity="1"
     objecttolerance="10"
     gridtolerance="10"
     guidetolerance="10"
     inkscape:pageopacity="0"
     inkscape:pageshadow="2"
     inkscape:window-width="1366"
     inkscape:window-height="745"
     id="namedview64"
     showgrid="false"
     fit-margin-top="0"
     fit-margin-left="0"
     fit-margin-right="0"
     fit-margin-bottom="0"
     inkscape:zoom="0.53250002"
     inkscape:cx="243.45833"
     inkscape:cy="-176.44432"
     inkscape:window-x="-8"
     inkscape:window-y="-8"
     inkscape:window-maximized="1"
     inkscape:current-layer="g1463" /><metadata
     id="metadata8"><rdf:RDF><cc:Work
         rdf:about=""><dc:format>image/svg+xml</dc:format><dc:type
           rdf:resource="http://purl.org/dc/dcmitype/StillImage" /><dc:title></dc:title></cc:Work></rdf:RDF></metadata><defs
     id="defs6"><linearGradient
       inkscape:collect="always"
       id="linearGradient1469"><stop
         style="stop-color:#214478;stop-opacity:1"
         offset="0"
         id="stop1465" /><stop
         style="stop-color:#55ddff;stop-opacity:1"
         offset="1"
         id="stop1467" /></linearGradient><clipPath
       id="clipPath20"
       clipPathUnits="userSpaceOnUse"><path
         id="path18"
         d="M 3999.96,0.0390625 H 0 V 1390 H 3999.96 V 0.0390625 M 3638.88,506.559 c -25.92,0 -46.98,-20.969 -46.98,-46.981 0,-25.918 21.06,-46.887 46.98,-46.887 25.92,0 46.98,20.969 46.98,46.887 0,26.012 -21.06,46.981 -46.98,46.981 m 0.54,-87.481 c -11.16,0 -20.61,3.961 -28.44,11.793 -7.83,7.828 -11.79,17.277 -11.79,28.438 0,11.07 3.96,20.519 11.79,28.351 7.83,7.828 17.28,11.699 28.44,11.699 11.07,0 20.52,-3.871 28.35,-11.699 7.83,-7.832 11.79,-17.281 11.79,-28.351 0,-11.161 -3.96,-20.61 -11.79,-28.438 -7.83,-7.832 -17.28,-11.793 -28.35,-11.793 m 0,75.242 c -9.63,0 -17.82,-3.422 -24.57,-10.261 -6.84,-6.84 -10.17,-15.118 -10.17,-24.75 0,-9.719 3.33,-18 10.17,-24.84 6.75,-6.84 14.94,-10.258 24.57,-10.258 9.54,0 17.73,3.418 24.48,10.258 6.84,6.84 10.26,15.121 10.26,24.84 0,9.632 -3.42,17.91 -10.26,24.75 -6.75,6.839 -14.94,10.261 -24.48,10.261 m 23.04,-55.531 h -10.53 l -13.05,16.563 h -5.67 v -16.563 h -7.74 v 42.57 h 12.87 c 2.97,0 5.22,-0.179 6.93,-0.359 1.71,-0.27 3.33,-0.898 5.13,-1.801 1.8,-1.078 3.15,-2.34 4.05,-3.777 0.81,-1.531 1.17,-3.422 1.17,-5.762 0,-3.058 -0.81,-5.582 -2.52,-7.558 -1.71,-1.981 -3.87,-3.512 -6.66,-4.68 l 16.02,-18.633 m -29.25,36.723 v -14.313 h 4.5 c 1.44,0 2.88,0.18 4.14,0.449 1.26,0.274 2.34,0.813 3.15,1.442 0.81,0.719 1.35,1.531 1.71,2.519 0.36,0.903 0.54,2.071 0.54,3.512 0,1.168 -0.18,2.16 -0.54,2.969 -0.36,0.808 -0.99,1.621 -1.89,2.16 -0.81,0.449 -1.71,0.809 -2.61,0.988 -0.99,0.184 -2.25,0.274 -3.69,0.274 h -5.31"
         inkscape:connector-curvature="0" /></clipPath><clipPath
       id="clipPath32"
       clipPathUnits="userSpaceOnUse"><path
         id="path30"
         d="m 3638.88,412.691 c -25.92,0 -46.98,20.969 -46.98,46.887 0,26.012 21.06,46.981 46.98,46.981 25.92,0 46.98,-20.969 46.98,-46.981 0,-25.918 -21.06,-46.887 -46.98,-46.887 m 0.54,86.668 c -11.16,0 -20.61,-3.871 -28.44,-11.699 -7.83,-7.832 -11.79,-17.281 -11.79,-28.351 0,-11.161 3.96,-20.61 11.79,-28.438 7.83,-7.832 17.28,-11.793 28.44,-11.793 11.07,0 20.52,3.961 28.35,11.793 7.83,7.828 11.79,17.277 11.79,28.438 0,11.07 -3.96,20.519 -11.79,28.351 -7.83,7.828 -17.28,11.699 -28.35,11.699 m 0,-75.148 c -9.63,0 -17.82,3.418 -24.57,10.258 -6.84,6.84 -10.17,15.121 -10.17,24.84 0,9.632 3.33,17.91 10.17,24.75 6.75,6.839 14.94,10.261 24.57,10.261 9.54,0 17.73,-3.422 24.48,-10.261 6.84,-6.84 10.26,-15.118 10.26,-24.75 0,-9.719 -3.42,-18 -10.26,-24.84 -6.75,-6.84 -14.94,-10.258 -24.48,-10.258 m -6.21,31.141 h 5.67 l 13.05,-16.563 h 10.53 l -16.02,18.633 c 2.79,1.168 4.95,2.699 6.66,4.68 1.71,1.976 2.52,4.5 2.52,7.558 0,2.34 -0.36,4.231 -1.17,5.762 -0.9,1.437 -2.25,2.699 -4.05,3.777 -1.8,0.903 -3.42,1.531 -5.13,1.801 -1.71,0.18 -3.96,0.359 -6.93,0.359 h -12.87 v -42.57 h 7.74 v 16.563 m 4.5,5.847 h -4.5 v 14.313 h 5.31 c 1.44,0 2.7,-0.09 3.69,-0.274 0.9,-0.179 1.8,-0.539 2.61,-0.988 0.9,-0.539 1.53,-1.352 1.89,-2.16 0.36,-0.809 0.54,-1.801 0.54,-2.969 0,-1.441 -0.18,-2.609 -0.54,-3.512 -0.36,-0.988 -0.9,-1.8 -1.71,-2.519 -0.81,-0.629 -1.89,-1.168 -3.15,-1.442 -1.26,-0.269 -2.7,-0.449 -4.14,-0.449"
         inkscape:connector-curvature="0" /></clipPath><clipPath
       id="clipPath44"
       clipPathUnits="userSpaceOnUse"><path
         id="path42"
         d="M 1361.04,938.191 1257.3,842.195 C 1158.77,882.18 840.078,879.988 805.691,690.469 792.227,442.363 1151.13,561.316 1172.13,567.617 l 72.27,-104.238 c 6.78,1.465 -338.06,-73.77 -584.263,-37.168 -137.957,20.519 -262.582,102.566 -237.555,241.23 61.231,337.359 773.778,344.109 938.458,270.75 z"
         inkscape:connector-curvature="0" /></clipPath><linearGradient
       id="linearGradient52"
       spreadMethod="pad"
       gradientTransform="matrix(-2.46e-5,-562.495,-562.495,2.46e-5,890.2,975.859)"
       gradientUnits="userSpaceOnUse"
       y2="0"
       x2="1"
       y1="0"
       x1="0"><stop
         id="stop46"
         offset="0"
         style="stop-opacity:1;stop-color:#ea222d" /><stop
         id="stop48"
         offset="0.21978"
         style="stop-opacity:1;stop-color:#ea222d" /><stop
         id="stop50"
         offset="1"
         style="stop-opacity:1;stop-color:#741623" /></linearGradient><clipPath
       id="clipPath62"
       clipPathUnits="userSpaceOnUse"><path
         id="path60"
         d="m 1416.12,805.84 261.6,-0.215 -18.57,-50.801 h 10.92 c 5.42,12.832 107.13,106.082 288.34,31.399 -39.09,-39.27 -82.14,-72.219 -121.28,-111.477 -202.28,9.668 -214.84,20.293 -288.49,-247.883 l -266.02,-0.652 z"
         inkscape:connector-curvature="0" /></clipPath><linearGradient
       id="linearGradient70"
       spreadMethod="pad"
       gradientTransform="matrix(-1.71e-5,-392.238,-392.238,1.71e-5,1620.52,780.278)"
       gradientUnits="userSpaceOnUse"
       y2="0"
       x2="1"
       y1="0"
       x1="0"><stop
         id="stop64"
         offset="0"
         style="stop-opacity:1;stop-color:#48a7e2" /><stop
         id="stop66"
         offset="0.417582"
         style="stop-opacity:1;stop-color:#48a7e2" /><stop
         id="stop68"
         offset="1"
         style="stop-opacity:1;stop-color:#256bb6" /></linearGradient><clipPath
       id="clipPath80"
       clipPathUnits="userSpaceOnUse"><path
         id="path78"
         d="m 2123.38,664.309 c 32.81,105.828 220.35,110.879 218.22,60.027 -3.28,-78.777 -218.22,-60.027 -218.22,-60.027 z m 433.43,53.679 c -11.84,187.989 -799.86,97.727 -705.3,-180.808 77.91,-229.481 618.61,-63.008 634.8,-58.645 l -57.29,60.391 c 0,0 -322.84,-91.328 -314.79,50.215 81.83,5.175 447.72,15.918 442.58,128.847 z"
         inkscape:connector-curvature="0" /></clipPath><linearGradient
       id="linearGradient88"
       spreadMethod="pad"
       gradientTransform="matrix(-1.76e-5,-403.33,-403.33,1.76e-5,2200.25,818.896)"
       gradientUnits="userSpaceOnUse"
       y2="0"
       x2="1"
       y1="0"
       x1="0"><stop
         id="stop82"
         offset="0"
         style="stop-opacity:1;stop-color:#48a7e2" /><stop
         id="stop84"
         offset="0.510989"
         style="stop-opacity:1;stop-color:#48a7e2" /><stop
         id="stop86"
         offset="1"
         style="stop-opacity:1;stop-color:#256bb6" /></linearGradient><clipPath
       id="clipPath98"
       clipPathUnits="userSpaceOnUse"><path
         id="path96"
         d="m 2606.73,693.027 c -17.47,163.782 500.32,112.356 500.32,112.356 l -25.49,-71.86 c 0,0 -198.59,12.395 -213.75,-14.109 -38.9,-68.027 187.17,-101.328 170.11,-207.539 -11.6,-72.473 -168.97,-94.551 -264.23,-94.492 -137.69,0.019 -286.56,22.422 -286.56,22.422 l 59.53,81.347 c -22.67,7.989 193.18,-69.687 226.58,1.348 22.17,47.234 -157.63,87.246 -166.51,170.527 z"
         inkscape:connector-curvature="0" /></clipPath><linearGradient
       id="linearGradient106"
       spreadMethod="pad"
       gradientTransform="matrix(-1.78e-5,-406.665,-406.665,1.78e-5,2797.09,815.562)"
       gradientUnits="userSpaceOnUse"
       y2="0"
       x2="1"
       y1="0"
       x1="0"><stop
         id="stop100"
         offset="0"
         style="stop-opacity:1;stop-color:#48a7e2" /><stop
         id="stop102"
         offset="0.373626"
         style="stop-opacity:1;stop-color:#48a7e2" /><stop
         id="stop104"
         offset="1"
         style="stop-opacity:1;stop-color:#256bb6" /></linearGradient><clipPath
       id="clipPath116"
       clipPathUnits="userSpaceOnUse"><path
         id="path114"
         d="m 3460.24,734.336 h 100.43 l 27.17,70.176 -106.07,-0.086 34.44,92.383 -260.17,0.269 -34.54,-92.566 -94.98,-0.176 -25.44,-70.078 96.94,0.078 C 3145.23,620.664 3069.5,464.52 3175.4,424.16 c 89.97,-34.32 286.11,10.742 286.11,10.742 l 35.45,74.903 c -27.25,-11.082 -86.41,-16.883 -95.43,5.371 -22.66,49.375 38.6,174.433 38.6,174.433 z"
         inkscape:connector-curvature="0" /></clipPath><linearGradient
       id="linearGradient124"
       spreadMethod="pad"
       gradientTransform="matrix(-2.13e-5,-486.665,-486.665,2.13e-5,3344.46,895.566)"
       gradientUnits="userSpaceOnUse"
       y2="0"
       x2="1"
       y1="0"
       x1="0"><stop
         id="stop118"
         offset="0"
         style="stop-opacity:1;stop-color:#48a7e2" /><stop
         id="stop120"
         offset="0.505494"
         style="stop-opacity:1;stop-color:#48a7e2" /><stop
         id="stop122"
         offset="1"
         style="stop-opacity:1;stop-color:#256bb6" /></linearGradient><linearGradient
       inkscape:collect="always"
       xlink:href="#linearGradient1469"
       id="linearGradient1471"
       x1="2208.2415"
       y1="280.67444"
       x2="2238.9126"
       y2="1054.9718"
       gradientUnits="userSpaceOnUse" /><linearGradient
       inkscape:collect="always"
       xlink:href="#linearGradient1469"
       id="linearGradient2078"
       gradientUnits="userSpaceOnUse"
       x1="2208.2415"
       y1="280.67444"
       x2="2238.9126"
       y2="1098.7999" /></defs><g
     transform="matrix(1.3333333,0,0,-1.3333333,101.83203,158.22309)"
     id="g10"><g
       transform="scale(0.1)"
       id="g12"><g
         id="g14"><g
           clip-path="url(#clipPath20)"
           id="g16" /></g><g
         id="g38"
         transform="matrix(1.7112307,0,0,1.7112307,-1425.021,-493.28291)"><g
           clip-path="url(#clipPath44)"
           id="g40"><path
             id="path54"
             style="fill:url(#linearGradient52);fill-opacity:1;fill-rule:nonzero;stroke:none"
             d="M 1361.04,938.191 1257.3,842.195 C 1158.77,882.18 840.078,879.988 805.691,690.469 792.227,442.363 1151.13,561.316 1172.13,567.617 l 72.27,-104.238 c 6.78,1.465 -338.06,-73.77 -584.263,-37.168 -137.957,20.519 -262.582,102.566 -237.555,241.23 61.231,337.359 773.778,344.109 938.458,270.75"
             inkscape:connector-curvature="0" /></g></g><g
         id="g1463"
         style="fill:url(#linearGradient1471);fill-opacity:1"><g
           transform="matrix(1.7112307,0,0,1.7112307,-1425.021,-493.28291)"
           style="fill:url(#linearGradient1471);fill-opacity:1"
           id="g56"><g
             style="fill:url(#linearGradient1471);fill-opacity:1"
             id="g58"
             clip-path="url(#clipPath62)"><path
               inkscape:connector-curvature="0"
               d="m 1416.12,805.84 261.6,-0.215 -18.57,-50.801 h 10.92 c 5.42,12.832 107.13,106.082 288.34,31.399 -39.09,-39.27 -82.14,-72.219 -121.28,-111.477 -202.28,9.668 -214.84,20.293 -288.49,-247.883 l -266.02,-0.652 133.5,379.629"
               style="fill:url(#linearGradient1471);fill-opacity:1;fill-rule:nonzero;stroke:none"
               id="path72" /></g></g><g
           transform="matrix(1.7112307,0,0,1.7112307,-1425.021,-493.28291)"
           style="fill:url(#linearGradient1471);fill-opacity:1"
           id="g74"><g
             style="fill:url(#linearGradient1471);fill-opacity:1"
             id="g76"
             clip-path="url(#clipPath80)"><path
               inkscape:connector-curvature="0"
               d="m 2123.38,664.309 c 32.81,105.828 220.35,110.879 218.22,60.027 -3.28,-78.777 -218.22,-60.027 -218.22,-60.027 z m 433.43,53.679 c -11.84,187.989 -799.86,97.727 -705.3,-180.808 77.91,-229.481 618.61,-63.008 634.8,-58.645 l -57.29,60.391 c 0,0 -322.84,-91.328 -314.79,50.215 81.83,5.175 447.72,15.918 442.58,128.847"
               style="fill:url(#linearGradient1471);fill-opacity:1;fill-rule:nonzero;stroke:none"
               id="path90" /></g></g><g
           transform="matrix(1.7112307,0,0,1.7112307,-1425.021,-493.28291)"
           style="fill:url(#linearGradient1471);fill-opacity:1"
           id="g92"><g
             style="fill:url(#linearGradient1471);fill-opacity:1"
             id="g94"
             clip-path="url(#clipPath98)"><path
               inkscape:connector-curvature="0"
               d="m 2606.73,693.027 c -17.47,163.782 500.32,112.356 500.32,112.356 l -25.49,-71.86 c 0,0 -198.59,12.395 -213.75,-14.109 -38.9,-68.027 187.17,-101.328 170.11,-207.539 -11.6,-72.473 -168.97,-94.551 -264.23,-94.492 -137.69,0.019 -286.56,22.422 -286.56,22.422 l 59.53,81.347 c -22.67,7.989 193.18,-69.687 226.58,1.348 22.17,47.234 -157.63,87.246 -166.51,170.527"
               style="fill:url(#linearGradient1471);fill-opacity:1;fill-rule:nonzero;stroke:none"
               id="path108" /></g></g><g
           transform="matrix(1.7112307,0,0,1.7112307,-1425.021,-493.28291)"
           style="fill:url(#linearGradient2078);fill-opacity:1"
           id="g110"><g
             style="fill:url(#linearGradient1471);fill-opacity:1"
             id="g112"
             clip-path="url(#clipPath116)"><path
               inkscape:connector-curvature="0"
               d="m 3460.24,734.336 h 100.43 l 27.17,70.176 -106.07,-0.086 34.44,92.383 -260.17,0.269 -34.54,-92.566 -94.98,-0.176 -25.44,-70.078 96.94,0.078 C 3145.23,620.664 3069.5,464.52 3175.4,424.16 c 89.97,-34.32 286.11,10.742 286.11,10.742 l 35.45,74.903 c -27.25,-11.082 -86.41,-16.883 -95.43,5.371 -22.66,49.375 38.6,174.433 38.6,174.433 l 20.11,44.727"
               style="fill:url(#linearGradient1471);fill-opacity:1;fill-rule:nonzero;stroke:none"
               id="path126" /></g></g></g></g></g></svg>