<?xml version="1.0" encoding="utf-8"?>
<!-- Generator: Adobe Illustrator 15.1.0, SVG Export Plug-In . SVG Version: 6.00 Build 0)  -->
<!DOCTYPE svg PUBLIC "-//W3C//DTD SVG 1.0//EN" "http://www.w3.org/TR/2001/REC-SVG-20010904/DTD/svg10.dtd">
<svg version="1.0" id="Layer_1" xmlns="http://www.w3.org/2000/svg" xmlns:xlink="http://www.w3.org/1999/xlink" x="0px" y="0px"
	 width="200px" height="78.11px" viewBox="0 0 200 78.11" enable-background="new 0 0 200 78.11" xml:space="preserve">
<path fill="#C62127" d="M161.94,0C183.464,0,200,18.782,200,39.032c0,20.245-16.521,39.014-38.06,39.027L37.709,78.11
	C16.185,78.11,0,59.335,0,39.085C0,18.825,16.185,0,37.709,0H161.94z"/>
<path fill="#FFFFFF" d="M26.026,25.571c0-1.698,1.537-3.099,3.344-3.099c1.853,0,3.351,1.496,3.351,3.344v26.981
	c0,1.85-1.498,3.346-3.351,3.346c-1.844,0-3.344-1.496-3.344-3.346V25.571z"/>
<path fill="#FFFFFF" d="M34.899,35.752c0,0,10.979-12.089,11.035-12.147c1.245-1.23,3.263-1.286,4.581-0.097
	c1.382,1.245,1.494,3.355,0.255,4.735l-6.922,7.732c0,0,7.824,4.718,7.824,10.088v6.756c0,1.547-1.38,3.324-3.376,3.324
	c-1.844,0-3.353-1.496-3.353-3.346l-0.011-4.727c0-1.052-1.47-6.721-7.764-6.721c-1.794,0-3.246-1.462-3.246-3.261
	C33.923,37.525,34.03,36.709,34.899,35.752"/>
<path fill="#FFFFFF" d="M96.643,28.645h-5.706c-1.7,0-3.11-1.533-3.11-3.359c0-1.831,1.505-3.342,3.349-3.342h17.897
	c1.848,0,3.344,1.511,3.344,3.342c0,1.863-1.502,3.359-3.351,3.359h-5.727l0.013,24.152c0,1.85-1.509,3.346-3.355,3.346
	c-1.844,0-3.355-1.496-3.355-3.346V28.645z"/>
<path fill="#FFFFFF" d="M147.701,25.277c0-1.693,1.494-3.104,3.304-3.104h12.368c5.098,0,9.214,4.136,9.214,9.247
	c0,4.452-3.091,6.92-3.091,6.92s4.48,5.01,4.48,7.513v6.966c0,2.322-1.419,3.324-3.137,3.324c-1.842,0-3.426-1.496-3.426-3.344
	v-4.729c0-0.996-1.977-5.328-4.881-5.891c-2.164-0.421-3.269-1.609-3.269-3.389c0-1.38,0.472-2.2,2.206-3.093
	c1.992-1.041,4.104-2.05,4.104-4.04c0-1.713-1.354-3.112-3.074-3.112h-8.236v24.253c0,1.858-1.423,3.344-3.26,3.344
	c-1.853,0-3.304-1.496-3.304-3.344V25.277z"/>
<path fill="#FFFFFF" d="M130.86,43.056c-1.207,1.279-3.094,1.267-4.39,0.056c-1.357-1.26-1.467-3.428-0.17-4.741l8.215-8.382
	c0,0-2.153-1.504-5.446-1.504c-5.775,0-10.47,4.688-10.47,10.47c0,5.779,4.694,10.475,10.47,10.475c4.083,0,7.609-2.342,9.342-5.742
	c0.74-1.229,1.812-1.914,3.039-1.914c2.739,0,4.012,2.885,2.924,4.771c-3.61,6.274-8.659,9.683-15.474,9.683
	c-9.485,0-17.168-7.685-17.168-17.172c0-9.483,7.683-17.17,17.168-17.17c5.795,0,10.36,2.314,13.454,6.669
	c0.807,1.129-0.46,2.866-0.786,3.205C141.568,31.759,130.907,43.056,130.86,43.056"/>
<path fill="#FFFFFF" d="M73.867,43.056c-1.204,1.279-3.086,1.267-4.39,0.056c-1.35-1.26-1.458-3.428-0.154-4.741l8.21-8.382
	c0,0-2.166-1.504-5.45-1.504c-5.78,0-10.466,4.688-10.466,10.47c0,5.779,4.684,10.475,10.466,10.475
	c4.078,0,7.613-2.342,9.335-5.742c0.749-1.229,1.82-1.914,3.05-1.914c2.732,0,4.012,2.885,2.928,4.771
	c-3.621,6.274-8.672,9.683-15.485,9.683c-9.479,0-17.174-7.685-17.174-17.172c0-9.483,7.695-17.17,17.174-17.17
	c5.798,0,10.361,2.314,13.465,6.669c0.805,1.129-0.483,2.866-0.801,3.205C84.575,31.759,73.929,43.056,73.867,43.056"/>
</svg>
