<?xml version="1.0" encoding="UTF-8" standalone="no"?>
<svg
   xmlns:dc="http://purl.org/dc/elements/1.1/"
   xmlns:cc="http://creativecommons.org/ns#"
   xmlns:rdf="http://www.w3.org/1999/02/22-rdf-syntax-ns#"
   xmlns:svg="http://www.w3.org/2000/svg"
   xmlns="http://www.w3.org/2000/svg"
   viewBox="0 0 888.38135 806.448"
   height="301"
   width="331"
   xml:space="preserve"
   id="svg2"
   version="1.1"><metadata
     id="metadata8"><rdf:RDF><cc:Work
         rdf:about=""><dc:format>image/svg+xml</dc:format><dc:type
           rdf:resource="http://purl.org/dc/dcmitype/StillImage" /></cc:Work></rdf:RDF></metadata><defs
     id="defs6"><clipPath
       id="clipPath18"
       clipPathUnits="userSpaceOnUse"><path
         id="path16"
         d="m 193.774,603.408 c 0,0 -291.016,-37.196 -159.772,-385.379 v 0 c 0,0 66.694,-147.763 167.26,-218.023 v 0 c 0,0 274.981,-4.133 420.249,202.512 v 0 c 0,0 44.651,59.903 44.774,134.383 v 0 0.63 c -0.075,43.993 -15.74,93.021 -65.311,137.757 v 0 c 0,0 -79.412,60.616 -186.867,22.731 v 0 c 0,0 -42.331,106.815 -190.015,106.816 v 0 c -9.652,10e-4 -19.749,-0.456 -30.318,-1.427" /></clipPath><linearGradient
       id="linearGradient40"
       spreadMethod="pad"
       gradientTransform="matrix(739.68262,404.04626,404.04626,-739.68262,-98.298607,109.63904)"
       gradientUnits="userSpaceOnUse"
       y2="0"
       x2="1"
       y1="0"
       x1="0"><stop
         id="stop24"
         offset="0"
         style="stop-opacity:1;stop-color:#d5890e" /><stop
         id="stop26"
         offset="0.161128"
         style="stop-opacity:1;stop-color:#e6e62a" /><stop
         id="stop28"
         offset="0.327534"
         style="stop-opacity:1;stop-color:#d58e0f" /><stop
         id="stop30"
         offset="0.5"
         style="stop-opacity:1;stop-color:#e6ec2d" /><stop
         id="stop32"
         offset="0.597742"
         style="stop-opacity:1;stop-color:#e2db26" /><stop
         id="stop34"
         offset="0.718864"
         style="stop-opacity:1;stop-color:#d6940f" /><stop
         id="stop36"
         offset="0.86774"
         style="stop-opacity:1;stop-color:#e4de27" /><stop
         id="stop38"
         offset="1"
         style="stop-opacity:1;stop-color:#d48a0e" /></linearGradient><clipPath
       id="clipPath50"
       clipPathUnits="userSpaceOnUse"><path
         id="path48"
         d="M 0,604.836 H 666.286 V 0 H 0 Z" /></clipPath></defs><g
     transform="matrix(1.3333333,0,0,-1.3333333,0,806.448)"
     id="g10"><g
       id="g12"><g
         clip-path="url(#clipPath18)"
         id="g14"><g
           id="g20"><g
             id="g22"><path
               id="path42"
               style="fill:url(#linearGradient40);stroke:none"
               d="m 193.774,603.408 c 0,0 -291.016,-37.196 -159.772,-385.379 v 0 c 0,0 66.694,-147.763 167.26,-218.023 v 0 c 0,0 274.981,-4.133 420.249,202.512 v 0 c 0,0 44.651,59.903 44.774,134.383 v 0 0.63 c -0.075,43.993 -15.74,93.021 -65.311,137.757 v 0 c 0,0 -79.412,60.616 -186.867,22.731 v 0 c 0,0 -42.331,106.815 -190.015,106.816 v 0 c -9.652,10e-4 -19.749,-0.456 -30.318,-1.427" /></g></g></g></g><g
       id="g44"><g
         clip-path="url(#clipPath50)"
         id="g46"><g
           transform="translate(402.9643,481.1079)"
           id="g52"><path
             id="path54"
             style="fill:#f8d20a;fill-opacity:1;fill-rule:nonzero;stroke:none"
             d="m 0,0 c 0,0 -27.087,96.814 -190.336,96.814 0,0 -266.916,-2.755 -163.594,-351.296 0,0 45.882,-137.763 155.194,-208.021 0,0 376.572,18.597 422.722,279.658 0,0 27.192,99.288 -61.734,161.856 0,0 -56.297,48.851 -162.252,20.989" /></g><g
           transform="translate(274.0565,513.5776)"
           id="g56"><path
             id="path58"
             style="fill:#1f4331;fill-opacity:1;fill-rule:evenodd;stroke:none"
             d="m 0,0 c 0,1.68 -1.357,3.042 -3.036,3.042 l -4.499,0.002 c -1.681,0 -3.038,-1.369 -3.038,-3.05 l 0.003,-47.051 c 0,-1.682 1.356,-3.045 3.038,-3.045 h 4.498 c 1.679,0 3.034,1.37 3.034,3.049 z" /></g><g
           transform="translate(279.7929,512.3267)"
           id="g60"><path
             id="path62"
             style="fill:#1f4331;fill-opacity:1;fill-rule:evenodd;stroke:none"
             d="m 0,0 -0.001,-2.237 c 0,-0.926 0.754,-1.673 1.682,-1.673 h 31.038 c 1.416,0 2.563,1.144 2.563,2.558 l 0.001,3.79 c 0,1.416 -1.162,2.696 -2.57,2.558 0,0 -30,-2.944 -30.968,-3.051 C 0.627,1.817 0,0.928 0,0" /></g><g
           transform="translate(254.6659,463.4741)"
           id="g64"><path
             id="path66"
             style="fill:#1f4331;fill-opacity:1;fill-rule:evenodd;stroke:none"
             d="M 0,0 C -7.721,0 -12.581,5.854 -12.581,12.373 L -12.587,31.2 h -2.21 c -1.178,0 -2.132,0.95 -2.132,2.128 v 3.151 c 0,1.178 0.958,2.124 2.135,2.124 l 2.207,-0.003 -0.003,11.575 c 0,1.639 1.321,2.969 2.96,2.969 h 4.386 c 1.639,0 2.963,-1.339 2.963,-2.978 L -2.279,38.6 h 6.84 c 1.18,0 2.138,-0.945 2.138,-2.123 v -3.151 c 0,-1.178 -0.955,-2.128 -2.133,-2.128 L -2.279,31.2 -2.274,13.787 c 0,-3.421 2.071,-5.754 5.775,-5.754 l 0.622,0.005 c 1.278,0 2.319,-1.031 2.319,-2.307 V 2.308 C 6.442,1.028 5.406,0 4.126,0 Z" /></g><g
           transform="translate(182.3593,495.375)"
           id="g68"><path
             id="path70"
             style="fill:#1f4331;fill-opacity:1;fill-rule:evenodd;stroke:none"
             d="M 0,0 C 4.607,0 8.584,-3.278 8.988,-7.714 H -8.92 C -8.518,-3.278 -4.608,0 0,0 m 0,8.055 c -12.481,0 -19.482,-9.765 -19.482,-20.06 0,-10.969 7.498,-20.627 19.564,-20.627 8.258,0 16.398,4.351 17.937,11.499 0.207,0.963 -0.442,2.227 -1.801,2.232 h -5.9 c -1.071,0 -1.948,-0.513 -2.475,-1.287 -1.687,-2.476 -4.162,-3.793 -7.819,-3.793 -5.168,0 -8.751,4.072 -9.021,8.588 h 25.095 c 2.311,0 3.343,1.256 3.343,3.39 C 19.441,-1.967 13.5,8.055 0,8.055" /></g><g
           transform="translate(296.7079,495.375)"
           id="g72"><path
             id="path74"
             style="fill:#1f4331;fill-opacity:1;fill-rule:evenodd;stroke:none"
             d="M 0,0 C 4.608,0 8.585,-3.278 8.989,-7.714 H -8.919 C -8.516,-3.278 -4.608,0 0,0 m 0,8.055 c -12.481,0 -19.481,-9.765 -19.481,-20.06 0,-10.969 7.499,-20.627 19.562,-20.627 8.259,0 16.4,4.351 17.939,11.499 0.209,0.963 -0.443,2.227 -1.8,2.232 h -5.901 c -1.07,0 -1.948,-0.513 -2.474,-1.287 -1.688,-2.476 -4.163,-3.793 -7.821,-3.793 -5.167,0 -8.75,4.072 -9.021,8.588 H 16.1 c 2.309,0 3.341,1.256 3.341,3.39 C 19.441,-1.967 13.5,8.055 0,8.055" /></g><g
           transform="translate(233.6376,516.0913)"
           id="g76"><path
             id="path78"
             style="fill:#1f4331;fill-opacity:1;fill-rule:evenodd;stroke:none"
             d="m 0,0 h -81.286 c -1.849,0 -3.34,-1.499 -3.34,-3.345 l 0.28,-31.926 c 0,0 -17.517,31.638 -18.43,33.252 -0.858,1.521 -2.702,2.918 -5.254,2.918 h -6.685 c -1.848,0 -3.345,-1.497 -3.345,-3.348 l 0.003,-46.816 c 0,-1.849 1.495,-3.35 3.344,-3.35 h 4.287 c 1.849,0 3.341,1.51 3.341,3.356 l -0.269,32.82 c 0,0 17.686,-31.954 18.441,-33.212 1.02,-1.702 2.747,-2.964 5.249,-2.964 h 6.142 c 1.848,0 3.342,1.501 3.342,3.35 l -0.003,41.332 74.186,-0.002 c 1.263,0 2.286,1.017 2.286,2.279 v 3.377 C 2.289,-1.017 1.262,0 0,0" /></g><g
           transform="translate(220.4814,495.7676)"
           id="g80"><path
             id="path82"
             style="fill:#1f4331;fill-opacity:1;fill-rule:evenodd;stroke:none"
             d="m 0,0 c 3.534,0 6.177,-1.285 7.13,-3.5 0.457,-1.063 1.342,-1.269 2.56,-1.269 h 4.859 c 0.805,0 1.727,0.692 1.727,1.743 0,5.649 -6.737,10.695 -16.282,10.695 -9.869,0 -16.352,-4.703 -16.352,-12.194 0,-5.73 4.528,-9.14 10.096,-10.596 2.537,-0.662 6.869,-1.733 8.98,-2.288 2.275,-0.595 4.307,-1.292 4.307,-3.238 0,-3.076 -3.241,-4.122 -6.779,-4.122 -3.354,0 -6.694,1.497 -7.652,3.89 -0.554,1.384 -1.526,1.586 -2.998,1.586 h -4.944 c -0.861,0 -1.854,-0.741 -1.854,-1.865 v -0.638 c 0,-5.469 7.336,-11.196 17.456,-11.196 7.176,0 17.175,2.985 17.175,12.608 0,5.573 -3.729,9.433 -9.798,10.974 -2.372,0.603 -8.078,2.055 -9.318,2.376 -2.211,0.571 -4.275,1.291 -4.275,3.187 C -5.962,-0.977 -3.31,0 0,0" /></g><g
           transform="translate(274.0565,513.5776)"
           id="g84"><path
             id="path86"
             style="fill:#1f4331;fill-opacity:1;fill-rule:evenodd;stroke:none"
             d="m 0,0 c 0,1.68 -1.357,3.042 -3.036,3.042 l -4.499,0.002 c -1.681,0 -3.038,-1.369 -3.038,-3.05 l 0.003,-47.051 c 0,-1.682 1.356,-3.045 3.038,-3.045 h 4.498 c 1.679,0 3.034,1.37 3.034,3.049 z" /></g><g
           transform="translate(279.7929,512.3267)"
           id="g88"><path
             id="path90"
             style="fill:#1f4331;fill-opacity:1;fill-rule:evenodd;stroke:none"
             d="m 0,0 -0.001,-2.237 c 0,-0.926 0.754,-1.673 1.682,-1.673 h 31.038 c 1.416,0 2.563,1.144 2.563,2.558 l 0.001,3.79 c 0,1.416 -1.162,2.696 -2.57,2.558 0,0 -30,-2.944 -30.968,-3.051 C 0.627,1.817 0,0.928 0,0" /></g><g
           transform="translate(254.6659,463.4741)"
           id="g92"><path
             id="path94"
             style="fill:#1f4331;fill-opacity:1;fill-rule:evenodd;stroke:none"
             d="M 0,0 C -7.721,0 -12.581,5.854 -12.581,12.373 L -12.587,31.2 h -2.21 c -1.178,0 -2.132,0.95 -2.132,2.128 v 3.151 c 0,1.178 0.958,2.124 2.135,2.124 l 2.207,-0.003 -0.003,11.575 c 0,1.639 1.321,2.969 2.96,2.969 h 4.386 c 1.639,0 2.963,-1.339 2.963,-2.978 L -2.279,38.6 h 6.84 c 1.18,0 2.138,-0.945 2.138,-2.123 v -3.151 c 0,-1.178 -0.955,-2.128 -2.133,-2.128 L -2.279,31.2 -2.274,13.787 c 0,-3.421 2.071,-5.754 5.775,-5.754 l 0.622,0.005 c 1.278,0 2.319,-1.031 2.319,-2.307 V 2.308 C 6.442,1.028 5.406,0 4.126,0 Z" /></g><g
           transform="translate(173.4394,487.6606)"
           id="g96"><path
             id="path98"
             style="fill:#1f4331;fill-opacity:1;fill-rule:evenodd;stroke:none"
             d="m 0,0 c 0.402,4.436 4.312,7.714 8.92,7.714 4.607,0 8.584,-3.278 8.988,-7.714 z m 28.361,-4.289 c 0,10.036 -5.941,20.059 -19.441,20.059 -12.482,0 -19.483,-9.766 -19.483,-20.061 0,-10.968 7.499,-20.627 19.564,-20.627 8.259,0 16.399,4.351 17.937,11.499 0.208,0.963 -0.441,2.228 -1.8,2.232 h -5.9 c -1.071,0 -1.948,-0.513 -2.475,-1.287 -1.687,-2.475 -4.162,-3.793 -7.819,-3.793 -5.168,0 -8.751,4.072 -9.021,8.588 h 25.095 c 2.311,0 3.343,1.256 3.343,3.39" /></g><g
           transform="translate(287.789,487.6606)"
           id="g100"><path
             id="path102"
             style="fill:#1f4331;fill-opacity:1;fill-rule:evenodd;stroke:none"
             d="m 0,0 c 0.403,4.436 4.311,7.714 8.919,7.714 4.608,0 8.585,-3.278 8.989,-7.714 z m 28.36,-4.289 c 0,10.036 -5.941,20.059 -19.441,20.059 -12.482,0 -19.481,-9.766 -19.481,-20.061 0,-10.968 7.499,-20.627 19.562,-20.627 8.259,0 16.4,4.351 17.939,11.499 0.208,0.963 -0.443,2.228 -1.8,2.232 h -5.901 c -1.071,0 -1.948,-0.513 -2.474,-1.287 -1.688,-2.475 -4.163,-3.793 -7.821,-3.793 -5.167,0 -8.75,4.072 -9.021,8.588 h 25.097 c 2.309,0 3.341,1.256 3.341,3.39" /></g><g
           transform="translate(233.6376,516.0913)"
           id="g104"><path
             id="path106"
             style="fill:#1f4331;fill-opacity:1;fill-rule:evenodd;stroke:none"
             d="m 0,0 h -81.286 c -1.849,0 -3.34,-1.499 -3.34,-3.345 l 0.28,-31.926 c 0,0 -17.517,31.638 -18.43,33.252 -0.858,1.521 -2.702,2.918 -5.254,2.918 h -6.685 c -1.848,0 -3.345,-1.497 -3.345,-3.348 l 0.003,-46.816 c 0,-1.849 1.495,-3.35 3.344,-3.35 h 4.287 c 1.849,0 3.341,1.51 3.341,3.356 l -0.269,32.82 c 0,0 17.686,-31.954 18.441,-33.212 1.02,-1.702 2.747,-2.964 5.249,-2.964 h 6.142 c 1.848,0 3.342,1.501 3.342,3.35 l -0.003,41.332 74.186,-0.002 c 1.263,0 2.286,1.017 2.286,2.279 v 3.377 C 2.289,-1.017 1.262,0 0,0" /></g><g
           transform="translate(220.4814,495.7676)"
           id="g108"><path
             id="path110"
             style="fill:#1f4331;fill-opacity:1;fill-rule:evenodd;stroke:none"
             d="m 0,0 c 3.534,0 6.177,-1.285 7.13,-3.5 0.457,-1.063 1.342,-1.269 2.56,-1.269 h 4.859 c 0.805,0 1.727,0.692 1.727,1.743 0,5.649 -6.737,10.695 -16.282,10.695 -9.869,0 -16.352,-4.703 -16.352,-12.194 0,-5.73 4.528,-9.14 10.096,-10.596 2.537,-0.662 6.869,-1.733 8.98,-2.288 2.275,-0.595 4.307,-1.292 4.307,-3.238 0,-3.076 -3.241,-4.122 -6.779,-4.122 -3.354,0 -6.694,1.497 -7.652,3.89 -0.554,1.384 -1.526,1.586 -2.998,1.586 h -4.944 c -0.861,0 -1.854,-0.741 -1.854,-1.865 v -0.638 c 0,-5.469 7.336,-11.196 17.456,-11.196 7.176,0 17.175,2.985 17.175,12.608 0,5.573 -3.729,9.433 -9.798,10.974 -2.372,0.603 -8.078,2.055 -9.318,2.376 -2.211,0.571 -4.275,1.291 -4.275,3.187 C -5.962,-0.977 -3.31,0 0,0" /></g><g
           transform="translate(208.1064,275.6123)"
           id="g112"><path
             id="path114"
             style="fill:#e68516;fill-opacity:1;fill-rule:nonzero;stroke:none"
             d="m 0,0 c -17.159,0 -34.455,7.476 -50.019,21.617 -11.249,10.222 -17.728,20.326 -18.405,21.405 l -41.845,58.936 0.197,-73.705 c 0,-10.863 9.957,-21.601 10.057,-21.708 0.774,-0.823 0.985,-2.029 0.536,-3.066 -0.449,-1.038 -1.471,-1.71 -2.601,-1.71 h -47.946 c -1.215,0 -2.295,0.775 -2.685,1.925 -0.39,1.152 -0.002,2.423 0.963,3.161 5.371,4.107 9.079,16.138 10.156,20.822 v 111.264 c 0,23.008 -13.007,32.185 -13.56,32.565 -1.025,0.702 -1.479,1.994 -1.111,3.181 0.367,1.187 1.459,1.999 2.702,1.999 h 33.363 c 21.321,0 38.314,-24.924 39.448,-26.625 l 51.843,-71.334 v 74.576 c 0,10.658 -9.435,18.251 -9.531,18.326 -0.946,0.749 -1.314,2.015 -0.917,3.154 0.396,1.139 1.47,1.903 2.677,1.903 H 11.71 c 1.341,0 2.498,-0.939 2.774,-2.251 0.276,-1.312 -0.405,-2.638 -1.632,-3.178 -2.636,-1.16 -6.749,-9.793 -9.136,-17.293 L 2.834,2.818 C 2.826,1.26 1.559,0 0,0" /></g><g
           transform="translate(219.8163,443.7944)"
           id="g116"><path
             id="path118"
             style="fill:#e68516;fill-opacity:1;fill-rule:nonzero;stroke:none"
             d="m 0,0 h 0.005 z m 0,11.339 h -48.388 c -2.413,0 -4.562,-1.527 -5.355,-3.807 -0.793,-2.279 -0.056,-4.81 1.836,-6.307 0.065,-0.053 8.455,-6.93 8.455,-16.104 V -80.733 L -90.135,-16.5 c -1.486,2.215 -19.179,27.839 -41.773,27.839 h -33.363 c -2.515,0 -4.774,-1.627 -5.484,-4.04 -0.708,-2.404 0.203,-4.958 2.304,-6.323 0.78,-0.557 12.314,-9.142 12.314,-30.217 v -110.938 c -1.395,-5.893 -4.931,-15.752 -9.043,-18.897 -1.93,-1.476 -2.705,-4.019 -1.926,-6.321 0.779,-2.302 2.939,-3.852 5.37,-3.852 h 47.946 c 2.263,0 4.309,1.346 5.206,3.423 0.896,2.076 0.472,4.489 -1.08,6.135 -2.576,2.758 -9.283,11.701 -9.283,19.754 l -0.173,64.791 36.63,-51.592 c 0.934,-1.476 7.572,-11.672 18.855,-21.925 16.094,-14.624 34.049,-22.353 51.925,-22.353 3.118,0 5.651,2.518 5.669,5.637 l 0.879,150.706 C -2.916,-7.785 0.581,-0.707 2.377,0.522 4.772,1.628 6.093,4.246 5.548,6.836 4.997,9.46 2.682,11.339 0,11.339 m 0,-5.67 c -5.523,-2.43 -10.826,-19.443 -10.826,-19.443 l -0.884,-151.573 c -40.213,0 -66.064,41.76 -66.064,41.76 l -47.063,66.285 0.221,-82.635 c 0,-12.152 10.826,-23.642 10.826,-23.642 h -47.946 c 7.512,5.745 11.269,22.758 11.269,22.758 v 111.58 c 0,24.968 -14.804,34.91 -14.804,34.91 h 33.363 c 20.328,0 37.12,-25.409 37.12,-25.409 l 57.006,-78.438 v 83.299 c 0,12.152 -10.606,20.548 -10.606,20.548 L 0,5.669" /></g><g
           transform="translate(230.1767,285.8252)"
           id="g120"><path
             id="path122"
             style="fill:#e68516;fill-opacity:1;fill-rule:nonzero;stroke:none"
             d="m 0,0 c -1.326,0 -2.475,0.92 -2.766,2.214 -0.29,1.294 0.355,2.617 1.555,3.183 0.299,0.149 7.848,4.019 7.848,15.864 V 122.91 c -0.107,1.117 -1.352,12.472 -8.081,16.454 -1.099,0.651 -1.627,1.956 -1.29,3.188 0.337,1.232 1.457,2.086 2.734,2.086 h 55.277 c 1.296,0 2.427,-0.878 2.747,-2.134 0.32,-1.255 -0.252,-2.568 -1.389,-3.189 -0.306,-0.174 -7.994,-4.7 -7.994,-17.831 0,0 -10e-4,-99.602 -0.002,-99.635 C 48.635,21.728 48.335,9.193 56.474,5.405 57.679,4.844 58.333,3.521 58.045,2.223 57.758,0.924 56.607,0 55.277,0 Z" /></g><g
           transform="translate(285.454,421.9595)"
           id="g124"><path
             id="path126"
             style="fill:#e68516;fill-opacity:1;fill-rule:nonzero;stroke:none"
             d="m 0,0 h 0.005 z m 0,11.339 h -55.277 c -2.555,0 -4.794,-1.709 -5.469,-4.172 -0.674,-2.465 0.383,-5.075 2.581,-6.376 4.706,-2.786 6.42,-11.132 6.689,-14.124 v -101.54 c 0,-9.584 -5.636,-12.97 -6.269,-13.32 -2.447,-1.069 -3.721,-3.664 -3.185,-6.287 0.54,-2.638 2.96,-4.488 5.653,-4.488 H 0 c 2.659,0 4.96,1.847 5.535,4.444 0.575,2.596 -0.732,5.242 -3.142,6.364 -6.312,2.939 -6.201,13.69 -6.198,13.797 0.002,0.051 0.003,0.128 0.003,0.178 v 99.535 c 0,11.467 6.451,15.307 6.517,15.342 C 4.99,1.933 6.134,4.559 5.494,7.07 4.853,9.582 2.591,11.339 0,11.339 m 0,-5.67 c 0,0 -9.471,-5.166 -9.471,-20.319 v -99.535 c 0,0 -0.517,-14.465 9.471,-19.114 h -55.277 c 0,0 9.471,4.477 9.471,18.426 v 101.772 c 0,0 -1.033,13.776 -9.471,18.77 L 0,5.669" /></g><g
           transform="translate(353.0375,312.9775)"
           id="g128"><path
             id="path130"
             style="fill:#e68516;fill-opacity:1;fill-rule:nonzero;stroke:none"
             d="m 0,0 c 1.97,-0.512 5.392,-1.199 9.579,-1.199 6.763,0 13.042,1.728 18.663,5.137 16.85,10.217 14.931,44.165 14.657,48.001 -1.023,14.318 -5.659,32.282 -21.914,36.686 -0.92,0.135 -6.2,0.874 -11.809,0.874 -3.749,0 -6.873,-0.331 -9.176,-0.966 z m 14.681,-27.151 c -0.838,0 -1.374,0.016 -1.559,0.023 h -64.863 c -1.403,0 -2.594,1.026 -2.803,2.413 -0.208,1.387 0.628,2.718 1.969,3.131 5.45,1.679 6.216,11.416 6.265,12.155 v 111.854 c 0,5.199 -6.899,9.801 -6.969,9.846 -1.055,0.682 -1.536,1.977 -1.18,3.183 0.355,1.205 1.461,2.032 2.718,2.032 h 64.863 c 0.184,0.008 0.72,0.025 1.56,0.025 5.334,0 24.09,-0.728 41.469,-10.086 C 78.233,95.534 89.92,74.011 89.946,45.182 89.92,16.347 78.233,-5.176 56.149,-17.067 38.771,-26.424 20.018,-27.151 14.682,-27.151 Z" /></g><g
           transform="translate(355.8715,399.2158)"
           id="g132"><path
             id="path134"
             style="fill:#e68516;fill-opacity:1;fill-rule:nonzero;stroke:none"
             d="m 0,0 c 1.538,0.244 3.603,0.426 6.342,0.426 5.177,0 10.019,-0.646 11.224,-0.819 8.093,-2.261 17.953,-10.045 19.671,-34.108 0.95,-13.283 -0.784,-37.787 -13.299,-45.376 -5.171,-3.136 -10.956,-4.726 -17.193,-4.726 -2.654,0 -4.972,0.297 -6.745,0.634 z m 11.848,34.107 c -0.806,0 -1.359,-0.015 -1.611,-0.024 h -64.812 c -2.513,0 -4.727,-1.655 -5.438,-4.066 -0.711,-2.411 0.251,-5.002 2.362,-6.366 1.763,-1.161 5.673,-4.676 5.673,-7.464 V -95.602 c -0.169,-2.949 -1.571,-8.681 -4.266,-9.511 -2.68,-0.825 -4.354,-3.488 -3.937,-6.262 0.418,-2.773 2.801,-4.825 5.606,-4.825 h 64.812 c 0.252,-0.009 0.805,-0.025 1.611,-0.025 5.502,0 24.849,0.752 42.811,10.423 16.079,8.658 35.253,26.917 35.287,64.738 C 89.912,-3.234 70.739,15.024 54.662,23.682 36.698,33.355 17.35,34.107 11.848,34.107 M 6.745,-90.272 c 5.794,0 12.981,1.21 20.133,5.547 16.186,9.816 16.876,38.574 16.015,50.628 C 42.031,-22.042 38.243,0 18.73,5.166 c 0,0 -5.931,0.93 -12.388,0.93 C 2.037,6.095 -2.501,5.682 -5.669,4.305 v -92.646 c 0,0 5.096,-1.931 12.414,-1.931 m 5.103,118.71 c 10.491,0 72.369,-2.828 72.429,-69.497 -0.06,-66.673 -61.944,-69.497 -72.429,-69.497 -0.971,0 -1.502,0.025 -1.502,0.025 h -64.921 c 7.749,2.386 8.266,14.785 8.266,14.785 V 16.187 c 0,6.888 -8.266,12.227 -8.266,12.227 h 64.921 c 0,0 0.53,0.024 1.502,0.024" /></g><g
           transform="translate(440.1508,355.2256)"
           id="g136"><path
             id="path138"
             style="fill:#e68516;fill-opacity:1;fill-rule:nonzero;stroke:none"
             d="m 0,0 c -1.556,0 -2.819,1.253 -2.835,2.806 0,0.036 0,0.232 10e-4,0.26 C -2.787,4.6 -1.529,5.839 0,5.839 H 0.043 C 1.591,5.815 2.835,4.578 2.835,3.029 V 2.834 C 2.835,1.269 1.565,0 0,0" /></g><g
           transform="translate(440.1508,363.9238)"
           id="g140"><path
             id="path142"
             style="fill:#e68516;fill-opacity:1;fill-rule:nonzero;stroke:none"
             d="m 0,0 c -3.108,0 -5.633,-2.501 -5.669,-5.601 -0.001,-0.053 -0.002,-0.127 -0.002,-0.166 0,-0.042 0.001,-0.117 0.002,-0.17 0.039,-3.097 2.562,-5.596 5.669,-5.596 3.131,0 5.669,2.538 5.669,5.669 v 0.195 C 5.669,-2.539 3.131,0 0,0 m 0,-5.669 v -0.195 c 0,0.033 -0.002,0.064 -0.002,0.097 0,0.033 0.002,0.064 0.002,0.098" /></g><g
           transform="translate(515.2836,406.0415)"
           id="g144"><path
             id="path146"
             style="fill:#e68516;fill-opacity:1;fill-rule:nonzero;stroke:none"
             d="m 0,0 c -5.582,0 -9.685,-1.916 -11.437,-2.734 -11.767,-5.495 -15.358,-16.41 -16.297,-24.598 -0.786,-6.839 -0.435,-18.145 5.695,-33.162 1.869,-4.577 6.247,-15.298 14.958,-23.743 6.903,-6.692 14.605,-10.085 22.893,-10.085 5.931,0 10.308,1.797 11.507,2.347 l 0.27,0.123 c 3.349,1.529 12.247,5.588 15.625,18.097 2.896,10.725 1.099,24.557 -5.063,38.947 l -0.242,0.573 C 32.954,-22.248 25.712,-12.337 17.517,-6.329 11.789,-2.129 5.896,0 0,0 m -0.324,-124.781 c -14.205,0 -26.84,3.71 -37.553,11.027 -16.743,11.433 -23.343,28.182 -25.827,34.487 -8.92,22.636 -6.338,41.117 -2.601,52.635 10.022,30.886 35.442,44.528 42.993,47.973 5.457,2.488 20.031,8.274 37.51,8.274 10.655,0 20.689,-2.14 29.824,-6.362 16.301,-7.533 29.292,-21.676 36.582,-39.822 2.188,-5.446 12.334,-34.115 -2.884,-63.775 -8.104,-15.793 -21.355,-27.922 -39.386,-36.05 -4.362,-1.968 -20.044,-8.387 -38.656,-8.387 z" /></g><g
           transform="translate(531.0942,314.5547)"
           id="g148"><path
             id="path150"
             style="fill:#e68516;fill-opacity:1;fill-rule:nonzero;stroke:none"
             d="m 0,0 c -7.524,0 -14.563,3.124 -20.918,9.285 -8.284,8.031 -12.505,18.366 -14.307,22.779 -5.904,14.459 -6.252,25.256 -5.505,31.768 1.248,10.865 6.187,18.385 14.682,22.352 1.716,0.801 5.285,2.468 10.237,2.468 5.28,0 10.61,-1.944 15.841,-5.78 7.782,-5.705 14.688,-15.187 19.449,-26.703 0.062,-0.151 0.149,-0.354 0.256,-0.606 C 25.646,41.756 27.396,28.583 24.666,18.47 21.636,7.248 13.903,3.72 10.601,2.214 L 10.327,2.089 C 9.259,1.599 5.356,0 0,0 m -1.612,123.937 c -18.035,0 -33.062,-5.966 -38.686,-8.531 -7.818,-3.566 -34.135,-17.688 -44.514,-49.677 -3.879,-11.958 -6.567,-31.128 2.66,-54.547 2.571,-6.527 9.403,-23.866 26.866,-35.79 11.193,-7.645 24.365,-11.521 39.15,-11.521 19.177,0 35.33,6.61 39.824,8.637 18.632,8.4 32.34,20.963 40.743,37.341 15.779,30.754 5.261,60.479 2.993,66.126 -7.561,18.82 -21.065,33.501 -38.023,41.338 -9.51,4.395 -19.945,6.624 -31.013,6.624 M 0,-5.669 c 6.743,0 11.606,2.107 12.691,2.605 3.246,1.489 13.625,5.898 17.449,20.056 5.006,18.537 -4.342,38.731 -5.422,41.343 -1.651,3.993 -8.257,19.521 -21.336,29.109 -7.232,5.302 -13.835,6.877 -19.193,6.877 -6.21,0 -10.744,-2.117 -12.635,-3 -3.103,-1.449 -15.674,-7.319 -17.915,-26.843 -1.77,-15.411 4.038,-30.025 5.887,-34.556 1.871,-4.583 6.472,-15.849 15.61,-24.708 C -15.964,-3.414 -6.976,-5.669 0,-5.669 m -1.612,123.937 c 9.021,0 18.868,-1.588 28.635,-6.101 23.769,-10.985 32.891,-32.707 35.14,-38.306 1.472,-3.662 12.314,-32.014 -2.776,-61.424 -11.525,-22.462 -31.085,-31.63 -38.029,-34.76 -2.925,-1.32 -18.649,-8.137 -37.494,-8.137 -11.555,0 -24.286,2.564 -35.953,10.533 -16.024,10.943 -22.255,26.756 -24.789,33.187 -2.505,6.359 -10.265,26.914 -2.541,50.719 9.785,30.159 34.831,43.239 41.474,46.27 4.949,2.256 19.143,8.019 36.333,8.019" /></g><g
           transform="translate(208.1064,276.8887)"
           id="g152"><path
             id="path154"
             style="fill:#ffffff;fill-opacity:1;fill-rule:nonzero;stroke:none"
             d="m 0,0 c -40.612,0 -67.127,42.073 -67.39,42.498 l -44.165,62.199 0.208,-77.724 c 0,-11.406 10.298,-22.466 10.402,-22.577 0.427,-0.453 0.543,-1.116 0.297,-1.687 -0.247,-0.571 -0.81,-0.94 -1.432,-0.94 h -47.946 c -0.668,0 -1.262,0.425 -1.476,1.058 -0.215,0.633 -0.002,1.332 0.529,1.738 6.608,5.053 10.257,19.984 10.657,21.697 v 111.403 c 0,23.86 -13.973,33.521 -14.114,33.616 -0.57,0.383 -0.822,1.093 -0.622,1.749 0.199,0.656 0.805,1.104 1.491,1.104 h 33.363 c 20.926,0 37.717,-25.042 38.421,-26.109 l 54.146,-74.5 v 78.502 c 0,11.267 -9.915,19.246 -10.015,19.326 -0.52,0.412 -0.723,1.108 -0.505,1.734 0.218,0.627 0.809,1.047 1.473,1.047 H 11.71 c 0.737,0 1.374,-0.516 1.526,-1.238 0.151,-0.722 -0.223,-1.451 -0.898,-1.748 -3.51,-1.544 -7.895,-11.921 -9.897,-18.26 L 1.559,1.55 C 1.554,0.692 0.857,0 0,0" /></g><g
           transform="translate(219.8163,446.3457)"
           id="g156"><path
             id="path158"
             style="fill:#ffffff;fill-opacity:1;fill-rule:nonzero;stroke:none"
             d="m 0,0 h 0.005 z m 0,6.236 h -48.388 c -1.327,0 -2.509,-0.84 -2.945,-2.093 -0.436,-1.254 -0.031,-2.646 1.01,-3.47 0.088,-0.07 9.423,-7.657 9.423,-18.103 v -73.705 l -51.327,70.624 c -1.172,1.757 -18.234,26.747 -39.681,26.747 h -33.363 c -1.372,0 -2.583,-0.897 -2.983,-2.209 -0.4,-1.313 0.106,-2.733 1.244,-3.497 0.536,-0.368 13.425,-9.481 13.425,-32.322 v -111.231 c -1.084,-4.678 -4.767,-16.594 -10.045,-20.63 -1.062,-0.813 -1.488,-2.211 -1.059,-3.477 0.428,-1.266 1.616,-2.118 2.953,-2.118 h 47.946 c 1.245,0 2.37,0.739 2.863,1.882 0.493,1.142 0.26,2.469 -0.593,3.374 -0.098,0.103 -9.978,10.763 -9.978,21.504 l -0.195,72.821 41.322,-58.201 c 0.706,-1.123 7.201,-11.235 18.452,-21.458 15.616,-14.19 32.978,-21.69 50.209,-21.69 1.715,0 3.108,1.385 3.118,3.1 l 0.881,151.101 C -5.326,-9.352 -1.217,-0.824 1.256,0.264 2.606,0.858 3.355,2.316 3.052,3.76 2.748,5.203 1.475,6.236 0,6.236 M 0,3.118 C -5.523,0.687 -10.826,-16.326 -10.826,-16.326 l -0.884,-151.572 c -40.213,0 -66.064,41.76 -66.064,41.76 l -47.063,66.285 0.221,-82.635 c 0,-12.153 10.826,-23.642 10.826,-23.642 h -47.946 c 7.512,5.744 11.269,22.758 11.269,22.758 v 111.58 c 0,24.967 -14.804,34.91 -14.804,34.91 h 33.363 c 20.328,0 37.12,-25.409 37.12,-25.409 l 57.006,-78.438 v 83.299 c 0,12.152 -10.606,20.548 -10.606,20.548 L 0,3.118" /></g><g
           transform="translate(230.1767,287.1016)"
           id="g160"><path
             id="path162"
             style="fill:#ffffff;fill-opacity:1;fill-rule:nonzero;stroke:none"
             d="m 0,0 c -0.729,0 -1.361,0.505 -1.521,1.217 -0.16,0.712 0.195,1.439 0.854,1.751 0.345,0.167 8.579,4.301 8.579,17.017 v 101.706 c -0.081,0.901 -1.324,13.125 -8.706,17.495 -0.604,0.357 -0.895,1.075 -0.71,1.753 0.186,0.678 0.801,1.147 1.504,1.147 h 55.277 c 0.713,0 1.335,-0.483 1.511,-1.173 0.176,-0.691 -0.139,-1.413 -0.764,-1.754 -0.348,-0.194 -8.659,-4.992 -8.659,-18.951 V 20.673 C 47.36,20.485 47.018,7.123 55.935,2.972 56.598,2.663 56.958,1.936 56.799,1.222 56.642,0.508 56.009,0 55.277,0 Z" /></g><g
           transform="translate(285.454,424.5107)"
           id="g164"><path
             id="path166"
             style="fill:#ffffff;fill-opacity:1;fill-rule:nonzero;stroke:none"
             d="m 0,0 h 0.005 z m 0,6.236 h -55.277 c -1.406,0 -2.637,-0.94 -3.008,-2.295 -0.371,-1.355 0.21,-2.791 1.419,-3.506 3.485,-2.062 5.448,-6.254 6.481,-9.408 1.086,-3.317 1.406,-6.244 1.461,-6.817 v -101.634 c 0,-11.652 -7.398,-15.464 -7.713,-15.62 -1.319,-0.624 -2.016,-2.072 -1.696,-3.496 0.319,-1.423 1.597,-2.429 3.056,-2.429 H 0 c 1.462,0 2.729,1.017 3.044,2.445 0.316,1.427 -0.402,2.883 -1.728,3.501 -7.965,3.708 -7.675,16.059 -7.671,16.183 0.001,0.032 0.002,0.072 0.002,0.104 v 99.534 c 0,12.949 7.551,17.414 7.873,17.598 1.251,0.682 1.867,2.119 1.515,3.5 C 2.683,5.277 1.425,6.236 0,6.236 M 0,3.118 c 0,0 -9.471,-5.166 -9.471,-20.32 v -99.534 c 0,0 -0.517,-14.465 9.471,-19.115 h -55.277 c 0,0 9.471,4.478 9.471,18.427 v 101.772 c 0,0 -1.033,13.776 -9.471,18.77 L 0,3.118" /></g><g
           transform="translate(351.7611,312.0083)"
           id="g168"><path
             id="path170"
             style="fill:#ffffff;fill-opacity:1;fill-rule:nonzero;stroke:none"
             d="m 0,0 c 1.779,-0.526 5.774,-1.505 10.855,-1.505 7,0 13.501,1.79 19.325,5.321 C 47.677,14.426 45.728,49.083 45.448,53 44.394,67.751 39.559,86.279 22.522,90.845 21.81,90.951 16.312,91.744 10.452,91.744 6.082,91.744 2.5,91.296 0,90.443 Z m 15.957,-24.907 c -1.016,0 -1.572,0.026 -1.572,0.026 l -64.849,-0.001 c -0.772,0 -1.427,0.563 -1.542,1.326 -0.115,0.764 0.345,1.495 1.083,1.723 6.596,2.031 7.162,13.248 7.167,13.361 l -0.002,111.866 c 0,5.97 -7.477,10.869 -7.552,10.918 -0.581,0.375 -0.845,1.087 -0.65,1.75 0.196,0.663 0.804,1.118 1.496,1.118 H 14.45 c 0.005,0.002 0.553,0.025 1.508,0.025 5.259,0 23.748,-0.717 40.865,-9.934 C 78.776,95.449 89.921,74.885 89.946,46.15 89.921,17.411 78.775,-3.154 56.82,-14.975 39.705,-24.191 21.218,-24.907 15.958,-24.907 Z" /></g><g
           transform="translate(353.3207,401.2939)"
           id="g172"><path
             id="path174"
             style="fill:#ffffff;fill-opacity:1;fill-rule:nonzero;stroke:none"
             d="m 0,0 c 2.255,0.591 5.278,0.899 8.893,0.899 5.558,0 10.794,-0.729 11.752,-0.869 16.083,-4.367 20.672,-22.206 21.688,-36.427 0.273,-3.82 2.184,-37.61 -14.521,-47.74 -5.577,-3.381 -11.806,-5.095 -18.516,-5.095 -4.047,0 -7.33,0.63 -9.296,1.129 z m 14.398,29.478 c -0.835,0 -1.369,-0.017 -1.565,-0.024 h -64.857 c -1.382,0 -2.6,-0.911 -2.991,-2.236 -0.391,-1.326 0.138,-2.752 1.299,-3.502 1.898,-1.238 6.84,-5.388 6.84,-9.608 V -97.737 c -0.049,-0.731 -0.802,-10.271 -6.066,-11.892 -1.474,-0.454 -2.395,-1.919 -2.165,-3.444 0.229,-1.526 1.54,-2.655 3.083,-2.655 h 64.858 c 0.195,-0.006 0.729,-0.024 1.564,-0.024 5.351,0 24.165,0.731 41.602,10.119 10.018,5.394 17.961,12.751 23.61,21.867 6.844,11.044 10.322,24.713 10.336,40.626 -0.014,15.918 -3.492,29.586 -10.335,40.63 C 73.962,6.607 66.02,13.964 56.003,19.358 38.564,28.748 19.75,29.478 14.398,29.478 M 9.296,-92.351 c 5.794,0 12.98,1.211 20.133,5.548 16.186,9.816 16.876,38.574 16.014,50.628 -0.861,12.054 -4.649,34.096 -24.162,39.262 0,0 -5.931,0.931 -12.388,0.931 C 4.588,4.017 0.05,3.604 -3.118,2.227 v -92.646 c 0,0 5.096,-1.932 12.414,-1.932 M 14.398,26.36 c 10.492,0 72.37,-2.828 72.43,-69.497 -0.06,-66.674 -61.944,-69.497 -72.43,-69.497 -0.97,0 -1.502,0.025 -1.502,0.025 h -64.92 c 7.749,2.386 8.266,14.785 8.266,14.785 V 14.108 c 0,6.889 -8.266,12.227 -8.266,12.227 h 64.92 c 0,0 0.531,0.025 1.502,0.025" /></g><g
           transform="translate(440.1508,356.501)"
           id="g176"><path
             id="path178"
             style="fill:#ffffff;fill-opacity:1;fill-rule:nonzero;stroke:none"
             d="m 0,0 c -0.858,0 -1.555,0.694 -1.559,1.552 -0.001,0.02 -0.001,0.2 0,0.212 C -1.54,2.612 -0.847,3.3 0,3.3 H 0.018 C 0.871,3.291 1.559,2.607 1.559,1.753 V 1.559 C 1.559,0.698 0.861,0 0,0" /></g><g
           transform="translate(440.1508,361.3726)"
           id="g180"><path
             id="path182"
             style="fill:#ffffff;fill-opacity:1;fill-rule:nonzero;stroke:none"
             d="m 0,0 c -1.714,0 -3.104,-1.382 -3.118,-3.092 -0.001,-0.034 -0.002,-0.102 -0.002,-0.123 0,-0.028 10e-4,-0.104 0.002,-0.132 0,-1.721 1.395,-3.101 3.118,-3.101 1.722,0 3.118,1.413 3.118,3.135 v 0.195 C 3.118,-1.396 1.722,0 0,0 m 0,-3.118 v -0.195 c 0,0.033 -0.002,0.064 -0.002,0.098 0,0.032 0.002,0.064 0.002,0.097" /></g><g
           transform="translate(515.2836,407.3169)"
           id="g184"><path
             id="path186"
             style="fill:#ffffff;fill-opacity:1;fill-rule:nonzero;stroke:none"
             d="m 0,0 c -5.865,0 -10.147,-2 -11.976,-2.854 -12.302,-5.744 -16.048,-17.096 -17.026,-25.608 -1.167,-10.163 0.778,-21.532 5.782,-33.789 1.9,-4.652 6.348,-15.546 15.251,-24.177 7.15,-6.931 15.151,-10.445 23.781,-10.445 6.19,0 10.78,1.886 12.04,2.464 l 0.266,0.122 c 3.499,1.596 12.793,5.837 16.327,18.923 2.971,11.002 1.153,25.13 -5.121,39.783 l -0.236,0.558 C 34.045,-22.823 26.652,-12.72 18.271,-6.575 12.319,-2.212 6.172,0 0,0 m -0.324,-124.781 c -13.944,0 -26.336,3.636 -36.833,10.805 -16.42,11.212 -22.685,27.112 -25.361,33.902 -8.781,22.283 -6.246,40.453 -2.574,51.772 9.862,30.391 34.878,43.816 42.31,47.207 5.38,2.453 19.752,8.159 36.98,8.159 10.469,0 20.323,-2.101 29.289,-6.245 16.004,-7.396 28.766,-21.296 35.933,-39.139 2.152,-5.355 12.13,-33.55 -2.836,-62.717 -7.968,-15.53 -21.014,-27.463 -38.774,-35.469 -4.304,-1.942 -19.775,-8.275 -38.132,-8.275 z" /></g><g
           transform="translate(531.0942,312.0034)"
           id="g188"><path
             id="path190"
             style="fill:#ffffff;fill-opacity:1;fill-rule:nonzero;stroke:none"
             d="m 0,0 c -8.21,0 -15.846,3.366 -22.693,10.004 -8.669,8.404 -13.031,19.086 -14.894,23.647 -6.107,14.96 -6.458,26.215 -5.677,33.023 1.356,11.806 6.784,20.006 16.137,24.373 1.734,0.81 5.798,2.707 11.316,2.707 5.834,0 11.671,-2.11 17.35,-6.274 8.152,-5.976 15.36,-15.844 20.297,-27.785 0.06,-0.144 0.143,-0.337 0.245,-0.577 C 28.216,44.786 30.009,31.02 27.129,20.356 23.786,7.976 14.977,3.957 11.66,2.444 L 11.391,2.321 C 10.204,1.777 5.874,0 0,0 m -1.612,123.937 c -17.535,0 -32.156,-5.805 -37.627,-8.3 -7.578,-3.457 -33.088,-17.146 -43.146,-48.144 -3.751,-11.561 -6.344,-30.11 2.606,-52.825 2.494,-6.327 9.116,-23.135 25.931,-34.619 10.762,-7.349 23.451,-11.076 37.712,-11.076 18.668,0 34.4,6.439 38.776,8.412 18.092,8.157 31.389,20.329 39.521,36.18 15.274,29.768 5.092,58.544 2.896,64.01 -7.318,18.214 -20.361,32.41 -36.726,39.973 -9.173,4.239 -19.247,6.389 -29.943,6.389 M 0,-3.118 c 6.743,0 11.606,2.108 12.691,2.605 3.246,1.49 13.625,5.899 17.449,20.056 5.006,18.537 -4.342,38.731 -5.422,41.343 -1.651,3.993 -8.257,19.521 -21.336,29.11 -7.232,5.301 -13.835,6.877 -19.193,6.877 -6.21,0 -10.744,-2.118 -12.635,-3.001 -3.103,-1.449 -15.674,-7.318 -17.915,-26.843 -1.77,-15.411 4.038,-30.025 5.887,-34.556 1.871,-4.582 6.472,-15.849 15.61,-24.707 C -15.964,-0.862 -6.976,-3.118 0,-3.118 m -1.612,123.937 c 9.021,0 18.868,-1.588 28.635,-6.101 C 50.792,103.733 59.914,82.011 62.163,76.413 63.635,72.75 74.477,44.398 59.387,14.988 47.862,-7.473 28.302,-16.642 21.358,-19.772 c -2.925,-1.319 -18.649,-8.137 -37.494,-8.137 -11.555,0 -24.286,2.566 -35.953,10.534 -16.024,10.942 -22.255,26.755 -24.789,33.187 -2.505,6.358 -10.265,26.914 -2.541,50.719 9.785,30.158 34.831,43.239 41.474,46.269 4.949,2.257 19.143,8.019 36.333,8.019" /></g><g
           transform="translate(54.5453,449.4639)"
           id="g192"><path
             id="path194"
             style="fill:#1e4432;fill-opacity:1;fill-rule:nonzero;stroke:none"
             d="m 0,0 c 0,0 14.804,-9.943 14.804,-34.91 v -111.58 c 0,0 -3.757,-17.014 -11.269,-22.758 h 47.946 c 0,0 -10.826,11.489 -10.826,23.642 l -0.221,82.635 47.063,-66.285 c 0,0 25.851,-41.761 66.064,-41.761 l 0.884,151.573 c 0,0 5.303,17.013 10.826,19.444 h -48.388 c 0,0 10.606,-8.396 10.606,-20.548 v -83.299 l -57.006,78.438 c 0,0 -16.792,25.409 -37.12,25.409 z" /></g><g
           transform="translate(230.1767,427.6289)"
           id="g196"><path
             id="path198"
             style="fill:#1e4432;fill-opacity:1;fill-rule:nonzero;stroke:none"
             d="m 0,0 h 55.277 c 0,0 -9.471,-5.166 -9.471,-20.32 v -99.534 c 0,0 -0.516,-14.465 9.471,-19.115 H 0 c 0,0 9.471,4.478 9.471,18.427 V -18.77 C 9.471,-18.77 8.438,-4.994 0,0" /></g><g
           transform="translate(382.7494,314.4912)"
           id="g200"><path
             id="path202"
             style="fill:#1e4432;fill-opacity:1;fill-rule:nonzero;stroke:none"
             d="m 0,0 c -16.187,-9.815 -32.547,-3.616 -32.547,-3.616 v 92.645 c 7.922,3.444 24.4,0.861 24.4,0.861 C 11.365,84.724 15.153,62.682 16.015,50.628 16.876,38.573 16.187,9.815 0,0 m -16.532,113.138 h -64.921 c 0,0 8.266,-5.339 8.266,-12.227 V -11.021 c 0,0 -0.517,-12.399 -8.266,-14.786 h 64.921 c 0,0 73.865,-3.372 73.931,69.473 -0.066,72.845 -73.931,69.472 -73.931,69.472" /></g><g
           transform="translate(440.1508,358.2544)"
           id="g204"><path
             id="path206"
             style="fill:#1e4432;fill-opacity:1;fill-rule:nonzero;stroke:none"
             d="M 0,0 C 0,-0.033 -0.002,-0.064 -0.002,-0.097 -0.002,-0.13 0,-0.162 0,-0.194 Z" /></g><g
           transform="translate(561.2338,331.5469)"
           id="g208"><path
             id="path210"
             style="fill:#1e4432;fill-opacity:1;fill-rule:nonzero;stroke:none"
             d="m 0,0 c -3.823,-14.158 -14.203,-18.567 -17.448,-20.056 -2.207,-1.013 -20.052,-8.69 -37.556,8.278 -9.138,8.859 -13.738,20.125 -15.609,24.708 -1.85,4.53 -7.658,19.145 -5.888,34.556 2.241,19.524 14.812,25.394 17.915,26.843 3.523,1.645 16.214,7.57 31.828,-3.877 C -13.679,60.864 -7.072,45.336 -5.422,41.343 -4.342,38.731 5.006,18.537 0,0 m 32.023,56.869 c -2.249,5.599 -11.371,27.32 -35.14,38.305 -28.377,13.115 -57.422,1.524 -64.968,-1.918 -6.643,-3.03 -31.688,-16.11 -41.474,-46.269 -7.723,-23.805 0.036,-44.36 2.541,-50.719 2.535,-6.431 8.765,-22.244 24.789,-33.187 30.695,-20.962 68.727,-4.525 73.448,-2.396 6.943,3.129 26.504,12.298 38.028,34.76 15.09,29.41 4.248,57.762 2.776,61.424" /></g><g
           transform="translate(330.5443,518.4053)"
           id="g212"><path
             id="path214"
             style="fill:#1f4331;fill-opacity:1;fill-rule:evenodd;stroke:none"
             d="m 0,0 c -2.712,0 -4.899,-2.099 -4.899,-5.243 0,-3.148 2.187,-5.263 4.899,-5.247 v -0.016 c 2.641,0 4.884,2.115 4.884,5.263 C 4.884,-2.099 2.641,0 0,0 m 0,-12.079 c -3.635,0 -6.871,2.513 -6.871,6.836 0,4.319 3.236,6.832 6.871,6.832 3.617,0 6.855,-2.513 6.855,-6.832 0,-4.323 -3.238,-6.836 -6.855,-6.836 m 0.253,7.505 c 0.706,0 1.122,0.143 1.122,0.958 0,0.759 -0.814,0.813 -1.41,0.813 h -1.104 v -1.771 z m -1.392,-4.342 h -1.573 v 7.358 h 2.749 c 1.9,0 3.022,-0.541 3.022,-2.223 0,-1.354 -0.797,-1.841 -1.774,-1.918 l 1.878,-3.217 h -1.86 l -1.699,3.093 h -0.743 z" /></g><g
           transform="translate(579.3588,437.2349)"
           id="g216"><path
             id="path218"
             style="fill:#1f4331;fill-opacity:1;fill-rule:evenodd;stroke:none"
             d="m 0,0 c -2.629,0 -4.749,-2.035 -4.749,-5.083 0,-3.051 2.12,-5.102 4.749,-5.086 v -0.016 c 2.561,0 4.734,2.051 4.734,5.102 C 4.734,-2.035 2.561,0 0,0 m 0,-11.71 c -3.523,0 -6.661,2.437 -6.661,6.627 0,4.187 3.138,6.624 6.661,6.624 3.507,0 6.646,-2.437 6.646,-6.624 0,-4.19 -3.139,-6.627 -6.646,-6.627 m 0.245,7.275 c 0.685,0 1.088,0.139 1.088,0.93 0,0.735 -0.789,0.787 -1.367,0.787 h -1.07 v -1.717 z m -1.349,-4.209 h -1.525 v 7.134 h 2.664 c 1.843,0 2.93,-0.525 2.93,-2.156 0,-1.312 -0.773,-1.785 -1.719,-1.859 l 1.82,-3.119 H 1.263 l -1.648,2.999 h -0.719 z" /></g></g></g></g></svg>