<svg width="32" height="32" viewBox="0 0 32 32" fill="none" xmlns="http://www.w3.org/2000/svg">
<circle cx="16" cy="16" r="15.7" stroke="url(#paint0_linear_1979_835)" stroke-width="0.6"/>
<circle opacity="0.2" cx="16" cy="16" r="15.2" stroke="url(#paint1_linear_1979_835)" stroke-width="1.6"/>
<mask id="mask0_1979_835" style="mask-type:alpha" maskUnits="userSpaceOnUse" x="1" y="1" width="30" height="30">
<circle cx="15.9994" cy="15.9999" r="14.4662" fill="#FFF3C3"/>
</mask>
<g mask="url(#mask0_1979_835)">
<circle cx="15.9994" cy="15.9999" r="14.4662" fill="#FFF3C3"/>
<path d="M4.08463 6.55664L4.06833 6.56884C4.01879 6.64622 3.98544 6.78826 3.96828 6.99505C3.87514 7.10773 3.8229 7.19311 3.81157 7.25128C3.77671 7.48214 3.78146 7.69066 3.8256 7.87674C3.77476 7.95229 3.74357 8.04629 3.73202 8.15897C3.73548 8.20679 3.74271 8.25481 3.75372 8.30317C3.75447 8.32702 3.77951 8.4002 3.82884 8.52259C3.87352 8.62081 3.93342 8.7201 4.00843 8.82048C3.83078 8.83656 3.68108 8.88761 3.55944 8.97374C3.5521 8.9936 3.55329 9.00925 3.56279 9.02058C3.64892 9.07347 3.68788 9.10682 3.67968 9.12052C3.6813 9.12452 3.67612 9.13563 3.66414 9.15377L3.58373 9.26763C3.57412 9.29882 3.58524 9.33412 3.61719 9.37373C3.64179 9.39693 3.72835 9.4251 3.87697 9.45824C3.88733 9.45813 3.89467 9.50627 3.8991 9.60265C3.90752 9.62326 3.91669 9.63287 3.92651 9.63147C4.05236 9.60707 4.23681 9.4754 4.47998 9.23644C4.95735 9.43018 5.32032 9.53131 5.56889 9.53972C5.62587 9.53821 5.65415 9.50702 5.65383 9.44626C5.82339 9.45306 5.97524 9.4469 6.1094 9.42802C6.33174 9.38603 6.47162 9.34221 6.52882 9.29667C6.54285 9.28997 6.53551 9.28091 6.5068 9.26936L5.38562 8.94319C5.23722 8.89549 5.16415 8.86624 5.16642 8.85534C5.15271 8.82868 5.15875 8.80407 5.18466 8.78141C5.25039 8.72312 5.35195 8.66085 5.48913 8.59458C5.50229 8.58465 5.50629 8.57612 5.50111 8.56889C5.43754 8.51428 5.33673 8.46226 5.19879 8.41282C5.15066 8.40764 5.04413 8.41509 4.879 8.43495C4.83993 8.41455 4.77938 8.34526 4.69757 8.22708C4.62687 8.12411 4.56676 8.00765 4.51711 7.87771C4.34701 7.11173 4.20292 6.67126 4.08463 6.55664Z" fill="white"/>
<mask id="mask1_1979_835" style="mask-type:luminance" maskUnits="userSpaceOnUse" x="7" y="8" width="3" height="3">
<path d="M7.11328 8.58936H9.13028V10.684H7.11328V8.58936Z" fill="white"/>
</mask>
<g mask="url(#mask1_1979_835)">
<path d="M8.84912 8.60107L8.8366 8.60129C8.65938 8.62881 8.47492 8.68612 8.28335 8.77344L7.27776 9.24693C7.18624 9.29485 7.13443 9.3337 7.12223 9.36349C7.12105 9.37774 7.12633 9.38681 7.13842 9.39069L7.28737 9.4058C7.43707 9.35928 7.52503 9.33543 7.55136 9.33424C7.61558 9.35659 7.77942 9.34903 8.04277 9.31147C8.07385 9.31255 8.10192 9.32572 8.12706 9.35076C8.16041 9.39868 8.18038 9.44876 8.18707 9.501C8.16916 9.70121 8.16808 9.82166 8.18373 9.86224C8.19614 9.94578 8.22614 10.0314 8.27374 10.1189L8.2963 10.2199C8.29986 10.2659 8.29295 10.3939 8.27568 10.6037C8.27968 10.6496 8.28615 10.6731 8.29522 10.6743C8.30828 10.6772 8.32868 10.66 8.35642 10.6224C8.41362 10.5423 8.46478 10.463 8.51011 10.3844C8.63185 10.1763 8.70762 10.0246 8.73741 9.92916C8.76526 9.84314 8.78252 9.75193 8.78922 9.65534C8.78026 9.3336 8.77929 9.09863 8.7863 8.95034C8.84145 8.9144 8.91107 8.86075 8.99536 8.7892L9.12822 8.73922L8.91236 8.6096C8.89488 8.60399 8.87383 8.60118 8.84912 8.60107Z" fill="white"/>
</g>
<path d="M9.24182 5.87598L9.2402 5.87608C9.23513 5.87706 9.23135 5.87943 9.22909 5.88321C9.20847 5.99578 9.19131 6.06108 9.1775 6.07889C9.16487 6.10263 9.11468 6.15595 9.02672 6.23895C9.01797 6.24844 9.01053 6.26453 9.00416 6.28708C9.00103 6.30079 9.00038 6.32335 9.00222 6.35454C9.03114 6.54978 9.04377 6.67002 9.04032 6.71535C9.03924 6.73176 9.03578 6.7514 9.02985 6.77439C9.01981 6.80957 9.00092 6.85458 8.97318 6.90941L8.96509 6.95722C8.95743 7.07584 9.02607 7.23061 9.17124 7.42165C8.97567 7.421 8.84421 7.42478 8.77686 7.43276C8.63914 7.4469 8.55754 7.4728 8.53175 7.51047C8.52991 7.52407 8.53315 7.53767 8.54125 7.55105L8.64281 7.64085C8.61324 7.70485 8.59802 7.7436 8.59737 7.75731C8.59122 7.77717 8.59273 7.79692 8.60169 7.81635C8.61453 7.84031 8.66677 7.85822 8.7584 7.86988C8.78959 7.92741 8.81431 7.95687 8.83233 7.95838C8.86256 7.9546 8.88824 7.94511 8.9095 7.92989L9.15041 7.74112C9.1844 7.71554 9.20523 7.7014 9.213 7.69859C9.31057 7.72126 9.39886 7.72482 9.47787 7.70939C9.52741 7.70399 9.5995 7.67852 9.69405 7.63319C9.82076 7.57879 9.94175 7.48694 10.0568 7.35743L10.2148 7.29127L10.22 7.27713C10.2222 7.25878 10.1993 7.23331 10.1516 7.2006C10.1354 7.18614 10.0585 7.17017 9.92103 7.15268C9.9071 7.14761 9.89912 7.13444 9.89707 7.1134C9.907 7.01712 9.92858 6.92204 9.96193 6.82824L10.1563 6.31612C10.18 6.2356 10.1822 6.1784 10.1633 6.1444C10.1423 6.12227 10.1143 6.11763 10.0795 6.13048C10.0504 6.14958 9.99615 6.19653 9.91671 6.27122C9.89189 6.28331 9.83663 6.29874 9.75125 6.31741C9.72826 6.32756 9.71251 6.33727 9.70409 6.34666C9.68013 6.37666 9.66437 6.41142 9.65671 6.45092C9.64958 6.47164 9.64052 6.58519 9.6294 6.79155C9.62854 6.79781 9.6239 6.80288 9.61569 6.80677C9.58882 6.7596 9.54726 6.65847 9.49103 6.50337C9.45822 6.35476 9.42185 6.21477 9.38192 6.08342C9.33443 5.98779 9.30421 5.93329 9.29125 5.9199C9.27139 5.89238 9.25488 5.8777 9.24182 5.87598Z" fill="white"/>
<path d="M11.3077 6.97217L11.3051 6.9726C11.2992 6.97541 11.2962 6.98037 11.2959 6.98739C11.3037 7.11226 11.3052 7.18101 11.3003 7.19364C11.265 7.25743 11.245 7.29974 11.2403 7.32067C11.2304 7.35079 11.2253 7.37788 11.2251 7.40195C11.22 7.44425 11.2264 7.51592 11.2441 7.61705C11.2565 7.67501 11.2748 7.73351 11.2991 7.79255C11.2768 7.89238 11.2678 7.96092 11.2723 7.99826C11.3015 8.12422 11.3943 8.24704 11.5505 8.36684L11.2785 8.47963C11.2216 8.51438 11.1933 8.54352 11.1934 8.56673C11.1951 8.58195 11.1991 8.59296 11.2052 8.59986C11.2619 8.64757 11.2889 8.67326 11.2861 8.67703L11.3271 8.8399C11.3425 8.8521 11.3866 8.86418 11.4589 8.87627L11.5586 8.95441L11.5657 8.95431C11.5736 8.95441 11.5839 8.94664 11.5966 8.93099C11.6724 8.79576 11.7214 8.71287 11.7436 8.68221C11.7774 8.63548 11.7993 8.61163 11.8094 8.61044C11.8296 8.60526 11.8473 8.60591 11.8625 8.61228C11.9584 8.67995 12.0309 8.71708 12.0802 8.72334C12.1791 8.74341 12.3044 8.74773 12.4561 8.73596C12.4945 8.72916 12.5168 8.72042 12.5233 8.70963C12.5303 8.70553 12.5345 8.68761 12.5359 8.65588C12.5376 8.65221 12.5423 8.64811 12.55 8.64347C12.7576 8.62847 12.9117 8.56025 13.0125 8.43894C13.0063 8.42534 12.9902 8.41671 12.9643 8.41314C12.5337 8.36393 12.3185 8.33252 12.3187 8.31881C12.2631 8.29561 12.2379 8.27197 12.2432 8.24801C12.2436 8.22146 12.2754 8.18714 12.3387 8.14515C12.3455 8.12389 12.344 8.10932 12.3343 8.10166C12.2868 8.07155 12.1698 8.06377 11.9831 8.07813C11.9723 8.07608 11.9549 8.06572 11.9308 8.04726C11.892 8.01823 11.8509 7.96545 11.8076 7.88893C11.7124 7.60734 11.6423 7.43163 11.5973 7.3619C11.4909 7.18393 11.3943 7.05398 11.3077 6.97217Z" fill="white"/>
<mask id="mask2_1979_835" style="mask-type:luminance" maskUnits="userSpaceOnUse" x="12" y="5" width="2" height="2">
<path d="M12.0869 5.08936H13.4339V6.65575H12.0869V5.08936Z" fill="white"/>
</mask>
<g mask="url(#mask2_1979_835)">
<path d="M13.151 5.45284L13.1504 5.45705C13.1504 5.45705 13.1502 5.45705 13.1499 5.45705H13.1496L13.1494 5.45683L13.1493 5.45662C13.1493 5.45651 13.1493 5.4564 13.1493 5.45629C13.1493 5.45608 13.1493 5.45597 13.1493 5.45575C13.1494 5.45564 13.1494 5.45543 13.1495 5.45521L13.1498 5.45456L13.1502 5.4537L13.1507 5.45284H13.151ZM13.2176 5.09775L13.205 5.09786C13.1826 5.09462 13.1551 5.10282 13.1226 5.12236C13.0963 5.13973 13.0136 5.20492 12.8744 5.31793C12.6413 5.47248 12.4973 5.56983 12.4425 5.60966C12.255 5.74598 12.1458 5.84193 12.1149 5.89783C12.1108 5.91327 12.1265 5.91877 12.1622 5.91424L12.3642 5.84203C12.4803 5.82865 12.5456 5.81926 12.5602 5.81386C12.61 5.79562 12.6732 5.76713 12.7498 5.72838C12.785 5.72385 12.8103 5.7286 12.8256 5.74274C12.8558 5.76627 12.8799 5.80253 12.898 5.85186C12.9144 5.89492 12.9302 5.96896 12.9453 6.07387C12.9507 6.09545 12.9569 6.1138 12.9638 6.12891L13.0939 6.32869C13.0981 6.33884 13.102 6.35794 13.1059 6.38589C13.1108 6.49177 13.1156 6.56107 13.1205 6.59366C13.1303 6.6337 13.1415 6.6514 13.154 6.64655C13.191 6.63284 13.2252 6.59798 13.2565 6.54196C13.2689 6.51865 13.2794 6.49113 13.2878 6.4594C13.3096 6.32157 13.323 6.25131 13.3281 6.24861C13.3308 6.24105 13.3356 6.23598 13.3424 6.23339C13.3498 6.22994 13.3661 6.22886 13.3913 6.23015C13.3949 6.22767 13.3985 6.22465 13.4017 6.22109C13.4156 6.20241 13.4229 6.175 13.4237 6.13873C13.4297 5.8742 13.3618 5.61754 13.22 5.36887L13.3848 5.18366C13.4039 5.15894 13.4133 5.13952 13.4133 5.12527C13.4122 5.11728 13.4017 5.11156 13.3817 5.10843C13.3126 5.10163 13.258 5.09807 13.2176 5.09775Z" fill="white"/>
</g>
<path d="M11.5815 9.95188C11.5815 10.059 11.4946 10.1459 11.3874 10.1459C11.2803 10.1459 11.1934 10.059 11.1934 9.95188C11.1934 9.84471 11.2803 9.75781 11.3874 9.75781C11.4945 9.75769 11.5815 9.84459 11.5815 9.95188Z" fill="#F29E25"/>
<path d="M11.602 10.6069C11.602 10.9154 11.5058 11.1654 11.3869 11.1654C11.2681 11.1654 11.1719 10.9153 11.1719 10.6069C11.1719 10.2984 11.2681 10.0483 11.3869 10.0483C11.5058 10.0483 11.602 10.2985 11.602 10.6069Z" fill="#D38B18"/>
<path d="M11.7487 11.3998C11.7487 11.5998 11.5866 11.7619 11.3866 11.7619C11.1866 11.7619 11.0244 11.5998 11.0244 11.3998C11.0244 11.1997 11.1866 11.0376 11.3866 11.0376C11.5866 11.0376 11.7487 11.1997 11.7487 11.3998Z" fill="#F29E25"/>
<path d="M17.1273 17.4251C17.1273 20.0457 14.5281 20.8902 11.322 20.8902C8.1158 20.8902 5.5166 20.0457 5.5166 17.4251C5.5166 14.8044 7.74697 11.3999 11.322 11.3999C15.0392 11.3998 17.1273 14.8043 17.1273 17.4251Z" fill="#E7A115"/>
<path d="M16.09 17.4251C16.09 20.0457 13.9539 20.8902 11.3189 20.8902C8.68391 20.8902 6.54785 20.0457 6.54785 17.4251C6.54785 14.8044 8.38086 11.3999 11.3189 11.3999C14.3739 11.3998 16.09 14.8043 16.09 17.4251Z" fill="#F0A91B"/>
<path d="M14.7013 17.4251C14.7013 20.0457 13.2452 20.8902 11.4488 20.8902C9.65245 20.8902 8.19629 20.0457 8.19629 17.4251C8.19629 14.8044 9.44589 11.3999 11.4488 11.3999C13.5313 11.3998 14.7013 14.8043 14.7013 17.4251Z" fill="#FEBB36"/>
<path d="M12.7544 17.4251C12.7544 20.0457 12.142 20.8902 11.3865 20.8902C10.631 20.8902 10.0186 20.0457 10.0186 17.4251C10.0186 14.8044 10.5441 11.3999 11.3865 11.3999C12.2624 11.3998 12.7544 14.8043 12.7544 17.4251Z" fill="#FFC655"/>
<path d="M11.2126 20.0389C14.7759 20.0389 17.6645 19.1358 17.6645 18.0219C17.6645 16.9079 14.7759 16.0049 11.2126 16.0049C7.64935 16.0049 4.76074 16.9079 4.76074 18.0219C4.76074 19.1358 7.64935 20.0389 11.2126 20.0389Z" fill="#0CA59D"/>
<path d="M11.2126 20.3592C14.7759 20.3592 17.6645 19.4562 17.6645 18.3422C17.6645 17.2282 14.7759 16.3252 11.2126 16.3252C7.64935 16.3252 4.76074 17.2282 4.76074 18.3422C4.76074 19.4562 7.64935 20.3592 11.2126 20.3592Z" fill="#0B5454"/>
<path d="M11.2128 16.7334C7.99355 16.7334 5.38379 17.5015 5.38379 18.449V19.6361V20.1647H17.0417V18.449C17.0418 17.5015 14.4321 16.7334 11.2128 16.7334Z" fill="#166C70"/>
<path d="M11.8159 19.1151V17.5646C11.8159 17.2755 11.5506 16.9292 11.2263 16.9292C10.902 16.9292 10.6367 17.2756 10.6367 17.5646V19.1151H11.8159Z" fill="#0B5454"/>
<path d="M10.0288 19.2704V17.7198C10.0288 17.4307 9.7635 17.0845 9.43921 17.0845C9.11492 17.0845 8.84961 17.4309 8.84961 17.7198V19.2704H10.0288Z" fill="#0B5454"/>
<path d="M8.25509 19.5419V17.9913C8.25509 17.7022 8.00701 17.356 7.70371 17.356C7.40042 17.356 7.15234 17.7023 7.15234 17.9913V19.5419H8.25509Z" fill="#0B5454"/>
<path d="M6.69502 19.9854V18.4348C6.69502 18.1457 6.48432 17.7993 6.2269 17.7993C5.96936 17.7993 5.75879 18.1457 5.75879 18.4348V19.9854H6.69502Z" fill="#0B5454"/>
<path d="M12.4502 19.2704V17.7198C12.4502 17.4307 12.7155 17.0845 13.0398 17.0845C13.3641 17.0845 13.6294 17.4309 13.6294 17.7198V19.2704H12.4502Z" fill="#0B5454"/>
<path d="M14.2236 19.5419V17.9913C14.2236 17.7022 14.4717 17.356 14.775 17.356C15.0783 17.356 15.3264 17.7023 15.3264 17.9913V19.5419H14.2236Z" fill="#0B5454"/>
<path d="M15.7832 19.9854V18.4348C15.7832 18.1457 15.9939 17.7993 16.2513 17.7993C16.5087 17.7993 16.7194 18.1457 16.7194 18.4348V19.9854H15.7832Z" fill="#0B5454"/>
<path d="M20.0724 18.3037H2.35352V22.2219H20.0724V18.3037Z" fill="#166C70"/>
<path d="M20.0724 18.3037H2.35352V19.4802H20.0724V18.3037Z" fill="#248EA3"/>
<path d="M2.80648 19.3168V18.7719L2.65513 18.6831L2.50391 18.7719V19.3168L2.65513 19.4056L2.80648 19.3168Z" fill="#117B89"/>
<path d="M3.23519 19.3168V18.7719L3.08396 18.6831L2.93262 18.7719V19.3168L3.08396 19.4056L3.23519 19.3168Z" fill="#117B89"/>
<path d="M3.66378 19.3168V18.7719L3.51255 18.6831L3.36133 18.7719V19.3168L3.51255 19.4056L3.66378 19.3168Z" fill="#117B89"/>
<path d="M4.09346 19.3168V18.7719L3.94224 18.6831L3.79102 18.7719V19.3168L3.94224 19.4056L4.09346 19.3168Z" fill="#117B89"/>
<path d="M4.52217 19.3168V18.7719L4.37095 18.6831L4.21973 18.7719V19.3168L4.37095 19.4056L4.52217 19.3168Z" fill="#117B89"/>
<path d="M4.95101 19.3168V18.7719L4.79966 18.6831L4.64844 18.7719V19.3168L4.79966 19.4056L4.95101 19.3168Z" fill="#117B89"/>
<path d="M5.37972 19.3168V18.7719L5.22837 18.6831L5.07715 18.7719V19.3168L5.22837 19.4056L5.37972 19.3168Z" fill="#117B89"/>
<path d="M5.8094 19.3168V18.7719L5.65818 18.6831L5.50684 18.7719V19.3168L5.65818 19.4056L5.8094 19.3168Z" fill="#117B89"/>
<path d="M6.23811 19.3168V18.7719L6.08689 18.6831L5.93555 18.7719V19.3168L6.08689 19.4056L6.23811 19.3168Z" fill="#117B89"/>
<path d="M6.6667 19.3168V18.7719L6.51548 18.6831L6.36426 18.7719V19.3168L6.51548 19.4056L6.6667 19.3168Z" fill="#117B89"/>
<path d="M7.09639 19.3168V18.7719L6.94517 18.6831L6.79395 18.7719V19.3168L6.94517 19.4056L7.09639 19.3168Z" fill="#117B89"/>
<path d="M7.52522 19.3168V18.7719L7.37388 18.6831L7.22266 18.7719V19.3168L7.37388 19.4056L7.52522 19.3168Z" fill="#117B89"/>
<path d="M7.95394 19.3168V18.7719L7.80271 18.6831L7.65137 18.7719V19.3168L7.80271 19.4056L7.95394 19.3168Z" fill="#117B89"/>
<path d="M8.38265 19.3168V18.7719L8.23142 18.6831L8.08008 18.7719V19.3168L8.23142 19.4056L8.38265 19.3168Z" fill="#117B89"/>
<path d="M8.81136 19.3168V18.7719L8.66013 18.6831L8.50879 18.7719V19.3168L8.66013 19.4056L8.81136 19.3168Z" fill="#117B89"/>
<path d="M9.23995 19.3168V18.7719L9.08872 18.6831L8.9375 18.7719V19.3168L9.08872 19.4056L9.23995 19.3168Z" fill="#117B89"/>
<path d="M9.66963 19.3168V18.7719L9.51841 18.6831L9.36719 18.7719V19.3168L9.51841 19.4056L9.66963 19.3168Z" fill="#117B89"/>
<path d="M10.0985 19.3168V18.7719L9.94712 18.6831L9.7959 18.7719V19.3168L9.94712 19.4056L10.0985 19.3168Z" fill="#117B89"/>
<path d="M10.5272 19.3168V18.7719L10.3758 18.6831L10.2246 18.7719V19.3168L10.3758 19.4056L10.5272 19.3168Z" fill="#117B89"/>
<path d="M10.9569 19.3168V18.7719L10.8056 18.6831L10.6543 18.7719V19.3168L10.8056 19.4056L10.9569 19.3168Z" fill="#117B89"/>
<path d="M11.3856 19.3168V18.7719L11.2344 18.6831L11.083 18.7719V19.3168L11.2344 19.4056L11.3856 19.3168Z" fill="#117B89"/>
<path d="M11.8142 19.3168V18.7719L11.6629 18.6831L11.5117 18.7719V19.3168L11.6629 19.4056L11.8142 19.3168Z" fill="#117B89"/>
<path d="M12.243 19.3168V18.7719L12.0917 18.6831L11.9404 18.7719V19.3168L12.0917 19.4056L12.243 19.3168Z" fill="#117B89"/>
<path d="M12.6727 19.3168V18.7719L12.5213 18.6831L12.3701 18.7719V19.3168L12.5213 19.4056L12.6727 19.3168Z" fill="#117B89"/>
<path d="M13.1014 19.3168V18.7719L12.9501 18.6831L12.7988 18.7719V19.3168L12.9501 19.4056L13.1014 19.3168Z" fill="#117B89"/>
<path d="M13.5301 19.3168V18.7719L13.3789 18.6831L13.2275 18.7719V19.3168L13.3789 19.4056L13.5301 19.3168Z" fill="#117B89"/>
<path d="M13.9587 19.3168V18.7719L13.8075 18.6831L13.6562 18.7719V19.3168L13.8075 19.4056L13.9587 19.3168Z" fill="#117B89"/>
<path d="M14.3874 19.3168V18.7719L14.2362 18.6831L14.085 18.7719V19.3168L14.2362 19.4056L14.3874 19.3168Z" fill="#117B89"/>
<path d="M14.8161 19.3168V18.7719L14.6649 18.6831L14.5137 18.7719V19.3168L14.6649 19.4056L14.8161 19.3168Z" fill="#117B89"/>
<path d="M15.2459 19.3168V18.7719L15.0946 18.6831L14.9434 18.7719V19.3168L15.0946 19.4056L15.2459 19.3168Z" fill="#117B89"/>
<path d="M15.6746 19.3168V18.7719L15.5234 18.6831L15.3721 18.7719V19.3168L15.5234 19.4056L15.6746 19.3168Z" fill="#117B89"/>
<path d="M16.1033 19.3168V18.7719L15.9521 18.6831L15.8008 18.7719V19.3168L15.9521 19.4056L16.1033 19.3168Z" fill="#117B89"/>
<path d="M16.5329 19.3168V18.7719L16.3817 18.6831L16.2305 18.7719V19.3168L16.3817 19.4056L16.5329 19.3168Z" fill="#117B89"/>
<path d="M16.9616 19.3168V18.7719L16.8104 18.6831L16.6592 18.7719V19.3168L16.8104 19.4056L16.9616 19.3168Z" fill="#117B89"/>
<path d="M17.3905 19.3168V18.7719L17.2391 18.6831L17.0879 18.7719V19.3168L17.2391 19.4056L17.3905 19.3168Z" fill="#117B89"/>
<path d="M17.8192 19.3168V18.7719L17.6678 18.6831L17.5166 18.7719V19.3168L17.6678 19.4056L17.8192 19.3168Z" fill="#117B89"/>
<path d="M18.2479 19.3168V18.7719L18.0967 18.6831L17.9453 18.7719V19.3168L18.0967 19.4056L18.2479 19.3168Z" fill="#117B89"/>
<path d="M18.6766 19.3168V18.7719L18.5254 18.6831L18.374 18.7719V19.3168L18.5254 19.4056L18.6766 19.3168Z" fill="#117B89"/>
<path d="M19.1062 19.3168V18.7719L18.9549 18.6831L18.8037 18.7719V19.3168L18.9549 19.4056L19.1062 19.3168Z" fill="#117B89"/>
<path d="M19.5349 19.3168V18.7719L19.3836 18.6831L19.2324 18.7719V19.3168L19.3836 19.4056L19.5349 19.3168Z" fill="#117B89"/>
<path d="M19.9637 19.3168V18.7719L19.8124 18.6831L19.6611 18.7719V19.3168L19.8124 19.4056L19.9637 19.3168Z" fill="#117B89"/>
<path d="M20.0724 18.3037H2.35352V18.6235H20.0724V18.3037Z" fill="#71CCBD"/>
<path d="M3.54656 19.7393H2.35352V20.1142H3.54656V19.7393Z" fill="#0CA59D"/>
<path d="M4.92351 19.7393H3.73047V20.1142H4.92351V19.7393Z" fill="#0CA59D"/>
<path d="M6.30034 19.7393H5.10742V20.1142H6.30034V19.7393Z" fill="#0CA59D"/>
<path d="M7.67741 19.7393H6.48438V20.1142H7.67741V19.7393Z" fill="#0CA59D"/>
<path d="M9.05437 19.7393H7.86133V20.1142H9.05437V19.7393Z" fill="#0CA59D"/>
<path d="M10.4323 19.7393H9.23926V20.1142H10.4323V19.7393Z" fill="#0CA59D"/>
<path d="M11.8093 19.7393H10.6162V20.1142H11.8093V19.7393Z" fill="#0CA59D"/>
<path d="M13.1862 19.7393H11.9932V20.1142H13.1862V19.7393Z" fill="#0CA59D"/>
<path d="M14.5632 19.7393H13.3701V20.1142H14.5632V19.7393Z" fill="#0CA59D"/>
<path d="M15.9411 19.7393H14.748V20.1142H15.9411V19.7393Z" fill="#0CA59D"/>
<path d="M17.318 19.7393H16.125V20.1142H17.318V19.7393Z" fill="#0CA59D"/>
<path d="M18.695 19.7393H17.502V20.1142H18.695V19.7393Z" fill="#0CA59D"/>
<path d="M20.0719 19.7393H18.8789V20.1142H20.0719V19.7393Z" fill="#0CA59D"/>
<path d="M8.09111 20.5972H2.20605V27.5857H8.09111V20.5972Z" fill="#D3D3D3"/>
<path d="M19.9378 20.5146H2.35352V24.872H19.9378V20.5146Z" fill="#9BCCC5"/>
<path d="M20.0724 20.5146H2.35352V21.0445H20.0724V20.5146Z" fill="#0CA59D"/>
<path d="M4.84113 21.5684H2.93555V24.3903H4.84113V21.5684Z" fill="#185E89"/>
<path d="M4.51121 24.1587V22.5208C4.51121 22.2154 4.23098 21.8496 3.88836 21.8496C3.54586 21.8496 3.26562 22.2154 3.26562 22.5208V24.1586H4.51121V24.1587Z" fill="#1D414F"/>
<path d="M4.47803 24.1587V22.6081C4.47803 22.319 4.21272 21.9727 3.88843 21.9727C3.56414 21.9727 3.29883 22.319 3.29883 22.6081V24.1587H4.47803Z" fill="#145975"/>
<path d="M4.67883 24.2965H3.09863V22.4322C3.09863 22.0769 3.45108 21.6475 3.88873 21.6475C4.32638 21.6475 4.67883 22.0767 4.67883 22.4322V24.2965ZM3.17291 24.2262H4.60443V22.4322C4.60443 22.1087 4.28524 21.7179 3.88873 21.7179C3.49223 21.7179 3.17303 22.1087 3.17303 22.4322L3.17291 24.2262Z" fill="#248EA3"/>
<path d="M7.28742 21.5679H5.38184V24.3898H7.28742V21.5679Z" fill="#185E89"/>
<path d="M6.95763 24.1587V22.5208C6.95763 22.2154 6.67739 21.8496 6.33477 21.8496C5.99227 21.8496 5.71191 22.2154 5.71191 22.5208V24.1586H6.95763V24.1587Z" fill="#1D414F"/>
<path d="M6.92432 24.1587V22.6081C6.92432 22.319 6.65901 21.9727 6.33472 21.9727C6.01043 21.9727 5.74512 22.319 5.74512 22.6081V24.1587H6.92432Z" fill="#145975"/>
<path d="M7.12415 24.2961H5.54395V22.4317C5.54395 22.0764 5.89639 21.647 6.33404 21.647C6.77169 21.647 7.12415 22.0762 7.12415 22.4317V24.2961ZM5.61834 24.2257H7.04987V22.4317C7.04987 22.1082 6.73067 21.7174 6.33417 21.7174C5.93766 21.7174 5.61846 22.1082 5.61846 22.4317V24.2257H5.61834Z" fill="#248EA3"/>
<path d="M9.73273 21.5684H7.82715V24.3903H9.73273V21.5684Z" fill="#185E89"/>
<path d="M9.40294 24.1587V22.5208C9.40294 22.2154 9.1227 21.8496 8.78008 21.8496C8.43759 21.8496 8.15723 22.2154 8.15723 22.5208V24.1586H9.40294V24.1587Z" fill="#1D414F"/>
<path d="M9.36963 24.1587V22.6081C9.36963 22.319 9.10432 21.9727 8.78003 21.9727C8.45574 21.9727 8.19043 22.319 8.19043 22.6081V24.1587H9.36963Z" fill="#145975"/>
<path d="M9.57044 24.2965H7.99023V22.4322C7.99023 22.0769 8.34269 21.6475 8.78034 21.6475C9.21799 21.6475 9.57044 22.0767 9.57044 22.4322V24.2965ZM8.06451 24.2262H9.49604V22.4322C9.49604 22.1087 9.17684 21.7179 8.78034 21.7179C8.38383 21.7179 8.06463 22.1087 8.06463 22.4322V24.2262H8.06451Z" fill="#248EA3"/>
<path d="M12.178 21.5684H10.2725V24.3903H12.178V21.5684Z" fill="#185E89"/>
<path d="M11.8481 24.1587V22.5208C11.8481 22.2154 11.5679 21.8496 11.2254 21.8496C10.8829 21.8496 10.6025 22.2154 10.6025 22.5208V24.1586H11.8481V24.1587Z" fill="#1D414F"/>
<path d="M11.8149 24.1587V22.6081C11.8149 22.319 11.5496 21.9727 11.2253 21.9727C10.9011 21.9727 10.6357 22.319 10.6357 22.6081V24.1587H11.8149Z" fill="#145975"/>
<path d="M12.0148 24.2965H10.4346V22.4322C10.4346 22.0769 10.787 21.6475 11.2247 21.6475C11.6623 21.6475 12.0148 22.0767 12.0148 22.4322V24.2965ZM10.509 24.2262H11.9405V22.4322C11.9405 22.1087 11.6213 21.7179 11.2248 21.7179C10.8283 21.7179 10.5091 22.1087 10.5091 22.4322L10.509 24.2262Z" fill="#248EA3"/>
<path d="M14.6243 21.5679H12.7188V24.3898H14.6243V21.5679Z" fill="#185E89"/>
<path d="M16.9847 21.5679H15.0791V24.3898H16.9847V21.5679Z" fill="#185E89"/>
<path d="M14.2945 24.1587V22.5208C14.2945 22.2154 14.0143 21.8496 13.6717 21.8496C13.3292 21.8496 13.0488 22.2154 13.0488 22.5208V24.1586H14.2945V24.1587Z" fill="#1D414F"/>
<path d="M14.2612 24.1587V22.6081C14.2612 22.319 13.9959 21.9727 13.6716 21.9727C13.3473 21.9727 13.082 22.319 13.082 22.6081V24.1587H14.2612Z" fill="#145975"/>
<path d="M14.4611 24.2961H12.8809V22.4317C12.8809 22.0764 13.2333 21.647 13.671 21.647C14.1086 21.647 14.4611 22.0762 14.4611 22.4317V24.2961ZM12.9551 24.2257H14.3867V22.4317C14.3867 22.1082 14.0675 21.7174 13.671 21.7174C13.2745 21.7174 12.9553 22.1082 12.9553 22.4317V24.2257H12.9551Z" fill="#248EA3"/>
<path d="M2.93546 20.5137H2.35254V28.9313H2.93546V20.5137Z" fill="#BFDDDA"/>
<path d="M5.40324 20.5137H4.82031V28.9313H5.40324V20.5137Z" fill="#BFDDDA"/>
<path d="M7.8505 20.5137H7.26758V28.9313H7.8505V20.5137Z" fill="#BFDDDA"/>
<path d="M10.2958 20.5117H9.71289V28.9294H10.2958V20.5117Z" fill="#BFDDDA"/>
<path d="M12.7402 20.5117H12.1572V28.9294H12.7402V20.5117Z" fill="#BFDDDA"/>
<path d="M15.1855 20.5117H14.6025V28.9294H15.1855V20.5117Z" fill="#BFDDDA"/>
<path d="M17.6308 20.5117H17.0479V28.9294H17.6308V20.5117Z" fill="#BFDDDA"/>
<path d="M20.0712 20.5117H19.4883V28.9294H20.0712V20.5117Z" fill="#BFDDDA"/>
<path d="M2.93644 24.873H2.35352V28.9318H2.93644V24.873Z" fill="#E8E8E8"/>
<path d="M5.40422 24.873H4.82129V28.9318H5.40422V24.873Z" fill="#E8E8E8"/>
<path d="M7.85148 24.873H7.26855V28.9318H7.85148V24.873Z" fill="#E8E8E8"/>
<path d="M10.2968 24.8721H9.71387V28.9308H10.2968V24.8721Z" fill="#E8E8E8"/>
<path d="M12.7411 24.8721H12.1582V28.9308H12.7411V24.8721Z" fill="#E8E8E8"/>
<path d="M15.1855 24.8721H14.6025V28.9308H15.1855V24.8721Z" fill="#E8E8E8"/>
<path d="M17.6308 24.8721H17.0479V28.9308H17.6308V24.8721Z" fill="#E8E8E8"/>
<path d="M20.0722 24.8721H19.4893V28.9308H20.0722V24.8721Z" fill="#E8E8E8"/>
<path d="M20.0724 20.5146H2.35352V20.8896H20.0724V20.5146Z" fill="#8CE0D8"/>
<path d="M7.07023 25.3828H5.60156V27.652H7.07023V25.3828Z" fill="#BABAB1"/>
<path d="M9.51847 25.3823H8.0498V27.6515H9.51847V25.3823Z" fill="#BABAB1"/>
<path d="M9.41976 25.5347H8.14844V27.499H9.41976V25.5347Z" fill="#C6C6C6"/>
<path d="M11.9696 25.3823H10.501V27.6515H11.9696V25.3823Z" fill="#BABAB1"/>
<path d="M11.8709 25.5347H10.5996V27.499H11.8709V25.5347Z" fill="#C6C6C6"/>
<path d="M2.35315 22.2224C0.0578508 22.3775 1.74244 21.9135 -0.552734 22.0686C-0.552734 21.1979 -0.552734 20.3272 -0.552734 19.4564C1.74256 18.8659 0.0578508 18.8947 2.35315 18.3042C2.35315 19.6102 2.35315 20.9164 2.35315 22.2224Z" fill="#115959"/>
<path d="M2.35354 19.4807C0.0582444 19.9405 2.11073 19.4507 -0.18457 19.9104C-0.18457 19.5967 -0.18457 19.4398 -0.18457 19.126C2.11073 18.5356 0.0582444 18.8947 2.35354 18.3042C2.35354 18.7749 2.35354 19.0102 2.35354 19.4807Z" fill="#117B89"/>
<path d="M1.97784 19.3947C1.97784 19.1807 1.97784 19.0737 1.97784 18.8598C1.95429 18.8304 1.94252 18.8157 1.91909 18.7866C1.89555 18.827 1.88378 18.8472 1.86035 18.8874C1.86035 19.1001 1.86035 19.2064 1.86035 19.4192C1.8839 19.4489 1.89567 19.464 1.91909 19.4939C1.94252 19.4544 1.95429 19.4345 1.97784 19.3947Z" fill="#115959"/>
<path d="M2.14385 19.3599C2.14385 19.1442 2.14385 19.0363 2.14385 18.8205C2.12031 18.7909 2.10853 18.7761 2.08511 18.7466C2.06156 18.7872 2.04979 18.8076 2.02637 18.848C2.02637 19.0625 2.02637 19.1698 2.02637 19.3842C2.04991 19.4143 2.06168 19.4294 2.08511 19.4597C2.10853 19.4199 2.12031 19.4 2.14385 19.3599Z" fill="#115959"/>
<path d="M2.31084 19.3254C2.31084 19.1079 2.31084 18.9992 2.31084 18.7817C2.2873 18.7517 2.27552 18.7368 2.2521 18.707C2.22856 18.7481 2.21678 18.7684 2.19336 18.8092C2.19336 19.0255 2.19336 19.1336 2.19336 19.3498C2.2169 19.3801 2.22868 19.3954 2.2521 19.426C2.27565 19.386 2.28742 19.3658 2.31084 19.3254Z" fill="#115959"/>
<path d="M2.35311 18.6236C0.0578171 19.1785 1.1908 18.9387 -1.10449 19.4935C-1.10449 19.4082 -1.10449 19.3656 -1.10449 19.2803C1.1908 18.6899 0.0578171 18.8942 2.35311 18.3037C2.35311 18.4318 2.35311 18.4957 2.35311 18.6236Z" fill="#509B8C"/>
<path d="M1.81811 20.205C1.63266 20.2365 1.53994 20.2523 1.35449 20.2837C1.35449 20.141 1.35449 20.0696 1.35449 19.9269C1.53994 19.892 1.63266 19.8747 1.81811 19.8398C1.81811 19.986 1.81811 20.059 1.81811 20.205Z" fill="#509B8C"/>
<path d="M2.35327 20.1142C2.16782 20.1456 2.0751 20.1614 1.88965 20.1928C1.88965 20.0462 1.88965 19.9729 1.88965 19.8263C2.0751 19.7914 2.16782 19.7741 2.35327 19.7393C2.35327 19.8893 2.35327 19.9643 2.35327 20.1142Z" fill="#509B8C"/>
<path d="M2.35342 24.8839C2.26276 24.8606 2.21749 24.8489 2.12695 24.8256C2.12695 22.0506 2.12695 23.3214 2.12695 20.5463C2.21761 20.5327 2.26288 20.5259 2.35342 20.5122C2.35342 23.3181 2.35342 22.078 2.35342 24.8839Z" fill="#8BB7B0"/>
<path d="M27.4222 13.9242C27.6417 11.2163 25.6246 8.84322 22.9167 8.6237C20.2088 8.40418 17.8357 10.4214 17.6162 13.1292C17.3967 15.8371 19.4139 18.2102 22.1218 18.4297C24.8296 18.6492 27.2027 16.632 27.4222 13.9242Z" fill="white"/>
<ellipse cx="11.3974" cy="9.38423" rx="0.348584" ry="0.348584" stroke="#F29E25" stroke-width="0.2"/>
<ellipse cx="24.2252" cy="11.3985" rx="0.278867" ry="0.278867" stroke="#112236" stroke-width="0.2"/>
<path d="M24.3919 11.8666C24.3919 11.9692 24.3197 12.0525 24.2306 12.0525C24.1415 12.0525 24.0693 11.9692 24.0693 11.8666C24.0693 11.764 24.1415 11.6807 24.2306 11.6807C24.3199 11.6807 24.3919 11.764 24.3919 11.8666Z" fill="#112236"/>
<path d="M24.4099 12.4942C24.4099 12.7895 24.3299 13.0291 24.2313 13.0291C24.1327 13.0291 24.0527 12.7897 24.0527 12.4942C24.0527 12.1989 24.1327 11.9595 24.2313 11.9595C24.3299 11.9595 24.4099 12.1989 24.4099 12.4942Z" fill="#112236"/>
<path d="M24.532 13.2531C24.532 13.4445 24.3974 13.5999 24.2313 13.5999C24.0653 13.5999 23.9307 13.4445 23.9307 13.2531C23.9307 13.0616 24.0653 12.9062 24.2313 12.9062C24.3974 12.9062 24.532 13.0616 24.532 13.2531Z" fill="#3F5064"/>
<path d="M29.2586 19.3148C29.2586 21.9594 26.9839 22.8115 24.178 22.8115C21.3721 22.8115 19.0977 21.9594 19.0977 19.3148C19.0977 16.6703 21.0496 13.2349 24.178 13.2349C27.4311 13.2349 29.2586 16.6703 29.2586 19.3148Z" fill="#112236"/>
<path d="M28.3504 19.3148C28.3504 21.9594 26.4811 22.8115 24.1752 22.8115C21.8693 22.8115 20 21.9594 20 19.3148C20 16.6703 21.604 13.2349 24.1752 13.2349C26.8487 13.2349 28.3504 16.6703 28.3504 19.3148Z" fill="#203144"/>
<path d="M27.1351 19.3148C27.1351 21.9594 25.8607 22.8115 24.2887 22.8115C22.7168 22.8115 21.4424 21.9594 21.4424 19.3148C21.4424 16.6703 22.5359 13.2349 24.2887 13.2349C26.1113 13.2349 27.1351 16.6703 27.1351 19.3148Z" fill="#2C3E54"/>
<path d="M25.4322 19.3148C25.4322 21.9594 24.8963 22.8115 24.2351 22.8115C23.5739 22.8115 23.0381 21.9594 23.0381 19.3148C23.0381 16.6703 23.4981 13.2349 24.2351 13.2349C25.0015 13.2349 25.4322 16.6703 25.4322 19.3148Z" fill="#3F5064"/>
<path d="M24.0827 21.9525C27.201 21.9525 29.7289 21.0412 29.7289 19.9172C29.7289 18.7931 27.201 17.8818 24.0827 17.8818C20.9644 17.8818 18.4365 18.7931 18.4365 19.9172C18.4365 21.0412 20.9644 21.9525 24.0827 21.9525Z" fill="#445365"/>
<path d="M24.0827 22.2757C27.201 22.2757 29.7289 21.3645 29.7289 20.2404C29.7289 19.1163 27.201 18.2051 24.0827 18.2051C20.9644 18.2051 18.4365 19.1163 18.4365 20.2404C18.4365 21.3645 20.9644 22.2757 24.0827 22.2757Z" fill="#203144"/>
<path d="M24.0825 18.6167C21.2653 18.6167 18.9814 19.3919 18.9814 20.3479V21.5458V22.0792H29.1836V20.3479C29.1836 19.3919 26.8998 18.6167 24.0825 18.6167Z" fill="#2C3E54"/>
<path d="M24.611 21.0199V19.4552C24.611 19.1635 24.3788 18.814 24.0951 18.814C23.8113 18.814 23.5791 19.1635 23.5791 19.4552V21.0199H24.611Z" fill="#3F5064"/>
<path d="M23.0456 21.1766V19.612C23.0456 19.3203 22.8134 18.9707 22.5296 18.9707C22.2459 18.9707 22.0137 19.3203 22.0137 19.612V21.1766H23.0456Z" fill="#3F5064"/>
<path d="M21.4941 21.4505V19.8859C21.4941 19.5942 21.277 19.2446 21.0117 19.2446C20.7464 19.2446 20.5293 19.5942 20.5293 19.8859V21.4505H21.4941Z" fill="#3F5064"/>
<path d="M20.13 21.8986V20.3339C20.13 20.0422 19.9455 19.6929 19.7203 19.6929C19.495 19.6929 19.3105 20.0424 19.3105 20.3339V21.8986H20.13Z" fill="#3F5064"/>
<path d="M25.165 21.1766V19.612C25.165 19.3203 25.3972 18.9707 25.681 18.9707C25.9647 18.9707 26.1969 19.3203 26.1969 19.612V21.1766H25.165Z" fill="#3F5064"/>
<path d="M26.7178 21.4505V19.8859C26.7178 19.5942 26.9349 19.2446 27.2002 19.2446C27.4655 19.2446 27.6826 19.5942 27.6826 19.8859V21.4505H26.7178Z" fill="#3F5064"/>
<path d="M28.082 21.8986V20.3339C28.082 20.0422 28.2664 19.6929 28.4917 19.6929C28.717 19.6929 28.9014 20.0424 28.9014 20.3339V21.8986H28.082Z" fill="#0B5454"/>
<path d="M32.7051 21.1804L32.1825 27.7696L12.4307 32.1834V22.3794L32.7051 17.8018V21.1804Z" fill="#F7E3AE"/>
<path d="M28.0602 29.1606C28.0602 27.771 27.6161 25.0464 26.1144 23.9292C26.1144 23.9292 24.6338 25.3461 24.6338 29.2424C24.6338 31.9204 24.6338 29.7771 24.6338 30.7474L28.0602 30.8962C28.0602 29.425 28.0602 30.2294 28.0602 29.1606Z" fill="#E4C77A"/>
<path d="M25.0005 29.4825C25.0005 25.9753 26.1995 24.4778 26.4392 24.2135C26.3367 24.1108 26.229 24.0153 26.1144 23.9302C26.1144 23.9302 24.6338 25.3471 24.6338 29.2433C24.6338 31.9214 24.6338 33.8913 24.6338 34.8616L25.0005 34.8776C25.0005 33.8459 25.0005 31.9705 25.0005 29.4825Z" fill="#D8AE3E"/>
<path d="M26.6758 26.4497C26.6758 26.0138 26.575 25.7204 26.2738 25.3325C25.9882 25.7003 25.8721 26.0136 25.8721 26.4633C25.8721 26.8293 25.8721 28.0072 25.8721 28.4331L26.6758 28.3499C26.6758 27.866 26.6758 26.7846 26.6758 26.4497Z" fill="#D8AE3E"/>
<path d="M25.8271 28.4891V26.463C25.8271 26.0077 25.943 25.6811 26.2404 25.2978L26.2737 25.2549L26.3071 25.2978C26.6122 25.691 26.7203 25.9921 26.7203 26.4494V28.3969L25.8271 28.4891ZM26.2739 25.4104C26.0143 25.7574 25.9168 26.0479 25.9168 26.463V28.3764L26.6311 28.3026V26.4494C26.6308 26.0385 26.5367 25.7608 26.2739 25.4104Z" fill="#C99B2A"/>
<path d="M24.2381 29.7622C24.2381 28.3726 23.8144 25.648 22.382 24.5308C22.382 24.5308 20.9697 25.9476 20.9697 29.8439C20.9697 31.9476 20.9697 31.137 20.9697 32.2255L24.2381 32.3673C24.2381 30.7262 24.2381 30.6715 24.2381 29.7622Z" fill="#E4C77A"/>
<path d="M21.3195 30.0835C21.3195 26.5764 22.4631 25.0788 22.6917 24.8146C22.5939 24.7119 22.4912 24.6163 22.382 24.5312C22.382 24.5312 20.9697 25.9481 20.9697 29.8444C20.9697 31.9481 20.9697 33.6137 20.9697 34.7022L21.3195 34.7175C21.3195 33.6303 21.3195 32.048 21.3195 30.0835Z" fill="#D8AE3E"/>
<path d="M22.917 27.0508C22.917 26.6149 22.8208 26.3215 22.5337 25.9336C22.2613 26.3014 22.1504 26.6147 22.1504 27.0644C22.1504 27.3796 22.1504 28.2967 22.1504 28.8175L22.917 28.7382C22.917 28.2017 22.917 27.3427 22.917 27.0508Z" fill="#D8AE3E"/>
<path d="M22.1064 28.8723V27.0643C22.1064 26.6098 22.2169 26.2837 22.5002 25.9008L22.5335 25.856L22.5669 25.9008C22.8575 26.2935 22.9606 26.5943 22.9606 27.0507V28.784L22.1064 28.8723ZM22.5333 26.0121C22.2896 26.3549 22.1936 26.6546 22.1936 27.0643V28.7622L22.873 28.6918V27.0507C22.873 26.6395 22.7833 26.3619 22.5333 26.0121Z" fill="#C99B2A"/>
<path d="M20.6707 30.2632C20.6707 28.8735 20.2989 26.1489 19.0419 25.0317C19.0419 25.0317 17.8027 26.4486 17.8027 30.3449C17.8027 32.0724 17.8027 32.1023 17.8027 33.1623L20.6707 33.2868C20.6707 31.6909 20.6707 31.0583 20.6707 30.2632Z" fill="#E4C77A"/>
<path d="M18.1095 30.5842C18.1095 27.0771 19.1132 25.5795 19.3137 25.3153C19.2278 25.2126 19.1377 25.117 19.0419 25.0317C19.0419 25.0317 17.8027 26.4486 17.8027 30.3449C17.8027 32.0724 17.8027 33.5044 17.8027 34.5643L18.1098 34.5778C18.1095 33.544 18.1095 32.1918 18.1095 30.5842Z" fill="#D8AE3E"/>
<path d="M19.5116 27.5523C19.5116 27.1164 19.4271 26.823 19.1752 26.4351C18.9361 26.8029 18.8389 27.1162 18.8389 27.5659C18.8389 27.8511 18.8389 28.629 18.8389 29.1603L19.5116 29.0907C19.5116 28.5561 19.5116 27.8184 19.5116 27.5523Z" fill="#D8AE3E"/>
<path d="M18.7979 29.2118V27.5659C18.7979 27.1134 18.8945 26.7884 19.1424 26.4067L19.1751 26.3564L19.2078 26.4067C19.4622 26.7982 19.5523 27.0981 19.5523 27.5522V29.1339L18.7979 29.2118ZM19.1751 26.5149C18.963 26.8565 18.8796 27.1564 18.8796 27.5659V29.1087L19.4706 29.0477V27.5522C19.4706 27.1413 19.3924 26.8632 19.1751 26.5149Z" fill="#C99B2A"/>
<path d="M17.4248 30.564C17.4248 29.1743 17.1042 26.4497 16.0205 25.3325C16.0205 25.3325 14.9521 26.7494 14.9521 30.6457C14.9521 32.1525 14.9521 31.8054 14.9521 32.812L17.4248 32.9193C17.4248 31.4081 17.4248 31.2872 17.4248 30.564Z" fill="#E4C77A"/>
<path d="M15.2166 30.885C15.2166 27.3779 16.0819 25.8803 16.2548 25.6161C16.1808 25.5134 16.1031 25.4178 16.0205 25.3325C16.0205 25.3325 14.9521 26.7494 14.9521 30.6457C14.9521 32.1525 14.9521 33.4338 14.9521 34.4403L15.2168 34.4519C15.2166 33.4828 15.2166 32.2803 15.2166 30.885Z" fill="#D8AE3E"/>
<path d="M16.4258 27.8526C16.4258 27.4167 16.3531 27.1233 16.1357 26.7354C15.9297 27.1031 15.8457 27.4164 15.8457 27.8662C15.8457 28.1529 15.8457 28.9377 15.8457 29.469L16.4258 29.409C16.4258 28.8729 16.4258 28.1216 16.4258 27.8526Z" fill="#D8AE3E"/>
<path d="M15.8076 29.5171V27.8663C15.8076 27.4159 15.8906 27.0922 16.1037 26.7118L16.1356 26.6548L16.1674 26.7118C16.386 27.102 16.4636 27.4004 16.4636 27.8527V29.4494L15.8076 29.5171ZM16.1356 26.8176C15.9547 27.1577 15.8835 27.4576 15.8835 27.8663V29.4213L16.3875 29.3693V27.8527C16.3877 27.4423 16.3208 27.164 16.1356 26.8176Z" fill="#C99B2A"/>
<path d="M29.6302 20.4593C29.6302 20.0316 29.5313 19.7439 29.236 19.3633C28.9558 19.7242 28.8418 20.0316 28.8418 20.4727C28.8418 20.7261 28.8418 21.3766 28.8418 21.8842L29.6304 21.7356C29.6302 21.2483 29.6302 20.6833 29.6302 20.4593Z" fill="#E0B856"/>
<path d="M28.7969 21.9439V20.4729C28.7969 20.0261 28.9105 19.7057 29.2024 19.3297L29.2351 19.2876L29.2678 19.3297C29.567 19.7153 29.6731 20.011 29.6731 20.4595V21.7787L28.7969 21.9439ZM29.2351 19.44C28.9802 19.7805 28.8847 20.0655 28.8847 20.4727V21.8248L29.5855 21.6928V20.4595C29.5853 20.0563 29.4929 19.7839 29.2351 19.44Z" fill="#C99B2A"/>
<path d="M28.4889 20.6925C28.4889 20.269 28.391 19.9839 28.0984 19.6069C27.821 19.9645 27.708 20.2688 27.708 20.7057C27.708 20.9559 27.708 21.5964 27.708 22.0985L28.4889 21.9514C28.4889 21.4698 28.4889 20.9136 28.4889 20.6925Z" fill="#E0B856"/>
<path d="M27.6641 22.1572V20.7055C27.6641 20.2631 27.7766 19.9456 28.0656 19.5734L28.0979 19.5317L28.1301 19.5734C28.4267 19.9555 28.5317 20.2482 28.5317 20.6923V21.9937L27.6641 22.1572ZM28.0981 19.6826C27.8458 20.0198 27.751 20.3019 27.751 20.7055V22.0394L28.4451 21.9084V20.6923C28.4451 20.2927 28.3535 20.023 28.0981 19.6826Z" fill="#C99B2A"/>
<path d="M27.3475 20.9245C27.3475 20.5049 27.2505 20.2228 26.9609 19.8496C26.6861 20.2036 26.5742 20.5051 26.5742 20.9377C26.5742 21.1846 26.5742 21.8154 26.5742 22.3118L27.3475 22.166C27.3475 21.6902 27.3475 21.1426 27.3475 20.9245Z" fill="#E0B856"/>
<path d="M26.5312 22.3701V20.9377C26.5312 20.4995 26.6427 20.1851 26.9288 19.8167L26.9609 19.7754L26.9929 19.8167C27.2865 20.1949 27.3905 20.4848 27.3905 20.9247V22.2081L26.5312 22.3701ZM26.9611 19.9248C26.7144 20.2553 26.6174 20.5435 26.6174 20.9377V22.2533L27.3048 22.1236V20.9245C27.3046 20.529 27.214 20.2618 26.9611 19.9248Z" fill="#C99B2A"/>
<path d="M26.2062 21.1572C26.2062 20.7418 26.1102 20.4625 25.8233 20.0928C25.5513 20.4432 25.4404 20.7418 25.4404 21.1702C25.4404 21.4137 25.4404 22.0348 25.4404 22.5254L26.2062 22.381C26.2062 21.9114 26.2062 21.3724 26.2062 21.1572Z" fill="#E0B856"/>
<path d="M25.3984 22.5833V21.17C25.3984 20.7362 25.5089 20.425 25.7922 20.0599L25.8241 20.019L25.8559 20.0599C26.1466 20.4344 26.2495 20.7215 26.2495 21.157V22.4228L25.3984 22.5833ZM25.8239 20.1672C25.5766 20.4979 25.4835 20.7745 25.4835 21.1702V22.4678L26.164 22.3394V21.1572C26.1642 20.7655 26.0743 20.501 25.8239 20.1672Z" fill="#C99B2A"/>
<path d="M25.0658 21.3901C25.0658 20.979 24.9707 20.7021 24.6867 20.3364C24.4174 20.6835 24.3076 20.979 24.3076 21.4031C24.3076 21.6433 24.3076 22.2548 24.3076 22.7398L25.0658 22.5968C25.0658 22.1328 25.0658 21.6024 25.0658 21.3901Z" fill="#E0B856"/>
<path d="M24.2656 22.7966V21.4028C24.2656 20.9732 24.3748 20.6651 24.6554 20.3036L24.6869 20.2632L24.7183 20.3036C25.006 20.6744 25.1081 20.9585 25.1081 21.3898V22.6376L24.2656 22.7966ZM24.6869 20.4097C24.4419 20.737 24.3499 21.0109 24.3499 21.4026V22.682L25.0236 22.555V21.3898C25.0236 21.0021 24.9348 20.7402 24.6869 20.4097Z" fill="#C99B2A"/>
<path d="M23.9245 21.6223C23.9245 21.2151 23.8304 20.9412 23.5492 20.5791C23.2826 20.9226 23.1738 21.2151 23.1738 21.6351C23.1738 21.8721 23.1738 22.4738 23.1738 22.9531L23.9243 22.8116C23.9245 22.3535 23.9245 21.8317 23.9245 21.6223Z" fill="#E0B856"/>
<path d="M23.1318 23.0095V21.6349C23.1318 21.2097 23.24 20.9046 23.5177 20.5469L23.5487 20.5068L23.5797 20.5469C23.8647 20.914 23.9657 21.1953 23.9657 21.6222V22.8521L23.1318 23.0095ZM23.5489 20.6521C23.3064 20.9761 23.2155 21.2472 23.2155 21.6351V22.8963L23.8825 22.7706V21.6224C23.8823 21.2384 23.7943 20.9792 23.5489 20.6521Z" fill="#C99B2A"/>
<path d="M22.7839 21.8548C22.7839 21.4518 22.6907 21.1806 22.4124 20.8223C22.1485 21.1622 22.041 21.452 22.041 21.8676C22.041 22.1013 22.041 22.6933 22.041 23.1667L22.7839 23.0267C22.7839 22.5747 22.7839 22.0612 22.7839 21.8548Z" fill="#E0B856"/>
<path d="M21.999 23.2228V21.8676C21.999 21.4465 22.1061 21.1448 22.3811 20.7906L22.4119 20.751L22.4427 20.7906C22.7248 21.154 22.8247 21.4325 22.8247 21.855V23.0673L21.999 23.2228ZM22.4121 20.8945C22.1751 21.2118 22.0818 21.4889 22.0818 21.8676V23.1107L22.7419 22.9862V21.855C22.7419 21.475 22.655 21.2185 22.4121 20.8945Z" fill="#C99B2A"/>
<path d="M21.6434 22.0875C21.6434 21.6887 21.5512 21.4202 21.2758 21.0654C21.0145 21.402 20.9082 21.6887 20.9082 22.1001C20.9082 22.3304 20.9082 22.9128 20.9082 23.3805L21.6436 23.2418C21.6434 22.7956 21.6434 22.2908 21.6434 22.0875Z" fill="#E0B856"/>
<path d="M20.8662 23.4354V22.0994C20.8662 21.6828 20.9723 21.3839 21.2443 21.0333L21.2747 20.9941L21.305 21.0333C21.5842 21.393 21.6831 21.6687 21.6831 22.087V23.2814L20.8662 23.4354ZM21.2749 21.1362C21.0404 21.4504 20.9479 21.7245 20.9479 22.0994V23.3243L21.6016 23.2011V22.087C21.6016 21.7107 21.5155 21.4569 21.2749 21.1362Z" fill="#C99B2A"/>
<path d="M20.502 22.3197C20.502 21.9249 20.4109 21.6593 20.1382 21.3081C19.8796 21.6411 19.7744 21.9249 19.7744 22.3321C19.7744 22.5592 19.7744 23.1318 19.7744 23.5939L20.5022 23.4566C20.502 23.0165 20.502 22.5202 20.502 22.3197Z" fill="#E0B856"/>
<path d="M19.7334 23.6485V22.3317C19.7334 21.9195 19.8384 21.6236 20.1077 21.2766L20.1379 21.2378L20.168 21.2768C20.4443 21.6326 20.5421 21.9057 20.5421 22.3194V23.4961L19.7334 23.6485ZM20.1379 21.3784C19.9057 21.6892 19.8145 21.9606 19.8145 22.3315V23.5384L20.4612 23.4165V22.3194C20.4612 21.9472 20.3759 21.6959 20.1379 21.3784Z" fill="#C99B2A"/>
<path d="M19.3607 22.5522C19.3607 22.1615 19.2704 21.8987 19.0007 21.5513C18.7448 21.8809 18.6406 22.1615 18.6406 22.5645C18.6406 22.7883 18.6406 23.3515 18.6406 23.8075L19.3607 23.6717C19.3607 23.2377 19.3607 22.7498 19.3607 22.5522Z" fill="#E0B856"/>
<path d="M18.6006 23.8618V22.5644C18.6006 22.1563 18.7043 21.8636 18.9709 21.5203L19.0009 21.4819L19.0308 21.5205C19.3043 21.8726 19.4011 22.1427 19.4011 22.5522V23.7111L18.6006 23.8618ZM19.0007 21.6211C18.768 21.9319 18.6806 22.1922 18.6806 22.5644V23.753L19.3207 23.6325V22.5522C19.3207 22.1838 19.2362 21.935 19.0007 21.6211Z" fill="#C99B2A"/>
<path d="M18.2194 22.7848C18.2194 22.3984 18.1301 22.1383 17.8631 21.7944C17.6099 22.1205 17.5068 22.3984 17.5068 22.797C17.5068 23.0177 17.5068 23.5709 17.5068 24.0213L18.2194 23.887C18.2194 23.4588 18.2194 22.9795 18.2194 22.7848Z" fill="#E0B856"/>
<path d="M17.4678 24.0748V22.7967C17.4678 22.3931 17.5705 22.1034 17.8341 21.7637L17.8636 21.7256L17.8932 21.7637C18.1637 22.1122 18.2595 22.3794 18.2595 22.7847V23.9256L17.4678 24.0748ZM17.8636 21.8635C17.6335 22.1713 17.547 22.4287 17.547 22.7969V23.9675L18.1803 23.8481V22.7847C18.1803 22.4203 18.0967 22.1741 17.8636 21.8635Z" fill="#C99B2A"/>
<path d="M17.079 23.0175C17.079 22.6351 16.9906 22.3779 16.7265 22.0376C16.4761 22.3601 16.374 22.6351 16.374 23.0295C16.374 23.2468 16.374 23.7906 16.374 24.2351L17.079 24.1023C17.079 23.6802 17.079 23.2093 17.079 23.0175Z" fill="#E0B856"/>
<path d="M16.335 24.2884V23.0295C16.335 22.6299 16.4366 22.3434 16.6975 22.0074L16.7266 21.9697L16.7558 22.0074C17.0234 22.3524 17.1183 22.6165 17.1183 23.0176V24.1406L16.335 24.2884ZM16.7266 22.1062C16.5018 22.4073 16.4133 22.6701 16.4133 23.0295V24.1819L17.0397 24.0637V23.0176C17.0397 22.6571 16.9572 22.4138 16.7266 22.1062Z" fill="#C99B2A"/>
<path d="M15.9377 23.2495C15.9377 22.8713 15.8503 22.6166 15.589 22.2803C15.3412 22.5994 15.2402 22.8713 15.2402 23.2615C15.2402 23.4754 15.2402 24.0096 15.2402 24.4485L15.9377 24.3171C15.9377 23.9007 15.9377 23.4383 15.9377 23.2495Z" fill="#E0B856"/>
<path d="M15.2012 24.5012V23.2616C15.2012 22.8666 15.3018 22.5831 15.5597 22.2507L15.5887 22.2134L15.6176 22.2507C15.8823 22.5917 15.9762 22.8532 15.9762 23.2497V24.355L15.2012 24.5012ZM15.5887 22.3483C15.3634 22.6495 15.2787 22.9014 15.2787 23.2618V24.396L15.8984 24.2793V23.2501C15.8986 22.8932 15.8169 22.6524 15.5887 22.3483Z" fill="#C99B2A"/>
<path d="M14.7963 23.4827C14.7963 23.1086 14.7098 22.8567 14.4514 22.5239C14.2064 22.8395 14.1064 23.1084 14.1064 23.4944C14.1064 23.7053 14.1064 24.2298 14.1064 24.6626L14.7961 24.5324C14.7963 24.1225 14.7963 23.6686 14.7963 23.4827Z" fill="#E0B856"/>
<path d="M14.0684 24.7146V23.4942C14.0684 23.1036 14.1677 22.8232 14.4229 22.4944L14.4514 22.4575L14.4799 22.4944C14.7419 22.8316 14.8345 23.0904 14.8345 23.4825V24.57L14.0684 24.7146ZM14.4517 22.5908C14.2289 22.8886 14.1451 23.1378 14.1451 23.4942V24.6104L14.758 24.4949V23.4827C14.7583 23.1298 14.6774 22.8915 14.4517 22.5908Z" fill="#C99B2A"/>
<path d="M13.6558 23.7149C13.6558 23.3448 13.5703 23.0958 13.3146 22.7666C13.0723 23.0789 12.9736 23.3448 12.9736 23.7264C12.9736 23.9339 12.9736 24.449 12.9736 24.8759L13.6558 24.7472C13.6558 24.3434 13.6558 23.8979 13.6558 23.7149Z" fill="#E0B856"/>
<path d="M12.9355 24.9274V23.7266C12.9355 23.3401 13.0338 23.0629 13.2864 22.7376L13.3147 22.7012L13.3429 22.7376C13.602 23.0713 13.6936 23.3269 13.6936 23.7151V24.7847L12.9355 24.9274ZM13.3147 22.8328C13.0942 23.1274 13.0114 23.3741 13.0114 23.7264V24.8243L13.6177 24.7101V23.7149C13.6177 23.3657 13.5376 23.1302 13.3147 22.8328Z" fill="#C99B2A"/>
<path d="M8.43052 22.8555H9.45446V25.3326H8.09961L8.43052 22.8555Z" fill="#E4C77A"/>
<path d="M10.5569 22.1343L9.2574 22.575V24.5491L8.43023 24.8488V22.8554L7.3432 23.224V32.1702L10.5569 32.3672L10.8878 27.7972L10.5569 22.1343Z" fill="#F7E3AE"/>
<path d="M10.5569 32.3672L12.4471 32.043V22.3782L10.5569 22.1343V32.3672Z" fill="#E4C77A"/>
<path d="M5.92185 26.502L4.88574 26.9144V28.7998L5.92197 29.1735L5.92185 26.502Z" fill="#DDB357"/>
<path d="M5.92197 29.1735H8.09938V26.6692L5.92197 26.5016V29.1735Z" fill="#E0B856"/>
</g>
<defs>
<linearGradient id="paint0_linear_1979_835" x1="16" y1="0" x2="16" y2="32" gradientUnits="userSpaceOnUse">
<stop offset="0.123078" stop-color="#FFB800"/>
<stop offset="1" stop-color="#E7A115"/>
</linearGradient>
<linearGradient id="paint1_linear_1979_835" x1="16" y1="0" x2="16" y2="32" gradientUnits="userSpaceOnUse">
<stop stop-color="white"/>
<stop offset="1" stop-color="white" stop-opacity="0"/>
</linearGradient>
</defs>
</svg>
