<?xml version="1.0" encoding="utf-8"?>
<!-- Generator: Adobe Illustrator 26.0.1, SVG Export Plug-In . SVG Version: 6.00 Build 0)  -->
<svg version="1.1" id="Layer_1" xmlns="http://www.w3.org/2000/svg" xmlns:xlink="http://www.w3.org/1999/xlink" x="0px" y="0px"
	 viewBox="0 0 501.45 223.65" style="enable-background:new 0 0 501.45 223.65;" xml:space="preserve">
<style type="text/css">
	.st0{fill:#E52629;}
	.st1{fill:#FFFFFF;}
	.st2{fill:#44883F;}
</style>
<g>
	<g>
		<g>
			<path class="st0" d="M30.33,223.65h440.78c16.75,0,30.33-13.58,30.33-30.33V30.33C501.45,13.58,487.87,0,471.12,0H30.33
				C13.58,0,0,13.58,0,30.33v162.99C0,210.07,13.58,223.65,30.33,223.65z"/>
		</g>
	</g>
</g>
<g>
	<g>
		<g>
			<g>
				<path class="st1" d="M421.84,139.43c-27.04,0-49.04-22-49.04-49.04c0-27.04,22-49.04,49.04-49.04c27.04,0,49.04,22,49.04,49.04
					C470.88,117.43,448.88,139.43,421.84,139.43z M421.84,62.32c-15.48,0-28.07,12.59-28.07,28.07c0,15.48,12.59,28.07,28.07,28.07
					c15.48,0,28.07-12.59,28.07-28.07C449.91,74.91,437.32,62.32,421.84,62.32z"/>
			</g>
			<g>
				<g>
					<path class="st1" d="M124.07,136.75c0,0.56,0.45,1.01,1.01,1.01h18.85c0.56,0,1.01-0.45,1.01-1.01V44.09
						c0-0.56-0.45-1.01-1.01-1.01h-18.85c-0.56,0-1.01,0.45-1.01,1.01V136.75z"/>
				</g>
				<g>
					<path class="st1" d="M149.56,43.08c-0.56,0-1.01,0.45-1.01,1.01v18.85c0,0.56,0.45,1.01,1.01,1.01H190
						c0.56,0,1.01-0.45,1.01-1.01V44.09c0-0.56-0.45-1.01-1.01-1.01H149.56z"/>
				</g>
				<g>
					<path class="st1" d="M149.56,79.86c-0.56,0-1.01,0.45-1.01,1.01v18.85c0,0.56,0.45,1.01,1.01,1.01h33.48
						c0.56,0,1.01-0.45,1.01-1.01V80.87c0-0.56-0.45-1.01-1.01-1.01H149.56z"/>
				</g>
				<g>
					<path class="st1" d="M149.56,116.9c-0.56,0-1.01,0.45-1.01,1.01v18.85c0,0.56,0.45,1.01,1.01,1.01H190
						c0.56,0,1.01-0.45,1.01-1.01v-18.85c0-0.56-0.45-1.01-1.01-1.01H149.56z"/>
				</g>
			</g>
			<path class="st1" d="M285.61,43.08h-18.85c-0.56,0-1.01,0.45-1.01,1.01v83.04l-42.27-79.5c-0.26-0.49-0.87-0.68-1.37-0.42
				l-3.28,1.74v-4.87c0-0.56-0.45-1.01-1.01-1.01h-18.85c-0.56,0-1.01,0.45-1.01,1.01v92.66c0,0.56,0.45,1.01,1.01,1.01h18.85
				c0.56,0,1.01-0.45,1.01-1.01V53.71l42.27,79.5c0.26,0.49,0.87,0.68,1.37,0.42l3.28-1.74v4.87c0,0.56,0.45,1.01,1.01,1.01h18.85
				c0.56,0,1.01-0.45,1.01-1.01V44.09C286.62,43.53,286.17,43.08,285.61,43.08z"/>
			<path class="st1" d="M369.26,62.94V44.09c0-0.56-0.45-1.01-1.01-1.01h-73.66c-0.56,0-1.01,0.45-1.01,1.01v18.85
				c0,0.56,0.45,1.01,1.01,1.01h48.55l-42.27,42.27c-0.39,0.39-0.39,1.03,0,1.43l9.25,9.25h-15.53c-0.56,0-1.01,0.45-1.01,1.01
				v18.85c0,0.56,0.45,1.01,1.01,1.01h73.66c0.56,0,1.01-0.45,1.01-1.01v-18.85c0-0.56-0.45-1.01-1.01-1.01H319.7l42.27-42.27
				c0.39-0.39,0.39-1.03,0-1.43l-9.25-9.25h15.53C368.8,63.95,369.26,63.5,369.26,62.94z"/>
			<g>
				<g>
					<path class="st1" d="M39.93,136.75c0,0.56,0.45,1.01,1.01,1.01h18.85c0.56,0,1.01-0.45,1.01-1.01V44.09
						c0-0.56-0.45-1.01-1.01-1.01H40.94c-0.56,0-1.01,0.45-1.01,1.01V136.75z"/>
				</g>
				<path class="st1" d="M116.82,126.17L81.07,90.42l35.7-35.7c0.39-0.39,0.39-1.03,0-1.43l-13.33-13.33
					c-0.39-0.39-1.04-0.39-1.43,0L64.57,77.41c-0.39,0.39-0.39,1.03,0,1.43l11.58,11.58L64.57,102c-0.39,0.39-0.39,1.04,0,1.43
					l37.49,37.49c0.39,0.39,1.03,0.39,1.43,0l13.33-13.33C117.22,127.21,117.22,126.57,116.82,126.17z"/>
			</g>
		</g>
		<g>
			<g>
				<path class="st2" d="M69.53,173.32c-1.06,0.78-3.15,1.17-6.27,1.17H44.27c-0.31,0-0.56-0.25-0.56-0.56v-11.56
					c0-0.31,0.25-0.56,0.56-0.56h21.14c2.18,0,3.68,0.44,4.49,1.31c0.81,0.87,1.22,2.4,1.22,4.58
					C71.12,170.67,70.59,172.54,69.53,173.32 M65.79,158.63h-25.3c-0.31,0-0.56,0.25-0.56,0.56v30.08c0,0.31,0.25,0.56,0.56,0.56
					h2.67c0.31,0,0.56-0.25,0.56-0.56v-11.09c0-0.31,0.25-0.56,0.56-0.56h21.28c2.18,0,3.82-0.18,4.91-0.54
					c1.09-0.36,2-0.91,2.74-1.66c0.73-0.75,1.22-1.81,1.47-3.18c0.25-1.37,0.37-2.95,0.37-4.72c0-3.4-0.69-5.73-2.08-6.99
					C71.58,159.26,69.19,158.63,65.79,158.63"/>
			</g>
			<g>
				<path class="st2" d="M280.74,172.64c-1.01,0.74-3,1.12-5.98,1.12h-18.11c-0.29,0-0.53-0.24-0.53-0.53V162.2
					c0-0.29,0.24-0.53,0.53-0.53h20.17c2.08,0,3.51,0.42,4.28,1.25c0.77,0.83,1.16,2.29,1.16,4.37
					C282.25,170.11,281.75,171.9,280.74,172.64 M253.03,189.82h2.55c0.29,0,0.53-0.24,0.53-0.53v-1.41v-10.61
					c0-0.29,0.24-0.53,0.53-0.53h16.47c0.18,0,0.35,0.09,0.44,0.24l8.25,12.6c0.1,0.15,0.27,0.24,0.44,0.24h2.34
					c0.42,0,0.68-0.47,0.44-0.82l-7.52-11.49c-0.22-0.34,0.01-0.8,0.42-0.82c1.43-0.07,2.96-0.23,3.69-0.47
					c1.04-0.34,1.91-0.87,2.61-1.58c0.7-0.71,1.17-1.72,1.41-3.03c0.24-1.31,0.36-2.81,0.36-4.51c0-3.24-0.66-5.46-1.99-6.67
					c-1.32-1.2-3.6-1.81-6.84-1.81h-24.14c-0.29,0-0.53,0.24-0.53,0.53v28.72v1.41C252.5,189.59,252.74,189.82,253.03,189.82"/>
			</g>
			<g>
				<path class="st2" d="M152.2,178.84l9.97-17.17c0.1-0.17,0.28-0.28,0.48-0.28h2.07c0.2,0,0.38,0.1,0.48,0.27l10.14,17.17
					c0.22,0.37-0.05,0.84-0.48,0.84h-22.18C152.25,179.68,151.99,179.21,152.2,178.84 M159.67,158.91l-17.77,30.08
					c-0.22,0.37,0.05,0.84,0.48,0.84h3.14c0.2,0,0.38-0.11,0.48-0.28l3.75-6.46c0.1-0.17,0.28-0.28,0.48-0.28h27.15
					c0.2,0,0.38,0.1,0.48,0.27l3.81,6.47c0.1,0.17,0.28,0.27,0.48,0.27h3.04c0.43,0,0.7-0.47,0.48-0.84l-17.92-30.08
					c-0.1-0.17-0.28-0.27-0.48-0.27h-7.11C159.95,158.63,159.77,158.74,159.67,158.91"/>
			</g>
			<g>
				<path class="st2" d="M353.32,189.82H356c0.31,0,0.56-0.25,0.56-0.56v-30.08c0-0.31-0.25-0.56-0.56-0.56h-2.67
					c-0.31,0-0.56,0.25-0.56,0.56v30.08C352.77,189.57,353.02,189.82,353.32,189.82"/>
			</g>
			<g>
				<path class="st2" d="M450.31,172.61c-1.93-0.21-3.41-0.33-4.39-0.36c-1-0.03-1.55-0.04-2.75-0.04h-10.42
					c-1.87,0-3.3-0.32-4.26-0.96c-0.92-0.61-1.39-1.82-1.39-3.58c0-1,0.13-1.86,0.39-2.56c0.25-0.66,0.82-1.19,1.71-1.59
					c0.93-0.41,2.46-0.71,4.55-0.89c2.1-0.18,4.73-0.27,6.71-0.27h0.73c2.6,0,4.75,0.11,6.39,0.31c1.62,0.21,2.74,0.47,3.36,0.78
					c0.43,0.21,0.77,0.53,1.04,0.98c0.1,0.17,0.27,0.28,0.47,0.28h3.33c0.37,0,0.62-0.36,0.51-0.72c-0.3-0.94-0.72-1.74-1.28-2.38
					c-1.22-1.4-2.98-2.23-5.26-2.47c-2.26-0.24-3.83-0.38-4.8-0.43c-0.98-0.05-2-0.07-4.24-0.07c-2.64,0-5.07,0.08-7.2,0.25
					c-2.16,0.17-4.06,0.55-5.65,1.15c-1.64,0.61-2.83,1.64-3.51,3.08c-0.68,1.4-1.02,3.17-1.02,5.25c0,2.67,0.81,4.61,2.42,5.74
					c1.57,1.11,3.83,1.68,6.7,1.68l8.09,0.22h6.37c2.35,0,4.03,0.29,4.99,0.85c0.92,0.54,1.38,1.86,1.38,3.94
					c0,1.65-0.37,2.84-1.1,3.55c-0.74,0.71-2.17,1.21-4.26,1.48c-2.13,0.27-4.25,0.41-7.36,0.41c-1.94,0-3.91-0.06-5.86-0.17
					c-1.96-0.11-3.54-0.35-4.71-0.71c-1.1-0.34-1.79-0.86-2.04-1.55c-0.1-0.26-0.17-0.58-0.24-0.95c-0.04-0.26-0.27-0.44-0.53-0.44
					h-3.09c-0.33,0-0.58,0.29-0.54,0.62c0.24,1.63,0.68,2.86,1.32,3.73c1.03,1.38,2.78,2.25,5.18,2.57
					c2.33,0.31,4.09,0.49,5.23,0.54c1.13,0.05,2.8,0.07,5.1,0.07h1.86c2.3,0,3.88-0.09,5.82-0.27c1.96-0.18,3.66-0.59,5.06-1.22
					c1.43-0.64,2.45-1.61,3.05-2.88c0.59-1.25,0.89-2.83,0.89-4.69c0-2.86-0.63-4.92-1.87-6.13
					C453.95,173.55,452.31,172.83,450.31,172.61"/>
			</g>
		</g>
	</g>
</g>
</svg>
