<?xml version="1.0" encoding="utf-8"?>
<!-- Generator: Adobe Illustrator 18.0.0, SVG Export Plug-In . SVG Version: 6.00 Build 0)  -->
<!DOCTYPE svg PUBLIC "-//W3C//DTD SVG 1.1//EN" "http://www.w3.org/Graphics/SVG/1.1/DTD/svg11.dtd">
<svg version="1.1" id="Layer_1" xmlns="http://www.w3.org/2000/svg" xmlns:xlink="http://www.w3.org/1999/xlink" x="0px" y="0px"
	 viewBox="0 0 433.6 100" enable-background="new 0 0 433.6 100" xml:space="preserve">
<polygon fill="#555655" points="120,99.3 129.5,99.3 129.5,96.7 122.9,96.7 122.9,81.5 120,81.5 "/>
<path fill="#555655" d="M162.8,90.4c0,1.8-0.7,3.4-2,4.7c-1.3,1.3-2.9,1.9-4.7,1.9c-1.8,0-3.4-0.7-4.7-1.9c-1.3-1.3-1.9-2.9-1.9-4.7
	c0-1.8,0.7-3.5,1.9-4.7c1.3-1.3,2.9-1.9,4.7-1.9c1.8,0,3.4,0.7,4.7,1.9C162.1,86.9,162.8,88.6,162.8,90.4 M165.9,90.4
	c0-2.5-1-4.8-2.8-6.6c-1.9-1.8-4.2-2.7-6.9-2.7c-2.6,0-5,0.9-6.9,2.7c-1.9,1.8-2.8,4.1-2.8,6.6c0,2.5,1,4.8,2.8,6.6
	c1.8,1.8,4.3,2.7,6.9,2.7c2.6,0,5-1,6.9-2.7C164.9,95.2,165.9,93,165.9,90.4"/>
<path fill="#555655" d="M162.8,90.4c0,1.8-0.7,3.4-2,4.7c-1.3,1.3-2.9,1.9-4.7,1.9c-1.8,0-3.4-0.7-4.7-1.9c-1.3-1.3-1.9-2.9-1.9-4.7
	c0-1.8,0.7-3.5,1.9-4.7c1.3-1.3,2.9-1.9,4.7-1.9c1.8,0,3.4,0.7,4.7,1.9C162.1,86.9,162.8,88.6,162.8,90.4 M165.9,90.4
	c0-2.5-1-4.8-2.8-6.6c-1.9-1.8-4.2-2.7-6.9-2.7c-2.6,0-5,0.9-6.9,2.7c-1.9,1.8-2.8,4.1-2.8,6.6c0,2.5,1,4.8,2.8,6.6
	c1.8,1.8,4.3,2.7,6.9,2.7c2.6,0,5-1,6.9-2.7C164.9,95.2,165.9,93,165.9,90.4"/>
<path fill="#555655" d="M185.5,99.3h2.7V86.9c0.5,0.7,1.1,1.4,1.8,2l11.7,11.1V81.5H199v12.4c-0.6-0.7-1.2-1.5-2-2.2l-11.5-10.9
	V99.3z"/>
<path fill="#555655" d="M185.5,99.3h2.7V86.9c0.5,0.7,1.1,1.4,1.8,2l11.7,11.1V81.5H199v12.4c-0.6-0.7-1.2-1.5-2-2.2l-11.5-10.9
	V99.3z"/>
<path fill="#555655" d="M225,96.7V84.1h1.1c2.7,0,4.7-0.1,6.3,1.2c1.4,1.1,2.1,2.9,2.1,5.1c0,2.3-0.7,4-2.1,5.1
	c-1.6,1.3-3.6,1.2-6.3,1.2H225z M222.1,99.3h4c3.3,0,5.9,0.1,8.2-1.7c2.1-1.6,3.2-4,3.2-7.2c0-3.2-1.1-5.7-3.2-7.3
	c-2.2-1.7-4.8-1.7-8.2-1.7h-4V99.3z"/>
<path fill="#555655" d="M225,96.7V84.1h1.1c2.7,0,4.7-0.1,6.3,1.2c1.4,1.1,2.1,2.9,2.1,5.1c0,2.3-0.7,4-2.1,5.1
	c-1.6,1.3-3.6,1.2-6.3,1.2H225z M222.1,99.3h4c3.3,0,5.9,0.1,8.2-1.7c2.1-1.6,3.2-4,3.2-7.2c0-3.2-1.1-5.7-3.2-7.3
	c-2.2-1.7-4.8-1.7-8.2-1.7h-4V99.3z"/>
<path fill="#555655" d="M272.6,90.4c0,1.8-0.7,3.4-2,4.7c-1.3,1.3-2.9,1.9-4.7,1.9c-1.8,0-3.4-0.7-4.7-1.9c-1.3-1.3-1.9-2.9-1.9-4.7
	c0-1.8,0.7-3.5,1.9-4.7c1.3-1.3,2.9-1.9,4.7-1.9c1.8,0,3.4,0.7,4.7,1.9C271.9,86.9,272.6,88.6,272.6,90.4 M275.7,90.4
	c0-2.5-1-4.8-2.8-6.6c-1.9-1.8-4.2-2.7-6.9-2.7c-2.6,0-5,0.9-6.9,2.7c-1.9,1.8-2.8,4.1-2.8,6.6c0,2.5,1,4.8,2.8,6.6
	c1.8,1.8,4.3,2.7,6.9,2.7c2.6,0,5-1,6.9-2.7C274.7,95.2,275.7,93,275.7,90.4"/>
<path fill="#555655" d="M272.6,90.4c0,1.8-0.7,3.4-2,4.7c-1.3,1.3-2.9,1.9-4.7,1.9c-1.8,0-3.4-0.7-4.7-1.9c-1.3-1.3-1.9-2.9-1.9-4.7
	c0-1.8,0.7-3.5,1.9-4.7c1.3-1.3,2.9-1.9,4.7-1.9c1.8,0,3.4,0.7,4.7,1.9C271.9,86.9,272.6,88.6,272.6,90.4 M275.7,90.4
	c0-2.5-1-4.8-2.8-6.6c-1.9-1.8-4.2-2.7-6.9-2.7c-2.6,0-5,0.9-6.9,2.7c-1.9,1.8-2.8,4.1-2.8,6.6c0,2.5,1,4.8,2.8,6.6
	c1.8,1.8,4.3,2.7,6.9,2.7c2.6,0,5-1,6.9-2.7C274.7,95.2,275.7,93,275.7,90.4"/>
<path fill="#555655" d="M295.3,99.3h2.7V86.9c0.5,0.7,1.1,1.4,1.8,2l11.7,11.1V81.5h-2.7v12.4c-0.6-0.7-1.2-1.5-2-2.2l-11.5-10.9
	V99.3z"/>
<path fill="#555655" d="M295.3,99.3h2.7V86.9c0.5,0.7,1.1,1.4,1.8,2l11.7,11.1V81.5h-2.7v12.4c-0.6-0.7-1.2-1.5-2-2.2l-11.5-10.9
	V99.3z"/>
<polygon fill="#555655" points="13,7.6 21.1,7.6 21.1,1.7 0,1.7 0,7.6 8.1,7.6 8.1,44.5 13,44.5 "/>
<polygon fill="#555655" points="13,7.6 21.1,7.6 21.1,1.7 0,1.7 0,7.6 8.1,7.6 8.1,44.5 13,44.5 "/>
<polygon fill="#555655" points="52.3,44.5 69.3,44.5 69.3,38.2 57.2,38.2 57.2,24.4 69.3,24.4 69.3,18.3 57.2,18.3 57.2,7.6 
	69.3,7.6 69.3,1.7 52.3,1.7 "/>
<polygon fill="#555655" points="52.3,44.5 69.3,44.5 69.3,38.2 57.2,38.2 57.2,24.4 69.3,24.4 69.3,18.3 57.2,18.3 57.2,7.6 
	69.3,7.6 69.3,1.7 52.3,1.7 "/>
<path fill="#555655" d="M107.2,38.2V7.9h1.8c4.6,0,7.9-0.2,10.5,2.8c2.3,2.8,3.5,6.9,3.5,12.3c0,5.4-1.2,9.6-3.5,12.3
	c-2.6,3.2-6,2.8-10.5,2.8H107.2z M102.3,44.5h6.7c5.6,0,10,0.2,13.8-4c3.5-3.8,5.4-9.7,5.4-17.4c0-7.7-1.9-13.6-5.4-17.4
	c-3.7-4-8.1-4-13.8-4h-6.7V44.5z"/>
<path fill="#555655" d="M107.2,38.2V7.9h1.8c4.6,0,7.9-0.2,10.5,2.8c2.3,2.8,3.5,6.9,3.5,12.3c0,5.4-1.2,9.6-3.5,12.3
	c-2.6,3.2-6,2.8-10.5,2.8H107.2z M102.3,44.5h6.7c5.6,0,10,0.2,13.8-4c3.5-3.8,5.4-9.7,5.4-17.4c0-7.7-1.9-13.6-5.4-17.4
	c-3.7-4-8.1-4-13.8-4h-6.7V44.5z"/>
<path fill="#555655" d="M206.3,19.7V7.5h1.9c4.4,0,6.5,1,6.5,6.3c0,4.5-2,5.9-6.5,5.9H206.3z M206.3,38.7V25h1.7
	c2.1,0,4-0.2,5.5,0.9c1.5,1.1,2.3,3.2,2.3,5.9c0,2.3-0.7,4.3-1.9,5.4c-1.2,1.1-3.2,1.3-5.9,1.3H206.3z M201.4,44.5h7.7
	c4.3,0,7.2-0.2,9.3-3.2c1.5-2.2,2.5-5.4,2.5-8.9c0-5.7-2.2-9.8-5.7-10.5c2.9-1.2,4.4-4.4,4.4-8.9c0-3.8-1.1-7.1-3-9
	c-1.9-2-4.3-2.2-7.5-2.2h-7.7V44.5z"/>
<path fill="#555655" d="M206.3,19.7V7.5h1.9c4.4,0,6.5,1,6.5,6.3c0,4.5-2,5.9-6.5,5.9H206.3z M206.3,38.7V25h1.7
	c2.1,0,4-0.2,5.5,0.9c1.5,1.1,2.3,3.2,2.3,5.9c0,2.3-0.7,4.3-1.9,5.4c-1.2,1.1-3.2,1.3-5.9,1.3H206.3z M201.4,44.5h7.7
	c4.3,0,7.2-0.2,9.3-3.2c1.5-2.2,2.5-5.4,2.5-8.9c0-5.7-2.2-9.8-5.7-10.5c2.9-1.2,4.4-4.4,4.4-8.9c0-3.8-1.1-7.1-3-9
	c-1.9-2-4.3-2.2-7.5-2.2h-7.7V44.5z"/>
<path fill="#555655" d="M259.7,27.6l3.1-9.8c0.3-1.1,0.7-2.7,1.1-4.8c0.4,2.2,0.8,3.7,1.1,4.8l3.1,9.8H259.7z M273.4,44.5h5.3
	L263.9,0l-14.8,44.5h5.2l3.5-11H270L273.4,44.5z"/>
<path fill="#555655" d="M259.7,27.6l3.1-9.8c0.3-1.1,0.7-2.7,1.1-4.8c0.4,2.2,0.8,3.7,1.1,4.8l3.1,9.8H259.7z M273.4,44.5h5.3
	L263.9,0l-14.8,44.5h5.2l3.5-11H270L273.4,44.5z"/>
<polygon fill="#555655" points="308.8,44.5 313.8,44.5 313.8,22.6 325.8,44.5 332.2,44.5 318.7,20.7 330.8,1.7 324.7,1.7 
	313.8,19.4 313.8,1.7 308.8,1.7 "/>
<polygon fill="#555655" points="308.8,44.5 313.8,44.5 313.8,22.6 325.8,44.5 332.2,44.5 318.7,20.7 330.8,1.7 324.7,1.7 
	313.8,19.4 313.8,1.7 308.8,1.7 "/>
<polygon fill="#555655" points="362.6,44.5 379.6,44.5 379.6,38.2 367.5,38.2 367.5,24.4 379.6,24.4 379.6,18.3 367.5,18.3 
	367.5,7.6 379.6,7.6 379.6,1.7 362.6,1.7 "/>
<polygon fill="#555655" points="362.6,44.5 379.6,44.5 379.6,38.2 367.5,38.2 367.5,24.4 379.6,24.4 379.6,18.3 367.5,18.3 
	367.5,7.6 379.6,7.6 379.6,1.7 362.6,1.7 "/>
<path fill="#555655" d="M417.6,19.9V7.7h0.9c4.4,0,6.5,1.1,6.5,6.4c0,5.1-2.2,5.9-6.5,5.9H417.6z M417.3,25.3h0.6L428,44.5h5.6
	L423.1,25c4.6-0.8,7-4.7,7-11.6c0-4-1.1-7.4-2.9-9.4c-1.9-2-4.3-2.4-7.6-2.4h-6.9v42.8h4.7V25.3z"/>
<path fill="#555655" d="M417.6,19.9V7.7h0.9c4.4,0,6.5,1.1,6.5,6.4c0,5.1-2.2,5.9-6.5,5.9H417.6z M417.3,25.3h0.6L428,44.5h5.6
	L423.1,25c4.6-0.8,7-4.7,7-11.6c0-4-1.1-7.4-2.9-9.4c-1.9-2-4.3-2.4-7.6-2.4h-6.9v42.8h4.7V25.3z"/>
</svg>
